<svg xmlns="http://www.w3.org/2000/svg" width="1024" height="1024" fill-rule="evenodd" xmlns:v="https://vecta.io/nano"><path d="M508.509 441.172c-3.58 2.815-3.2 7.746.741 9.626 1.512.721 2.782 2.074 2.82 3.007l.379 6.695.43 9.309c.066 2.37.529 4.057 1.027 3.749s.671-1.46.383-2.559c-.292-1.117-.03-1.999.594-1.999.615 0 1.12.113 1.123.25s.452 2.95.997 6.25 1.244 8.025 1.553 10.5 1.008 7.102 1.553 10.283l1.448 9c.803 5.659 1.037 6.645 1.747 7.355.383.382.73-1.742.771-4.721.113-8.252.844-20.92 1.479-25.667.395-2.954 1.047-4.25 2.139-4.25 1.246 0 1.463-.799 1.051-3.874-.402-2.992-.09-4.241 1.368-5.49 1.068-.914 1.888-2.913 1.888-4.601 0-2.307-.684-3.337-3.013-4.542-2.881-1.49-3.122-1.449-5.5.929-3.196 3.196-3.152 6.057.14 9.108 2.764 2.562 2.669 2.691-2.855 3.9-3.083.675-2.737 1.506-5.267-12.653-1.52-8.5-1.508-8.774.468-10.75 5.319-5.319-1.569-13.492-7.464-8.855M535.2 442.2c-1.319 1.319-1.597 6.676-.435 8.373 2.518 3.677 8.235.614 8.235-4.412 0-3.295-1.627-5.161-4.5-5.161-1.155 0-2.64.54-3.3 1.2m-46.369 8.05c-3.827 3.084-2.573 8.75 1.937 8.75 1.557 0 3.372-.54 4.032-1.2 1.683-1.683 1.494-5.364-.371-7.229-1.897-1.896-3.527-1.99-5.598-.321m56.204 4.684c-1.494 2.792-1.274 5.684.573 7.531 1.245 1.245 1.453 2.644.92 6.199-.379 2.526-.954 5.283-1.278 6.128-.387 1.007-.187 1.287.58.813.644-.398 1.17-1.87 1.17-3.271 0-1.666.445-2.377 1.286-2.055.921.354 1.184-.396.927-2.643-.288-2.513.102-3.335 1.964-4.136 2.664-1.147 3.745-6.684 1.769-9.065-1.76-2.121-6.675-1.811-7.911.499M537.436 463c.282 2.877.081 5-.473 5-.53 0-.963.675-.963 1.5s.45 1.5 1 1.5c1.464 0 1.222 2.701-.295 3.283-.712.273-1.879 3.44-2.594 7.038-1.076 5.41-1.63 6.516-3.206 6.397-1.411-.106-1.905-.909-1.905-3.097 0-1.625-.225-2.729-.5-2.454-.494.493-.967 28.453-.548 32.333.203 1.878 3.538-13.095 4.517-20.279.246-1.804 1.173-4.006 2.061-4.894 1.486-1.486 1.57-1.344 1.055 1.779L533.961 501c-.586 3.575-1.331 7.396-1.657 8.492-.506 1.703-.368 1.806.95.712 2-1.66 6.965-15.04 6.1-16.44-.393-.636-.193-.782.491-.359.748.462 1.143-.1 1.122-1.596l-.034-2.309-2.052 2.467-2.052 2.466.426-4.762c.33-3.691.124-4.647-.915-4.248-.737.283-1.34-.132-1.34-.923 0-.867.595-1.209 1.5-.862 1.097.421 1.5-.125 1.5-2.031 0-1.434-.45-2.607-1-2.607s-1-.675-1-1.5.675-1.5 1.5-1.5c1.222 0 1.5-1.667 1.5-9 0-5.492-.4-9-1.027-9s-.839 1.927-.537 5m-43.774-1.75c.429.688.91 2.15 1.07 3.25s2.588 7.83 5.397 14.956 5.167 13.988 5.24 15.249.468 2.294.881 2.294.75.467.75 1.036c0 .702-.644.691-2-.035-1.1-.589-2-1.756-2-2.594s-.389-1.283-.866-.989-2.299-1.771-4.051-4.59c-2.284-3.674-3.492-4.818-4.267-4.043-.595.595-.773 1.887-.395 2.871.55 1.432.855 1.517 1.53.424.629-1.018 1.568-.278 3.696 2.913l4.526 6.786c.92 1.38 2.05 2.782 2.509 3.115s2.104 2.561 3.652 4.949c3.243 5 4.705 4.868 2.297-.207-.897-1.891-1.631-3.731-1.631-4.091s-.899-2.626-1.997-5.037-2.156-5.199-2.35-6.195-.68-2.564-1.08-3.484c-.809-1.86 1.065-6.17 2.34-5.382.447.276 1.386 2.551 2.087 5.054s1.665 4.793 2.144 5.089-.198-2.402-1.502-5.994c-2.308-6.359-2.322-6.575-.506-8.218 2.191-1.983 2.408-5.251.52-7.833-1.774-2.426-6.255-1.382-7.228 1.683-.63 1.986-.938 1.717-2.882-2.52-1.197-2.609-2.425-4.495-2.729-4.191s-.826-.812-1.16-2.481-1.095-3.035-1.691-3.035c-.617 0-.748.539-.304 1.25m-8.277 8.515c-3.367 2.218-2.123 9.235 1.637 9.235 1.303 0 2.462 1.222 3.488 3.677 1.145 2.742 1.824 3.389 2.671 2.542s.809-1.526-.145-2.676c-1.017-1.225-1.03-2.142-.067-4.468 1.981-4.782-.126-9.044-4.469-9.044-1.1 0-2.502.33-3.115.734m94.131 2.485c-.851 2.526-.89 4.302-.145 6.5.586 1.727 1.534 2.25 4.075 2.25 2.714 0 3.529-.525 4.516-2.909 1.779-4.295-.007-7.091-4.529-7.091-1.922 0-3.685.563-3.917 1.25m-106.511.883c-.003.899-.885 1.864-1.959 2.145-5.17 1.352-2.652 9.722 2.924 9.722 2.089 0 3.043.805 4.447 3.75 2.069 4.34 11.054 17.107 13.453 19.115 1.138.953 1.27 1.5.436 1.814-.656.248-.917 1.17-.58 2.05.408 1.062.221 1.356-.556.876-.644-.398-1.17-.27-1.17.284 0 1.184-3.829-.018-10.809-3.395-3.327-1.61-4.905-1.939-5.426-1.132-.465.721-.74.488-.75-.637-.008-.976-1.068-2.175-2.354-2.664-1.843-.701-2.262-1.491-1.972-3.725.439-3.383-.418-4.826-3.422-5.763-1.652-.516-2.89-.041-4.75 1.819-3.056 3.056-3.231 6.651-.449 9.17 1.892 1.711 2.298 1.743 4.75.364 2.594-1.459 2.866-1.36 8.323 3.033 3.102 2.498 7.933 5.666 10.734 7.041 4.772 2.342 6.467 4 4.09 4-.699 0-.683.658.046 2.021.595 1.111.762 2.538.371 3.171-.461.746-.994.387-1.514-1.021-.81-2.188-2.868-3.028-2.868-1.171 0 .55.54 1 1.2 1 2.09 0-.493 1.781-4.2 2.896l-3.5 1.054 4-.506 7.5-.958c1.925-.249 6.425-.708 10-1.021 6.223-.543 6.402-.497 4.204 1.073-1.263.902-2.951 1.389-3.75 1.083s-1.454-.122-1.454.41-1.152.969-2.559.969-2.318.389-2.024.865c.58.939 4.819.725 6.526-.33.581-.359 1.057-.219 1.057.312s.9.73 2 .443 2-.073 2 .477-.9 1.235-2 1.523c-1.336.349-2 1.364-2 3.057 0 1.394-.45 2.813-1 3.153-1.501.927-1.204 4.5.374 4.5.756 0 3.337-2.025 5.735-4.5s5.154-4.5 6.122-4.5c1.659 0 1.649.295-.171 5.085-1.063 2.796-1.688 5.721-1.389 6.5 1.017 2.651 3.474 1.424 5.153-2.575.922-2.194 2.04-3.994 2.485-4s.501.488.125 1.097c-.457.739-.002.891 1.37.455 1.607-.51 2.15-.152 2.493 1.643.241 1.262.261.566.044-1.547-.492-4.8 1.633-4.598 3.255.309.952 2.88 1.169 3.041 1.644 1.223.301-1.152.037-2.264-.587-2.472-.74-.247-.554-.96.535-2.048 2.356-2.356 2.801-2.113 2.891 1.58.043 1.788.323 2.636.621 1.886.39-.981 1.166-.583 2.761 1.418 1.481 1.856 2.771 2.571 3.878 2.146 1.874-.719 1.709-2.488-.752-8.058-1.711-3.873-1.602-5.387.303-4.21.562.348.769 1.293.459 2.1s-.065 1.468.544 1.468 1.107-.505 1.107-1.122c0-.78.455-.745 1.489.113.819.68 1.313 1.522 1.097 1.872s.935.733 2.557.85c3.253.236 4.797-1.875 2.978-4.068-.607-.731-.883-1.625-.612-1.987s.212-.454-.128-.206c-.64.468-3.381-1.868-3.381-2.881 0-.314.563-.458 1.25-.321s1.169-.217 1.071-.788 1.026-1.129 2.5-1.24c2.062-.156 2.333.022 1.179.773-1.283.833-1.246.977.25.99.962.008 1.75-.373 1.75-.847s1.125-.739 2.5-.589c4.335.476 2.706-1.311-1.75-1.919-2.337-.319-4.925-.738-5.75-.931s-3.828-.707-6.673-1.143c-6.021-.923-6.145-2.369-.419-4.895 6.207-2.739 20.192-12.44 25.723-17.844 3.387-3.309 5.375-4.616 5.851-3.845.76 1.229.236 1.939-6.505 8.807-5.265 5.363-11.127 9.422-17.853 12.358-4.78 2.088-5.03 2.354-2.932 3.13 1.26.466 4.996 1.091 8.3 1.388 8.155.734 8.986.751 17.008.36l7-.341-5.5-.61c-3.025-.336-6.288-.247-7.25.198-1.071.495-1.75.399-1.75-.246 0-.612-1.002-.803-2.391-.454-1.417.356-2.702.097-3.154-.635-.491-.795-.352-.981.39-.522.635.392 1.155.188 1.155-.453s.696-.899 1.556-.569c.965.37 2.468-.444 3.953-2.143 1.989-2.273 2.16-2.922 1.005-3.805-1.844-1.413-1.413-3.697 1.244-6.579 8.277-8.979 9.201-10.346 7.213-10.673-1.808-.297-1.829-.47-.341-2.741.874-1.334 2.038-2.147 2.586-1.808.612.378.473.983-.359 1.567-1.099.771-1.072.876.143.557 1.345-.354 6.919-9.147 6.977-11.008.059-1.921-1.934-.336-5.032 4-4.957 6.937-14.779 16.471-16.117 15.644-.698-.432-.862-.257-.423.451.647 1.049-.599 1.619-2.729 1.249-.454-.079-.492.394-.086 1.051.492.796.223.997-.804.603-.848-.325-1.938-.196-2.423.289-.506.506-1.49.502-2.319-.01-1.126-.696-.889-1.028 1.091-1.525 2.288-.574 3.707-3.502 1.698-3.502-1.325 0-.969-1.721.703-3.394 1.857-1.856 4.464-7.871 4.464-10.296 0-1.472-.251-1.397-1.558.469-.857 1.224-1.298 2.645-.981 3.158 1.634 2.644-21.87 32.063-25.616 32.063-.522 0-1.42-1.35-1.995-3s-1.5-3-2.055-3-.75.675-.433 1.5.17 1.5-.326 1.5-1.17.847-1.499 1.883c-.436 1.374-1.601 1.906-4.317 1.97-2.046.049-4.845.325-6.22.614-5.926 1.246-33.641-8.226-31.204-10.663.664-.664 5.085.392 13.209 3.157 6.716 2.286 12.378 3.989 12.581 3.786s-1.812-2.034-4.479-4.068C494.466 509.327 483.102 497 485.965 497c.662 0 3.528 2.212 6.369 4.915 9.535 9.071 12.151 11.215 14.967 12.269 1.541.576 2.56 1.288 2.265 1.583s.634 1.143 2.063 1.885c3.435 1.782 3.866 1.7 1.821-.345-2.718-2.718-12.448-15.899-12.472-16.896-.012-.501-.928-2.036-2.036-3.411-1.829-2.272-1.804-2.044.273 2.5 1.257 2.75 2.722 5.313 3.256 5.696 1.548 1.109-.204 2.13-2.178 1.269-.986-.43-2.13-.711-2.543-.624s-.75-.516-.75-1.341-.354-1.5-.787-1.5-.85-.835-.927-1.856c-.172-2.282-4.277-9.203-4.282-7.22-.003.992-.84.687-2.754-1l-2.75-2.424 2.5 2.991c1.375 1.646 2.937 3.309 3.471 3.696s.684.991.333 1.342c-.624.624-5.495-3.94-11.131-10.43-3.039-3.498-3.107-7.534-.086-5.027 1.959 1.626-1.558-4.288-5.098-8.572-1.74-2.105-2.481-2.513-2.484-1.367M547.65 478c-.425 3.575-1.045 7.625-1.377 9-.548 2.265-.444 2.367 1.107 1.09.941-.776 1.48-2.013 1.197-2.75s-.126-1.34.347-1.34 1.119-.67 1.433-1.488.25-1.44-.143-1.382c-1.819.271-2.381-.235-1.534-1.38.508-.687.659-2.825.334-4.75-.526-3.111-.677-2.778-1.364 3m-34.28-.998c1.302 6.1 1.605 15.378.622 19.028-.872 3.236-.74 4.91.703 8.974.976 2.748 2.105 4.996 2.508 4.996s.475.675.159 1.5-.069 1.5.55 1.5c1.132 0 .988-6.728-.256-12-.324-1.375-.822-4.75-1.106-7.5-1.094-10.593-2.209-17.492-2.945-18.229-.422-.422-.528.357-.235 1.731m43.129.304c-1.243 1.773-1.17 2.347.614 4.853 2.46 3.455 6.707 3.802 9.449.773 1.711-1.891 1.742-2.299.365-4.75-1.959-3.489-8.229-4.016-10.428-.876m-7.972 13.65c-.325.526-1.139.748-1.809.494-.792-.301-2.243 2.775-4.149 8.794L539.146 511c-.271.825 1.189-.525 3.244-3l5.973-7c4.122-4.608 7.883-10 6.975-10-.494 0-2.673 2.449-4.841 5.442s-4.742 5.65-5.72 5.906c-1.985.519-2.024.46-1.17-1.766.334-.87 1.346-1.618 2.25-1.661 1.038-.05 1.182-.265.393-.583-1.338-.54-1.751-3.317-.5-3.369.82-.035 4.649-4.969 3.856-4.969-.269 0-.754.43-1.079.956m101 20c-.325.526-1.33.673-2.233.327-1.226-.471-1.482-.214-1.009 1.017.387 1.01-.029 2.032-1.077 2.643-.939.548-1.23 1.01-.645 1.027s2.356-1.32 3.937-2.97 2.592-3 2.246-3-.894.43-1.219.956M532.5 528c.995 1.1 2.307 2 2.914 2s1.667.9 2.354 2 2.22 2 3.407 2 1.865.293 1.507.651.127 1.22 1.077 1.915c2.408 1.761 3.532-.345 1.392-2.608-1.578-1.667-12.509-7.958-13.829-7.958-.347 0 .183.9 1.178 2m-24.215 4.25c-2.082 1.788-3.952 3.639-4.156 4.114s-1.217 1.587-2.25 2.472c-1.792 1.534-2.581 4.164-1.25 4.164.347 0 3.663-3.15 7.371-7 6.899-7.164 7.084-9.588.285-3.75M527 529.655c0 1.247 6.5 12.345 7.231 12.345.423 0 .769.675.769 1.5s.675 1.5 1.5 1.5 1.5-.231 1.5-.514c0-.863-2.403-4.774-4.172-6.79-.92-1.048-2.199-3.176-2.842-4.729-1.022-2.469-3.986-4.931-3.986-3.312m-10.435 4.095c-.914 2.063-2.105 4.556-2.647 5.541-1.003 1.821-.477 3.709 1.033 3.709.767 0 2.363-4.161 2.493-6.5.031-.55.333-1.225.671-1.5s.931-1.513 1.318-2.75c1.158-3.712-1.075-2.544-2.868 1.5" fill="#edbb64"/><path d="M531.143 322.89c-1.103.699-1.114 1.01-.059 1.662.761.47 1.46.315 1.69-.375.216-.647 1.057-1.177 1.868-1.177.861 0 1.179.481.763 1.155-.445.719-.275.882.453.433.642-.397 2.512-.051 4.155.768 3.978 1.985 3.812 1.117-.263-1.367-3.471-2.116-6.409-2.491-8.607-1.099M662 393.896c-2.278.634-2.33.762-.58 1.434 1.092.42 2.205.277 2.58-.33.363-.587 1.411-.779 2.33-.427.94.361 1.67.157 1.67-.466 0-1.213-2.133-1.289-6-.211m-35.91 13.122c-4.134 2.306-5.974 3.982-4.373 3.982a1.65 1.65 0 0 0 1.464-1.044c.192-.575 1.253-1.113 2.358-1.196s2.865-.964 3.911-1.956c2.43-2.308.995-2.217-3.36.214M615 412.596c-5.668 3.239-5.629 3.194-4.037 4.671.81.751 1.082.788.695.096-.723-1.292 1.677-3.695 2.684-2.688.362.362.658.133.658-.508s.62-1.167 1.378-1.167 1.937-.675 2.622-1.5c1.676-2.02 1.244-1.901-4 1.096m76.5.38c-4.27 1.098-8.5 2.873-8.5 3.567 0 .325 1.013.261 2.25-.143s2.933-.793 3.768-.864a7.44 7.44 0 0 0 2.75-.892c.677-.419 1.635-.513 2.127-.209s1.153-.119 1.469-.941c.626-1.632.523-1.646-3.864-.518m-311.973 2.981c-.344.556.677.796 2.441.572 1.668-.211 3.032.06 3.032.603s.45.708 1 .368 1-1.041 1-1.559c0-1.236-6.708-1.222-7.473.016m219.966 6.672l-8.346 5.936c-.194.169 1.044.267 2.75.219 2.319-.066 3.103-.555 3.103-1.936 0-1.016.675-1.848 1.5-1.848s1.5-.441 1.5-.981 1.125-1.263 2.5-1.608 2.5-1.254 2.5-2.019c0-1.279 1.263-1.844 3.324-1.486.454.079.54-.318.191-.881s-.722-1.025-.831-1.025-3.795 2.533-8.191 5.629m-13.071 1.372c-.046 2.955.363 4.999 1 5 .673 0 .948-1.877.731-5-.448-6.47-1.63-6.47-1.731 0M440.5 435.541c3.446 2.766 5.332 3.54 5.998 2.462.341-.552.423-1.003.183-1.003s-2.179-.689-4.309-1.532c-3.569-1.412-3.716-1.406-1.872.073m-95.25 6.706c-4.19 1.344-4.14 2.253.123 2.253 2.496 0 3.231-.368 2.83-1.414-.375-.977-.133-1.161.782-.596.881.545 1.085.433.61-.335-.392-.635-.799-1.109-.904-1.053s-1.653.571-3.441 1.145M330.5 453c-.816 1.32.38 3.192 1.569 2.457.512-.316.963.239 1.001 1.234.063 1.615.163 1.594.93-.191 1.181-2.749 1.181-4.328 0-2.5-.828 1.282-.972 1.246-.985-.25-.016-1.904-1.524-2.353-2.515-.75m71.286 97.553c-1.77.961-2.509 2.005-2.125 3.005.491 1.281.822 1.197 2.02-.513.788-1.125 2.055-2.045 2.817-2.045s1.662-.45 2.002-1c.893-1.445-1.563-1.157-4.714.553m-7.124 4.065c-1.562.846-2.657 1.72-2.434 1.943.625.625 6.772-1.899 6.772-2.78 0-1.125-1.115-.91-4.338.837m131.511 40.066c-.645 1.202-1.173 3.283-1.173 4.625 0 1.937.516 2.441 2.5 2.441 2.84 0 3.125-1.578 1.128-6.25-1.268-2.965-1.296-2.974-2.455-.816m-41.673 32.44c-8.245 2.617-20.607 4.021-32.646 3.706-6.955-.181-12.441-.667-12.191-1.08s-1.034-.783-2.854-.824-4.434-.267-5.809-.503c-1.91-.328-2.146-.196-1 .559.825.543 1.078.994.561 1.003s.094.977 1.356 2.153c1.895 1.765 2.467 1.895 3.283.75.787-1.105.881-1.05.462.268-.293.92.332 2.434 1.405 3.405 1.859 1.682 1.937 1.657 2.049-.656.082-1.695.251-1.888.573-.655.252.962.875 1.75 1.384 1.75s.927.477.927 1.059-.562.721-1.25.308c-.718-.431-.612.035.25 1.097 1.381 1.701 1.526 1.712 1.834.136.435-2.226 2.595-1.496 2.908.983.226 1.796.183 1.791-.68-.083-.718-1.558-.937-1.64-.992-.372-.038.895.605 2.187 1.43 2.872 1.241 1.03 1.517.921 1.6-.628.073-1.371.283-1.212.787.596 1.158 4.155 20.966 14.822 31.64 17.038 10.352 2.149 29.963-.488 34.973-4.702 1.65-1.388 2.407-2.204 1.683-1.813-.894.482-1.215.149-1-1.037.174-.961-.358-1.94-1.183-2.176-1.212-.348-1.24-.248-.143.521.878.615.99 1.177.319 1.592-.571.353-1.295.225-1.61-.284-.847-1.371.483-4.195 1.639-3.481 1.477.913-1.054-3.511-4.904-8.573-4.54-5.969-13.241-13.29-14.996-12.617-.777.299-1.135.098-.798-.447.768-1.242-4.938-1.156-9.007.135m-47.808 4.168c.417.665.686 2.108.598 3.208-.127 1.584-.054 1.636.348.25.28-.962.752-1.75 1.049-1.75 1.436 0 36.587 8.663 41.222 10.159l3.408 1.101-2.408 1.334c-1.325.735-3.127 1.351-4.005 1.371-2.1.046-8.177 3.095-7.507 3.765.287.287 4.115-.729 8.507-2.258l7.986-2.78 6.305 2.287c3.468 1.258 6.53 2.587 6.805 2.953.69.918 9.088 3.313 9.65 2.752.25-.25-1.707-1.476-4.348-2.724-6.323-2.986-7.572-4.128-14.006-12.802-6.518-8.786-8.247-8.832-2.391-.063 2.275 3.408 3.897 6.436 3.604 6.729s-3.115-.686-6.271-2.175c-5.388-2.543-23.631-7.611-27.488-7.637-.962-.007-1.75-.489-1.75-1.071 0-.592-.551-.719-1.249-.287-1.75 1.082-6.846.446-9.366-1.168-1.268-.813-2.479-.992-3.024-.447s-2.013.335-3.668-.523c-1.858-.964-2.511-1.037-2.001-.224m52.867 21.832c-2.167.508-4.176 1.159-4.463 1.447-.751.751 5.858-.24 9.404-1.41 3.871-1.276.458-1.302-4.941-.037m61.754 77.249c.359.936 1.391 4.272 2.292 7.414s1.772 5.863 1.934 6.046c.6.68 4.358-3.782 4.654-5.526.243-1.431-.265-1.747-2.443-1.519-1.933.202-2.75-.169-2.75-1.25 0-.846-.45-1.538-1-1.538s-1-.873-1-1.941-.526-2.266-1.17-2.664c-.792-.489-.959-.173-.517.978" fill="#abbb7a"/><path d="M533 324.067c0 .613-.853.797-2 .433-1.1-.349-2-.239-2 .244s-.923 1.87-2.051 3.08-1.734 2.716-1.346 3.343.277.877-.248.552-1.528.328-2.229 1.45-.838 1.771-.305 1.441 1.234.092 1.558.936c.345.897.077 1.468-.645 1.376-2.783-.358-3.648.139-3.033 1.742.392 1.02.238 1.416-.397 1.024-.57-.353-1.884.325-2.92 1.505-1.852 2.11-1.85 2.134.116 1.417 1.526-.556 1.724-.451.837.444-1.26 1.27-3.71.359-2.837-1.055.294-.474-.269-1.455-1.251-2.181s-2.58-2.565-3.553-4.089C506.971 329.896 500.417 324 497.658 324c-3.839 0-11.105 4.468-10.048 6.178.28.452-.161.822-.978.822-1.884 0-7.808 7.099-7.215 8.645.245.637-.47 1.397-1.587 1.689s-1.734 1.012-1.372 1.599.048 1.067-.699 1.067c-1.955 0-9.774 13.302-8.367 14.235.703.466.509.74-.531.75-3.309.031-11.649 19.39-14.87 34.515-.585 2.75-1.321 5.844-1.635 6.875-.41 1.348-.211 1.653.707 1.086.951-.588 1.072-.3.473 1.125-.441 1.053-.771 2.702-.732 3.664s-.35 1.75-.866 1.75-.938.675-.938 1.5.45 1.5 1 1.5 1 .477 1 1.059-.471.768-1.048.412c-.701-.434-.949 1.611-.75 6.19.225 5.164.634 6.768 1.671 6.548.861-.182 1.157.27.795 1.214-.728 1.898 1.758 11.706 4.42 17.437 1.114 2.398 1.873 4.512 1.687 4.698s-2.888-1.836-6.004-4.495-7.219-5.795-9.119-6.969-3.727-2.847-4.061-3.718-1.242-1.34-2.017-1.043-1.669-.137-1.986-.965c-.391-1.019-1.307-1.301-2.833-.871-1.403.394-1.787.306-1.015-.234.846-.593-.739-1.753-5-3.658-8.266-3.696-23.711-8.741-24.765-8.09-.46.285-1.1.092-1.422-.429-1.001-1.62-11.376-2.478-13.061-1.08-.922.765-1.492.838-1.492.189 0-.586-1.338-.88-3.032-.666-1.764.224-2.785-.016-2.441-.572.877-1.42-4.923-1.161-6.369.285-.988.988-1.413.964-2.083-.12-.674-1.091-1.057-.99-1.928.508-.876 1.509-1.092 1.564-1.117.287-.038-1.988-3.03-2.114-3.03-.128 0 1.212-.264 1.237-1.576.148-1.307-1.084-1.732-1.063-2.485.127-.74 1.17-.911 1.182-.924.064-.012-1.107-.306-1.132-1.515-.128-1.036.86-1.5.898-1.5.122 0-.617-.675-1.122-1.5-1.122s-1.5.436-1.5.969-.675.709-1.5.393c-.877-.337-1.506-.012-1.515.781-.011.93-.247 1.004-.75.235s-1.897-.382-4.485 1.265c-2.963 1.885-3.75 3.013-3.75 5.372 0 1.642.408 2.985.906 2.985s.653.97.343 2.156c-.361 1.382-.182 1.92.5 1.499.67-.414.871.083.541 1.344-.385 1.471-.029 2.005 1.343 2.016 1.422.012 1.545.22.517.871-1.123.712-1.096 1.339.159 3.735.83 1.583 1.887 2.766 2.35 2.629s.841.265.841.895c0 .638-1.665 1.191-3.762 1.25-2.629.073-3.617-.271-3.281-1.145.264-.687-.181-1.25-.988-1.25s-1.469.45-1.469 1-.675 1-1.5 1-1.5-.45-1.5-1-.477-1-1.059-1-.785.443-.45.985c.373.603-.485.766-2.214.42-2.11-.422-3.323-.009-4.8 1.632-1.73 1.923-1.958 3.518-1.826 12.771.125 8.798.444 10.788 1.898 11.851 1.258.92 1.459 1.638.716 2.56-3.277 4.067 11.534 37.701 16.288 36.989 1.624-.243 1.698-.116.447.763-1.236.869-.004 2.51 7 9.326 10.564 10.28 20.588 16.583 35.439 22.284 8.974 3.445 12.824 4.419 17.476 4.419 3.282 0 6.245.45 6.585 1s-.098 1-.972 1-1.807.563-2.071 1.25-1.698 1.321-3.185 1.408-3.507 1.149-4.488 2.36c-1.102 1.362-1.79 1.684-1.799.843-.011-.921-.253-1.002-.75-.252-.404.61-2.422 1.713-4.485 2.451s-3.75 1.701-3.75 2.141-.469.799-1.042.799c-1.305 0-3.042 1.375-8.563 6.776-4.069 3.981-8.901 11.273-6.478 9.775.596-.368 1.083-.192 1.083.39s-.505 1.059-1.122 1.059c-.776 0-.738.464.122 1.5 1.006 1.213.975 1.5-.165 1.5-.775 0-1.478.91-1.562 2.022s.229 1.786.694 1.498.624.33.351 1.372c-.783 2.995 8.355 17.757 15.927 25.729 7.538 7.936 16.33 12.989 27.603 15.865 5.782 1.475 7.028 2.31 14 9.388 13.11 13.311 33.508 25.768 46.038 28.116 8.848 1.659 21.136 1.013 29.248-1.537 1.099-.346 1.828.232 2.227 1.766.367 1.411 3.283 3.988 7.644 6.755 3.878 2.461 8.109 5.611 9.403 7 2.168 2.328 5.282 11.403 10.645 31.026 2.149 7.864 5.455 16.778 10.407 28.061 5.485 12.497 7.093 13.728 13.13 10.047 6.764-4.125 19.41-18.358 19.41-21.847 0-.478-2.566-4.895-5.701-9.815-7.364-11.554-17.646-34.054-20.284-44.387-3.419-13.391-9.714-54.693-8.518-55.889.28-.28 2.87.517 5.756 1.772l8.445 3.629c12.579 5.3 36.242 5.759 51.065.992 17.788-5.722 31.255-13.526 42.315-24.523 15.63-15.54 27.056-47.793 20.153-56.889-1.107-1.458-2.732-2.589-3.611-2.514s-1.352-.262-1.05-.75-.154-.887-1.011-.887-1.559-.498-1.559-1.107-.698-.839-1.552-.511-1.304.194-1.001-.296c.498-.805-4.492-3.327-6.947-3.511-.55-.041-1.595-.637-2.321-1.325s-1.852-1.291-2.5-1.34-3.534-.192-6.412-.316c-7.655-.331-8.912-2.454-1.841-3.111 3.989-.371 19.059-8.622 26.343-14.423 20.092-16.002 29.538-32.249 34.819-59.887 1.449-7.587 1.538-9.477.477-10.133-1.009-.624-.881-1.055.565-1.905 1.569-.922 1.639-1.25.434-2.04-1.159-.761-1.195-1.233-.186-2.448 1.438-1.732.271-9.96-2.276-16.057-1.889-4.52-6.217-6.838-8.06-4.316-.682.932-1.522 1.413-1.867 1.068s-1.241-.117-1.993.507-1.598.901-1.882.617-2.561.36-5.058 1.43c-4.108 1.761-4.517 1.788-4.278.276.159-1.011 1.009-1.557 2.15-1.38 1.287.199 1.493.024.649-.551-.915-.624-.98-1.74-.25-4.286.543-1.893.987-5.642.987-8.332 0-4.093-.448-5.277-2.75-7.263-3.243-2.798-6.526-4.032-6.994-2.628-.183.548-1.665.842-3.294.652-1.678-.195-2.962.126-2.962.743 0 .605-.741.803-1.67.446-.919-.352-1.99-.123-2.381.509-.508.823-1.244.852-2.579.105-1.421-.795-2.329-.643-3.791.634-1.103.963-1.583 1.101-1.126.322.588-1.001.305-1.21-1.078-.798-1.031.308-3.225.87-4.875 1.248-4.346.996-8.653 3.35-8.016 4.38.302.489.022 1.214-.622 1.612-.705.436-.904.292-.5-.361.369-.597.21-1.37-.353-1.718s-1.293.071-1.623.931-1.227 1.563-1.993 1.563-1.393.502-1.393 1.117c0 .635-.888.884-2.061.577-1.262-.33-2.273.013-2.607.884-.3.782-1.173 1.422-1.939 1.422s-1.393.45-1.393 1-1.125 1-2.5 1-2.5.45-2.5 1-.477 1-1.059 1-.773-.562-.424-1.25-.259-.238-1.351 1-2.702 2.25-3.576 2.25-1.59.424-1.59.943-.849.779-1.886.579c-1.492-.287-1.777.089-1.364 1.807.428 1.778.28 1.944-.814.921-1.831-1.713-3.274-1.573-2.574.25.391 1.02-.054 1.5-1.393 1.5-1.084 0-1.969.675-1.969 1.5s-.689 1.5-1.531 1.5-1.791.675-2.107 1.5-1.428 1.5-2.469 1.5c-1.258 0-1.893.706-1.893 2.107 0 1.516-.446 1.936-1.593 1.496-1.06-.407-1.766.054-2.113 1.382-.287 1.096-.879 1.771-1.317 1.501s-1.932.86-3.321 2.511c-3.147 3.739-4.982 3.992-3.656.503.656-1.726.61-2.5-.147-2.5s-.735-.437.079-1.418c.648-.78 1.265-3.704 1.373-6.497s.464-5.079.793-5.081.636-1.354.683-3.004-.335-3-.848-3-.933-.477-.933-1.059.45-.781 1-.441c1.278.79 1.258-2.314-.066-10.477-.578-3.562-1.518-6.766-2.089-7.119s-1.163-2.623-1.315-5.044-1.307-6.868-2.564-9.881c-3.052-7.31-10.812-20.553-14.163-24.168-1.484-1.6-2.714-3.117-2.734-3.371-.129-1.622-3.473-5.309-4.333-4.777-.575.355-.773.205-.44-.334.805-1.301-8.979-13.329-10.841-13.329-.8 0-1.343-.562-1.205-1.25s-.568-1.182-1.569-1.1c-1.133.094-1.627-.348-1.31-1.174.621-1.619-3.776-4.655-7.01-4.84-1.298-.075-2.36-.473-2.36-.886S534.55 323 534 323s-1 .48-1 1.067m-1.365 3.784c-.899.994-1.635 2.334-1.635 2.978s-.45 1.171-1 1.171-1 .9-1 2-.45 2-1 2-1 .605-1 1.345-.9 2.16-2 3.155-2 2.415-2 3.155-.675 1.345-1.5 1.345-1.5.675-1.5 1.5c0 2.601-3.436 1.632-6.78-1.914-1.771-1.877-3.22-3.677-3.22-4s-.788-1.394-1.75-2.382-3.294-3.716-5.181-6.063c-2.794-3.474-3.873-4.156-5.805-3.671-2.144.538-11.282 8.955-13.764 12.678-10.059 15.089-17.405 27.647-19.512 33.352a237.7 237.7 0 0 1-1.842 4.751c-.921 2.295-3.939 13.332-5.81 21.249-1.471 6.227-1.408 24.416.109 31 1.957 8.496 1.797 7.968 4.099 13.5 1.03 2.475 1.693 4.5 1.473 4.5-.392 0 .925 1.816 12.049 16.602 3.061 4.069 7.111 9.899 9 12.956l4.713 7.5c.704 1.068 1.543 2.73 1.867 3.692S489.578 492 490 492s1.013.941 1.314 2.092c.534 2.044.5 2.05-1.504.25-1.128-1.013-4.427-5.442-7.331-9.842s-6.383-9.188-7.731-10.641-2.728-3.365-3.068-4.25-1.081-1.609-1.649-1.609-1.031-.488-1.031-1.083-1.463-2.583-3.25-4.415l-8.662-8.916c-2.977-3.072-5.789-5.586-6.25-5.586s-.838-.675-.838-1.5-.441-1.5-.981-1.5-3.554-1.646-6.699-3.658-7.992-4.859-10.77-6.325l-7.05-3.724c-4.367-2.31-13.575-5.373-25-8.318-9.388-2.419-14.286-3.117-22.5-3.207-9.796-.106-22.42.772-30.25 2.104-1.668.284-.511 5.096 3.265 13.579 2.192 4.924 3.985 9.516 3.985 10.205 0 2.068-11.762 2.919-14.681 1.063-.649-.414-1.437-.337-1.751.171s-1.357.734-2.319.503-2.424.045-3.249.613c-1.307.899-1.264 1.213.338 2.437 1.049.803 1.635 2.19 1.366 3.231-.428 1.656-.483 1.663-.588.076-.117-1.764-1.635-2.39-2.424-1-.628 1.107 1.861 16.827 3.76 23.75l1.921 7c.15.55 1.041 2.774 1.979 4.942s1.967 4.98 2.285 6.25.913 2.308 1.32 2.308 1.551 1.8 2.543 4 2.155 4 2.584 4 1.047.837 1.372 1.861 2.942 4.277 5.817 7.23 5.114 5.717 4.977 6.14.429.769 1.259.769 2.813 1.162 4.407 2.583c5.143 4.583 15.306 9.849 27.084 14.036 20.309 7.22 22.934 7.756 30.283 6.187 4.22-.901 4.713-1.274 4.185-3.164-.373-1.332-.275-1.68.258-.92.479.682 2.053 1.013 3.565.75l5.193-.903c1.365-.237 2.828-.641 3.25-.898 1.407-.858 44.693-10.551 49.766-11.144 2.75-.321 7.7-.82 11-1.108 5.77-.504 5.912-.461 3.704 1.118-1.263.903-2.922 1.402-3.686 1.108s-1.53-.147-1.703.324-2.682 1.116-5.576 1.434-11.578 2.168-19.299 4.112-15.254 3.69-16.74 3.879c-14.05 1.786-55.342 15.79-57.671 19.56-.326.527-1.254.705-2.061.395s-1.468-.065-1.468.544-.446 1.107-.991 1.107-2.282 1.35-3.859 3-3.38 3-4.008 3-1.142.477-1.142 1.059-.461.774-1.025.426-.924-.263-.801.191-1.216 3.624-2.975 7.045-3.199 6.46-3.199 6.75c0 1.129 3.114.438 6.887-1.529 4.279-2.23 9.516-2.207 14.325.064 3.403 1.607 6.774 6.814 9.22 14.244 1.453 4.413 2.351 5.75 3.862 5.75 2.266 0 8.706-3.731 8.706-5.043 0-1.063 7.321-3.241 11.53-3.431 1.666-.075 3.516-.436 4.11-.804s1.37-.379 1.723-.026 2.282.811 4.287 1.016 4.764 1.255 6.132 2.331 2.896 1.957 3.395 1.957 1.856.884 3.016 1.965 2.461 1.749 2.889 1.484 1.068-.016 1.42.554c.757 1.225 10.339 6.335 12.498 6.665.825.126 3.525.731 6 1.344 2.809.696 7.318.841 12 .386 4.125-.401 8.512-.702 9.75-.669s2.25-.343 2.25-.835.916-.894 2.035-.894 3.032-.639 4.25-1.421 3.088-1.569 4.156-1.75 3.259-1.679 4.87-3.329c7.533-7.713 9.644-13.005 9.973-25 .222-8.082-1.204-22.834-2.562-26.5-.305-.825-.823-3.413-1.15-5.75-.964-6.881 2.653-4.66 3.788 2.327.262 1.608.569 3.035.683 3.173.284.343.448 1.068 1.414 6.25 1.228 6.59 1.457 8.893 1.489 15 .044 8.251-.016 9.07-1.08 14.688-1.32 6.972-.136 9.428 7.988 16.564 1.724 1.514 3.642 2.639 4.265 2.5s1.337.311 1.59.999c.311.849-.131 1.032-1.375.57-4.352-1.616 5.093 4.984 11.269 7.874 10.076 4.715 21.678 7.402 33.186 7.687 13.548.334 23.957-2.305 40.211-10.196 21.012-10.201 31.005-21.087 40.56-44.186 2.169-5.243 4.413-13.44 4.428-16.172.012-2.121-.134-2.098-6.18 1-7.016 3.594-7.55 4.641-8.291 16.221-.248 3.877-1.147 8.715-1.998 10.75-1.397 3.344-1.911 3.701-5.332 3.701-2.083 0-4.214-.414-4.737-.92s-3.638-1.82-6.923-2.92c-5.197-1.74-6.367-1.829-9-.681-3.729 1.624-7.033 5.213-11.986 13.021-2.094 3.3-4.085 6.225-4.424 6.5s-1.104 1.381-1.7 2.458c-1.234 2.233-10.437 8.856-11.218 8.074-.283-.283-1.013-.101-1.622.404s-3.126 1.23-5.592 1.61c-5.373.827-29.944.829-30.77.002-.32-.32-.03-1.133.643-1.806.967-.967 1.402-.94 2.063.13.553.895.963.977 1.209.239.262-.788 1.374-.827 3.793-.133 2.432.697 3.827.644 4.825-.184 1.079-.896 1.592-.861 2.216.148.489.791 1.338.989 2.132.499.726-.449 2.238-.915 3.362-1.036 7.365-.795 15.149-2.854 19.95-5.275 3.067-1.547 5.367-3.022 5.111-3.278s.76-1.844 2.258-3.53 2.86-3.646 3.028-4.357c.592-2.512 7.719-11.965 9.445-12.528.962-.315 1.75-1.054 1.75-1.644 0-3.569 8.38-4.915 14.55-2.336 1.918.801 3.698 1.488 3.958 1.527.819.123 3.911 1.147 6.166 2.041 3.67 1.456 5.412-2.875 5.843-14.525.122-3.3.699-7.185 1.283-8.632 1.026-2.547 6.029-6.868 7.951-6.868s7.339-3.231 7.02-4.187c-.427-1.282-10.429-6.813-12.321-6.813-.797 0-1.45-.45-1.45-1s-.825-1-1.833-1-2.147-.313-2.529-.696-1.47-.858-2.417-1.057c-7.352-1.544-8.626-1.766-15.721-2.737l-7.5-1.042c-6.371-.913-24.748-1.633-49.101-1.922-16.519-.196-27.365-.725-28.618-1.396-1.11-.594-2.19-.922-2.4-.729s-2.947-.17-6.083-.805c-6.47-1.311-6.44-2.133.202-5.516 9.058-4.614 21.126-13.49 27.44-20.183 3.561-3.775 6.745-6.426 7.076-5.891s.14.974-.426.974-.768.675-.452 1.5c.403 1.049-.076 1.5-1.59 1.5-1.283 0-1.897.436-1.505 1.069.363.589-.031 1.826-.878 2.75-9.34 10.204-13.298 13.34-22.449 17.783l-6.528 3.171 3.406.769c5.492 1.24 8.794 1.462 19.906 1.338 33.999-.379 53.795-.058 55.411.898.501.297 4.404.553 8.674.57 6.987.028 8.545-.349 15.589-3.776 10.547-5.131 23.641-13.917 30.276-20.316 2.997-2.891 5.809-5.256 6.25-5.256s.8-.5.8-1.11 2.175-4.101 4.834-7.757 6.06-9.711 7.559-13.458c2.728-6.82 6.272-21.217 7.303-29.675.302-2.475.947-4.651 1.433-4.835s.69-.648.454-1.031-.533-3.831-.659-7.664-.435-7.532-.684-8.22c-.717-1.975-2.24-1.456-2.24.764 0 1.107-.405 2.795-.899 3.75s-1.733 4.549-2.75 7.986-2.188 6.25-2.601 6.25-.75.882-.75 1.959c0 2.995-6.772 21.279-8.222 22.199-.703.446-.934.818-.514.827 1.04.021-4.896 11.647-7.043 13.794-.947.947-1.721 2.254-1.721 2.905 0 1.854-10.852 16.302-12.25 16.31-.688.003-1.138.374-1 .823.333 1.088-9.725 11.183-11.142 11.183-.609 0-1.108.54-1.108 1.2 0 .873-.3.9-1.1.1-1.38-1.38 2.603-5.725 4.291-4.682.636.393.841.242.475-.35-.589-.952 1.831-3.768 3.238-3.768.328 0 .5-.288.383-.639-.191-.574 1.793-2.968 10.963-13.229 1.513-1.693 2.75-3.587 2.75-4.209s1.013-2.223 2.25-3.559 2.25-2.863 2.25-3.396c0-1.379 6.849-14.901 7.75-15.301.413-.184.75-.977.75-1.764s.397-2.212.883-3.167c1.495-2.937 4.372-10.18 4.531-11.403.047-.366.423-1.004.836-1.416s.75-1.8.75-3.084.478-2.333 1.063-2.333.964-.788.844-1.75.383-3.1 1.119-4.75 1.422-3.837 1.525-4.86.711-2.184 1.352-2.58.868-1.493.505-2.438c-.416-1.085.009-2.206 1.154-3.043 3.335-2.439-1.605-2.801-8.035-.588-6.708 2.308-12.086 2.6-12.817.696-.526-1.37.035-6.101 1.029-8.687.317-.825.486-2.062.375-2.75s.194-1.25.678-1.25.842-2.137.794-4.75l-.086-4.75-5.5.072c-11.094.146-30.661 5.314-35.355 9.338-1.02.874-2.022 1.517-2.227 1.428-1.04-.454-4.418 1.034-4.418 1.945 0 .578-.284.766-.631.419s-1.585-.101-2.75.548-2.344 1.218-2.619 1.265c-.457.078-7.544 3.571-12.119 5.972-1.035.543-1.881 1.331-1.881 1.75s-.694.763-1.542.763c-1.594 0-3.395 1.225-6.251 4.25-.908.962-2.02 1.75-2.471 1.75s-1.364.455-2.028 1.011L595 432c-1.925 1.638-4.086 2.764-4.802 2.501-.734-.27-1.017-.017-.649.579.36.581-2.53 4.288-6.422 8.238s-7.874 8.24-8.851 9.533-2.901 3.556-4.276 5.029-2.601 3.011-2.724 3.42-1.458 2.289-2.967 4.18c-3.017 3.78-5.874 8.396-9.915 16.02-3.886 7.33-6.309 10.469-7.68 9.948-.787-.298-2.245 2.796-4.145 8.796L539.146 511c-.271.825 1.189-.525 3.244-3l5.973-7c1.23-1.375 3.514-4.2 5.076-6.277 4.931-6.558 3.883-3.292-1.736 5.412-5.068 7.852-18.764 22.865-20.858 22.865-.522 0-1.42-1.35-1.995-3s-1.5-3-2.055-3-.75.675-.433 1.5.17 1.5-.326 1.5-1.173.855-1.504 1.9c-.426 1.341-1.549 1.906-3.818 1.921-1.768.011-4.632.279-6.366.597-4.418.808-20.609-3.586-28.363-7.696-6.31-3.346-8.623-5.722-5.568-5.722.871 0 1.583.702 1.583 1.559s.452 1.28 1.003.939 6.451 1.234 13.109 3.499 12.271 3.953 12.474 3.75-1.812-2.034-4.479-4.068C494.466 509.327 483.102 497 485.965 497c.662 0 3.528 2.212 6.369 4.915 9.535 9.071 12.151 11.215 14.967 12.269 1.541.576 2.56 1.288 2.265 1.583s.634 1.143 2.063 1.885c3.381 1.753 3.868 1.702 1.958-.208-2.717-2.717-10.318-12.906-12.492-16.745l-4.141-7.311c-3.042-5.371-1.746-6.565 1.628-1.5l4.591 6.89c.92 1.38 2.05 2.782 2.509 3.115s2.104 2.561 3.652 4.949c3.243 5 4.705 4.868 2.297-.207-.897-1.891-1.631-3.731-1.631-4.091s-.899-2.626-1.997-5.037-2.156-5.199-2.35-6.195-.68-2.564-1.08-3.484c-.845-1.942 1.236-6.458 2.389-5.185.427.471 2.712 6.819 5.077 14.107s4.659 13.25 5.099 13.25.54.675.224 1.5-.063 1.5.564 1.5c1.119 0 .919-8.562-.28-12-.288-.825-.756-4.324-1.041-7.775s-.718-6.601-.964-7c-1.019-1.654-1.596-17.225-.639-17.225.549 0 1.001.113 1.004.25s.452 2.95.997 6.25 1.244 8.025 1.553 10.5 1.008 7.102 1.553 10.283l1.448 9c.803 5.659 1.037 6.645 1.747 7.355.383.382.73-1.742.771-4.721.113-8.252.844-20.92 1.479-25.667.382-2.858 1.06-4.25 2.069-4.25 1.195 0 1.374.864.88 4.25-.788 5.408-1.26 29.61-.628 32.227.42 1.741 3.368-11.255 4.594-20.256.246-1.804 1.173-4.006 2.061-4.894 1.486-1.486 1.57-1.344 1.055 1.779L533.961 501c-.586 3.575-1.331 7.396-1.657 8.492-.503 1.69-.362 1.801.926.732 1.437-1.192 5.348-11.06 9.206-23.224l2.312-7c.312-.825.485-2.029.383-2.675s.278-1.46.842-1.809 1.027-1.732 1.027-3.075.48-2.441 1.067-2.441.85.788.584 1.75-.763 4-1.105 6.75-.888 6.341-1.214 7.98c-.53 2.669-.422 2.839 1.038 1.628.896-.744 1.63-1.805 1.63-2.357 0-3.307 10.966-21.176 16.915-27.563 1.697-1.821 3.085-3.708 3.085-4.193s.788-1.47 1.75-2.188c3.236-2.417 9.384-10.789 10.327-14.062 3.042-10.57 2.839-27.016-.526-42.745-2.313-10.813-7.708-23.56-12.757-30.144-1.537-2.004-2.794-4.104-2.794-4.667s-.337-1.172-.75-1.356-1.997-2.171-3.521-4.417-3.661-5.04-4.75-6.208-1.979-2.365-1.979-2.659c0-.644-3.481-4.774-7.25-8.602-1.513-1.536-2.751-3.165-2.753-3.62s-1.35-1.727-2.997-2.827-2.996-2.464-2.997-3.032c-.005-1.785-4.659-1.505-6.368.383M334.393 458.582c.334.87.607 1.995.607 2.5s.675.918 1.5.918 1.5-.45 1.5-1-.45-1-1-1-1-.675-1-1.5-.498-1.5-1.107-1.5-.834.712-.5 1.582m4.652 9.668c-.025.962.405 1.75.955 1.75s1 .718 1 1.596.836 2.79 1.857 4.25 2.034 3.146 2.25 3.748c1.049 2.923 9.554 14.347 10.702 14.374.72.018 1.053.446.741.951s.111 1.599.941 2.429 1.509 2.258 1.509 3.174.9 1.901 2 2.188 2.016 1.033 2.036 1.657 1.131 2.474 2.47 4.112c1.668 2.041 2.759 2.656 3.463 1.952 1.096-1.096.219-2.488-5.719-9.076-1.788-1.984-3.25-4.177-3.25-4.874s-.675-1.526-1.5-1.843-1.5-1.18-1.5-1.918-.924-2.334-2.053-3.546-4.484-5.909-7.456-10.439c-7.84-11.947-8.392-12.632-8.446-10.485M370 512.385c0 .762 1.062 2.081 2.359 2.931s4.56 3.422 7.25 5.715l6.962 5.907c1.139.956 3.614 2.598 5.5 3.65s3.669 2.231 3.963 2.621c1.021 1.357 12.107 5.822 13.034 5.249 1.31-.81 1.162-2.458-.222-2.458-1.691 0-12.058-4.98-14.096-6.772-.962-.846-1.75-1.282-1.75-.969 0 .552-2.739-1.745-11.336-9.509-2.284-2.062-4.424-3.75-4.756-3.75s-1.64-.9-2.908-2c-2.703-2.344-4-2.543-4-.615m272.396 1.452l-5.34 4.485c-1.235 1.001-1.954 2.113-1.597 2.471s.963.211 1.345-.324 1.821-1.554 3.196-2.266c4.483-2.319 6.971-4.666 6.218-5.866-.505-.806-1.679-.345-3.822 1.5M532.5 528c.995 1.1 2.307 2 2.914 2s1.667.9 2.354 2 2.22 2 3.407 2 1.865.293 1.507.651.127 1.22 1.077 1.915c2.408 1.761 3.532-.345 1.392-2.608-1.578-1.667-12.509-7.958-13.829-7.958-.347 0 .183.9 1.178 2m-24.215 4.25c-2.082 1.788-3.952 3.639-4.156 4.114s-1.217 1.587-2.25 2.472c-1.792 1.534-2.581 4.164-1.25 4.164.347 0 3.663-3.15 7.371-7 6.899-7.164 7.084-9.588.285-3.75M527 529.655c0 1.247 6.5 12.345 7.231 12.345.423 0 .769.675.769 1.5s.675 1.5 1.5 1.5 1.5-.231 1.5-.514c0-.863-2.403-4.774-4.172-6.79-.92-1.048-2.199-3.176-2.842-4.729-1.022-2.469-3.986-4.931-3.986-3.312m-10.435 4.095c-.914 2.063-2.105 4.556-2.647 5.541-1.003 1.821-.477 3.709 1.033 3.709.767 0 2.363-4.161 2.493-6.5.031-.55.333-1.225.671-1.5s.931-1.513 1.318-2.75c1.158-3.712-1.075-2.544-2.868 1.5m-106.096 4.3c-1.035 1.674-.121 2.051 6.183 2.551 3.216.255 6.411.66 7.098.9s1.25.036 1.25-.453c0-.867-1.954-1.431-8.916-2.574-1.879-.309-3.76-.774-4.181-1.034s-1.066.015-1.434.61M385.5 582.642c-2.2.855-4.788 1.606-5.75 1.67s-1.75.29-1.75.501c0 .749 3.405 7.695 4.014 8.187.34.275 2.13 2.721 3.978 5.436 5.698 8.37 12.92 15.03 21.008 19.371 2.618 1.406 16.71 4.991 22.556 5.74 1.872.24 5.332.868 7.687 1.395 13.598 3.048 33.529 2.185 47.466-2.054 3.415-1.038 7.09-1.888 8.167-1.888s2.107-.337 2.291-.75c.303-.682 2.902-2.231 9.833-5.861 3.566-1.867 12.613-10.062 11.911-10.789-.323-.336-2.348.254-4.5 1.311-6.969 3.423-8.897 4.171-11.468 4.445-1.39.148-3.006.565-3.592.927s-2.019.474-3.186.249-2.341-.057-2.607.374c-1.033 1.671-23.558-.167-23.558-1.922 0-.433-1.41-1.28-3.132-1.88s-7.236-3.682-12.25-6.848c-8.915-5.628-9.274-5.755-16.118-5.69-9.091.085-10.124.363-15.963 4.305-6.023 4.064-10.855 5.056-13.401 2.752-1.001-.905-2.667-4.228-3.703-7.385-2.526-7.692-3.937-9.775-7.893-11.652-4.062-1.928-4.948-1.923-10.04.056m140.673 12.042c-.645 1.202-1.173 3.283-1.173 4.625 0 1.937.516 2.441 2.5 2.441 2.84 0 3.125-1.578 1.128-6.25-1.268-2.965-1.296-2.974-2.455-.816M515.5 612.541c-2.75 2.393-7.583 5.837-10.739 7.654s-5.744 3.631-5.75 4.029 1.288 1.396 2.875 2.217c4.79 2.477 13.764 13.256 16.758 20.129 5.248 12.048 6.405 8.699 4.339-12.57l-1.751-18.154-.732-7.654-5 4.349m-31 14.582c-6.088 1.929-19.201 3.874-26 3.856-3.85-.01-11.95-.681-18-1.49l-11.89-1.481c-1.386-.013 5.855 6.502 14.262 12.83 13.518 10.175 26.789 17.119 36.616 19.159 9.775 2.03 29.403-.378 34.639-4.249l2.697-1.994-1.89-4.408c-3.307-7.715-13.022-18.704-19.618-22.191-2.56-1.354-6.609-1.366-10.816-.032m-47 4.739c.55.544 5.05 1.948 10 3.12l32.409 8.177 3.408 1.101-2.408 1.334c-1.325.735-3.127 1.351-4.005 1.371-2.1.046-8.177 3.095-7.507 3.765.287.287 4.115-.729 8.507-2.258l7.986-2.78 6.305 2.287c3.468 1.258 6.53 2.587 6.805 2.953.69.918 9.088 3.313 9.65 2.752.25-.25-1.707-1.476-4.348-2.724-6.323-2.986-7.572-4.128-14.006-12.802-6.518-8.786-8.247-8.832-2.391-.063 2.275 3.408 3.89 6.443 3.588 6.745s-2.937-.622-5.857-2.054c-5.875-2.881-23.412-7.479-31.762-8.327-2.956-.3-6.626-1.037-8.156-1.637s-3.039-.834-3.353-.52-1.762.121-3.218-.429c-1.72-.649-2.297-.653-1.647-.011m52.059 21.262c-2.167.508-4.176 1.159-4.463 1.447-.751.751 5.858-.24 9.404-1.41 3.871-1.276.458-1.302-4.941-.037m61.754 77.249c.359.936 1.391 4.272 2.292 7.414s1.772 5.863 1.934 6.046c.6.68 4.358-3.782 4.654-5.526.243-1.431-.265-1.747-2.443-1.519-1.933.202-2.75-.169-2.75-1.25 0-.846-.45-1.538-1-1.538s-1-.873-1-1.941-.526-2.266-1.17-2.664c-.792-.489-.959-.173-.517.978" fill="#b37c60"/><path d="M531.655 328.829c-.91 1.006-1.655 2.356-1.655 3s-.45 1.171-1 1.171-1 .454-1 1.01-1.913 3.897-4.25 7.426c-5.603 8.46-7.39 8.781-12.971 2.329-2.354-2.721-4.437-5.381-4.631-5.912s-1.879-2.627-3.745-4.659-3.396-4.031-3.398-4.444c-.026-4.02-12.886 7.677-20.065 18.25-2.428 3.575-5.342 8.3-6.476 10.5a221.41 221.41 0 0 1-4.696 8.5c-1.449 2.475-3.6 7.2-4.779 10.5l-2.717 7.5c-1.06 2.771-1.257 3.476-2.789 10-2.508 10.683-2.99 15.003-2.843 25.5.112 7.983.687 11.614 2.851 18 4.558 13.454 4.973 14.5 5.754 14.5.415 0 .755.447.755.992 0 .876 2.388 4.049 5.56 7.391 4.867 5.125 25.506 37.84 25.727 40.778.076 1.011.493 1.839.926 1.839s.787.675.787 1.5.337 1.451.75 1.392c1.881-.271 5.25 1.477 5.25 2.725 0 .76.466 1.383 1.035 1.383.985 0-.481-3.79-1.935-5-.33-.275-3.476-6.238-6.991-13.25-4.68-9.337-6.879-12.75-8.215-12.75-4.141 0-4.767-8.271-.722-9.554 5.479-1.74 9.166 2.91 6.813 8.591-1.027 2.478-.695 3.365 3.585 9.597 2.595 3.776 5.102 6.753 5.574 6.616s.856.409.856 1.215.9 1.946 2 2.535c1.356.726 2 .737 2 .035 0-.569-.337-1.035-.75-1.036s-.809-1.032-.881-2.294-2.43-8.123-5.24-15.249-5.238-13.856-5.397-14.956-.641-2.562-1.07-3.25c-.444-.711-.313-1.25.304-1.25.596 0 1.357 1.366 1.691 3.035s.856 2.786 1.16 2.481 1.532 1.582 2.729 4.191c1.944 4.237 2.252 4.506 2.882 2.52.973-3.065 5.454-4.109 7.228-1.683 1.888 2.582 1.671 5.85-.52 7.833-1.816 1.644-1.806 1.848.393 7.905 1.241 3.42 2.278 6.443 2.303 6.718s.465 1.625.975 3c.88 2.371.963 2.292 1.612-1.537.377-2.22.467-5.37.201-7-.669-4.097-2.387-26.555-2.575-33.658-.025-.933-1.283-2.286-2.795-3.007-3.941-1.88-4.321-6.811-.741-9.626 5.895-4.637 12.783 3.536 7.464 8.855-1.976 1.976-1.988 2.25-.468 10.75 2.53 14.159 2.184 13.328 5.267 12.653 5.524-1.209 5.619-1.338 2.855-3.9-3.292-3.051-3.336-5.912-.14-9.108 2.378-2.378 2.619-2.419 5.5-.929 2.313 1.196 3.013 2.241 3.013 4.494 0 1.614-.799 3.74-1.775 4.724-1.514 1.526-1.697 3.037-1.25 10.289.418 6.76.853 8.553 2.128 8.76 1.248.203 1.959-1.461 3.206-7.5 1.91-9.248 2.996-16.918 2.832-20.01-.065-1.238.395-2.25 1.022-2.25 1.1 0 .774 13.236-.748 30.456l-.527 5.956 1.896-2.456c2.279-2.952 3.775-6.981 6.296-16.956 2.299-9.092 2.353-10.71.42-12.643-1.748-1.748-1.932-4.682-.465-7.423 1.236-2.31 6.151-2.62 7.911-.499 1.935 2.331.897 7.914-1.681 9.046-2.035.893-2.221 1.615-2.077 8.066.087 3.897-.153 7.587-.532 8.2s-.26 1.379.263 1.703 2.557-2.458 4.518-6.181c3.576-6.789 12.287-18.873 18.253-25.321 5.662-6.12 8.308-9.226 8.387-9.844.042-.332.281-1.504.532-2.604 1.188-5.215 1.485-7.663 2.003-16.5.508-8.66-.198-15.053-3.146-28.5l-1.101-5c-1.394-6.321-11.435-23.837-20.866-36.4-5.409-7.205-10.209-13.1-10.666-13.1s-.833-.462-.833-1.027c0-1.591-9.301-9.937-11.095-9.956-.877-.009-2.34.806-3.25 1.812M669 398.089c-2.475.4-5.737.993-7.25 1.319l-5.5 1.118c-2.871.549-6.344 1.756-12.25 4.255-3.904 1.652-30.375 14.754-33.5 16.58-5.059 2.958-10.5 6.985-10.5 7.772 0 .477-.447.867-.992.867-1.982 0-16.575 13.973-24.508 23.466-2.2 2.633-4.562 5.373-5.25 6.089s-1.25 1.747-1.25 2.29-.345 1.138-.767 1.322c-1.094.475-8.233 10.427-8.233 11.477 0 .481 1.439.871 3.197.866 2.43-.008 3.563.634 4.717 2.672 1.393 2.458 1.364 2.854-.352 4.75-2.653 2.931-7.101 2.702-9.182-.474l-1.665-2.542-3.108 5.515c-1.709 3.033-4.12 6.655-5.357 8.049-2.549 2.872-2.808 4.128-1 4.858.789.318.645.533-.393.583-.904.043-1.916.791-2.25 1.661-.854 2.224-.813 2.287 1.143 1.755.962-.261 3.299-2.582 5.192-5.156s3.939-5.131 4.546-5.681 1.871-2.113 2.808-3.473c1.303-1.89 1.704-2.071 1.704-.77 0 2.276-3.026 9.743-3.948 9.743-.983 0-3.269 5.116-2.589 5.796.295.295.537.012.537-.629s.375-1.167.833-1.167c2.009 0 .59 2.928-1.698 3.502-1.95.49-2.206.836-1.116 1.51.822.508 1.885.483 2.539-.061.62-.513 1.396-.663 1.726-.333 1.554 1.554 14.433-10.22 20.652-18.88 2.982-4.152 5.064-5.881 5.064-4.205 0 .507-4.366 8.847-6.5 12.418-1.373 2.297-7.575 9.896-9.942 12.181-2.431 2.346-2.856 4.915-1.044 6.303 1.155.883.984 1.532-1.005 3.805-1.485 1.699-2.988 2.513-3.953 2.143-.86-.33-1.556-.075-1.556.569s-.52.845-1.155.453c-.742-.459-.881-.273-.39.522.452.732 1.737.991 3.154.635 1.404-.352 2.391-.159 2.391.469s.581.742 1.423.269c1.539-.865 48.066.047 60.946 1.194 5.104.454 7.655.353 7.259-.287-.336-.544.623-1.795 2.131-2.781s3.248-2.273 3.868-2.859 2.168-1.742 3.438-2.567c3.996-2.594 26.366-25.502 27.899-28.571.805-1.611 2.219-4.055 3.141-5.431C673.566 477.327 682 460.531 682 459.3c0-.58.67-1.611 1.489-2.291s1.28-1.573 1.025-1.986.425-2.59 1.511-4.839S688 445.4 688 444.548s.45-1.548 1-1.548.911-.337.802-.75c-.228-.864.91-4.832 2.224-7.75.97-2.155 3.981-13.041 4.287-15.5.111-.889-.424-1.339-1.313-1.104-6.92 1.825-9.571 2.643-10 3.087-.275.284-1.891.649-3.592.81-5.216.494-5.747-1.297-3.537-11.929 2.664-12.819 2.114-13.551-8.871-11.775m-309.191 22.436c-.408.408-6.992 1.289-10.486 1.404-3.856.126-3.405 3.985 1.701 14.571 3.357 6.96 3.927 9.149 2.703 10.373-.683.683-4.991 1.127-10.927 1.127-6.047 0-9.8.394-9.8 1.028 0 .566 1.575 4.348 3.5 8.404s3.5 7.869 3.5 8.472.34 1.096.756 1.096 1.357 1.358 2.091 3.017c1.24 2.801 9.759 15.856 11.082 16.983.323.275 2.682 3.662 5.242 7.526 12.627 19.057 40.661 40.567 55.967 42.942 17.438 2.705 16.144 2.766 33.362-1.563l24-6.035c10.582-2.66 16.345-4.87 12.7-4.87-.66 0-1.2-.45-1.2-1 0-1.857 2.058-1.017 2.868 1.171.52 1.408 1.053 1.767 1.514 1.021.391-.633.224-2.06-.371-3.171-.729-1.363-.745-2.021-.046-2.021 2.377 0 .682-1.658-4.09-4-2.801-1.375-7.632-4.543-10.734-7.041-5.457-4.393-5.729-4.492-8.323-3.033-2.452 1.379-2.858 1.347-4.75-.364-2.782-2.519-2.607-6.114.449-9.17 1.86-1.86 3.098-2.335 4.75-1.819 2.991.933 3.861 2.379 3.431 5.7-.331 2.558.228 3.066 7.222 6.566 9.5 4.754 14.08 6.396 14.08 5.05 0-.554.526-.682 1.17-.284.777.48.964.186.556-.876-.337-.88-.076-1.802.58-2.05.834-.314.702-.861-.436-1.814-2.399-2.008-11.384-14.775-13.453-19.115-1.404-2.945-2.358-3.75-4.447-3.75-5.576 0-8.094-8.37-2.924-9.722 1.074-.281 1.954-.936 1.954-1.455 0-1.691-7.466-11.746-8.75-11.785-.687-.021-1.25-.375-1.251-.788-.002-1.673-11.018-12.429-18.691-18.25-2.037-1.545-7.105-4.484-11.05-6.407-1.233-.601-2.246-1.43-2.25-1.843s-.57-.752-1.258-.754-3.464-1.127-6.169-2.5-5.318-2.496-5.805-2.496-2.9-.918-5.363-2.039-4.881-1.79-5.376-1.484-1.165.124-1.491-.403c-.469-.758-4.805-1.803-10.546-2.54-.275-.036-1.159-.482-1.965-.991-1.379-.872-32.421-1.824-33.226-1.018m339.396 3.159c-.663 1.202-1.205 3.12-1.205 4.264s-.431 2.861-.957 3.816-2.297 5.786-3.934 10.736c-4.472 13.525-11.935 30.487-16.499 37.5-8.372 12.863-11.2 16.398-20.433 25.541-5.678 5.623-11.978 11.063-14 12.091s-3.837 2.235-4.032 2.683-1.433 1.224-2.75 1.725-2.388 1.484-2.38 2.185c.01.829.273.908.75.226.404-.576 2.624-1.6 4.932-2.274 12.48-3.644 36.069-21.11 44.252-32.765 1.896-2.702 3.707-5.137 4.023-5.412 3.353-2.918 7.518-14.3 10.977-30 3.225-14.639 4.108-22.809 3.103-28.718-.609-3.585-.705-3.668-1.847-1.598m-113.473 8.566c-.272 1.788-.405 3.356-.295 3.485s1.72-1.333 3.578-3.25l3.377-3.485h-3.082c-2.71 0-3.143.393-3.578 3.25m-136.482 3.485c-1.238 1.284-2.25 2.674-2.25 3.089 0 .784 8.494 8.176 9.396 8.176.433 0-4.246-13.402-4.731-13.551-.091-.027-1.177 1.001-2.415 2.286m85.95 6.465c-1.319 1.319-1.597 6.676-.435 8.373 2.518 3.677 8.235.614 8.235-4.412 0-3.295-1.627-5.161-4.5-5.161-1.155 0-2.64.54-3.3 1.2m-46.369 8.05c-3.827 3.084-2.573 8.75 1.937 8.75 1.557 0 3.372-.54 4.032-1.2 1.683-1.683 1.494-5.364-.371-7.229-1.897-1.896-3.527-1.99-5.598-.321m-157.367 8c.276 1.238 1.148 6.075 1.937 10.75 3.153 18.673 10.403 33.321 22.769 46 11.917 12.22 21.279 17.626 42.621 24.613 13.274 4.346 23.27 5.716 24.709 3.387.34-.55.254-1.035-.191-1.077-13.528-1.288-17.207-2.561-32.742-11.332-1.063-.6-3.088-2.053-4.5-3.23L370.5 514.138c-3.836-3.4-11.158-12.216-15.48-18.638l-8.443-12.58c-2.792-4.168-7.085-11.931-9.538-17.25-4.21-9.125-6.693-12.43-5.575-7.42m248.052 14c-.851 2.526-.89 4.302-.145 6.5.586 1.727 1.534 2.25 4.075 2.25 2.714 0 3.529-.525 4.516-2.909 1.779-4.295-.007-7.091-4.529-7.091-1.922 0-3.685.563-3.917 1.25m-101.1 11.109c-.575 1.497 1.747 4.595 8.917 11.902 4.004 4.079 6.499 4.597 2.679.555-1.204-1.274-3.768-4.679-5.699-7.568-4.058-6.072-5.109-6.943-5.897-4.889m80.847 43.688c-2.33.321-5.142.517-6.25.436s-2.013.226-2.013.684-.788.826-1.75.818c-1.496-.013-1.533-.157-.25-.99 1.154-.751.883-.929-1.179-.773-1.474.111-2.599.669-2.5 1.24s-.383.926-1.071.788-1.25.007-1.25.321c0 1.013 2.741 3.349 3.381 2.881.34-.248.398-.156.128.206s.005 1.256.612 1.987c1.819 2.193.275 4.304-2.978 4.068-1.622-.117-2.772-.5-2.557-.85s-.278-1.192-1.097-1.872c-1.034-.858-1.489-.893-1.489-.113 0 .617-.498 1.122-1.107 1.122s-.853-.661-.544-1.468.103-1.752-.459-2.1c-1.905-1.177-2.014.337-.303 4.21 2.461 5.57 2.626 7.339.752 8.058-1.107.425-2.397-.29-3.878-2.146-1.595-2.001-2.371-2.399-2.761-1.418-.298.75-.578-.098-.621-1.886-.09-3.693-.535-3.936-2.891-1.58-1.089 1.088-1.275 1.801-.535 2.048.624.208.925 1.179.669 2.159s.243 4.515 1.109 7.857 1.784 9.221 2.041 13.062c.449 6.734-.694 21.046-1.938 24.265-.364.942.833 3.442 3.019 6.304 6.402 8.385 16.633 11.532 37.947 11.674 25.185.168 34.609-3.726 42.503-17.56 4.473-7.84 11.335-15.105 15.593-16.511 3.813-1.258 7.491-.701 13.111 1.985 2.086.997 5.201 2.114 6.921 2.482 3.721.797 3.953.23 4.887-11.935.883-11.5 2.498-14.201 10.985-18.372l7-3.441-10-4.79c-12.056-5.774-14.52-6.376-38.5-9.41-2.475-.314-15.525-.792-29-1.063l-27-.728c-1.375-.128-4.406.029-6.737.351m-59.466 3.489c-.364.364-3.319.778-6.566.92s-11.941 1.665-19.318 3.384l-26.539 6.125c-21.716 4.961-39.332 11.399-52.278 19.104-5.252 3.126-12.852 11.14-15.085 15.907-1.292 2.76-2.092 5.276-1.777 5.591s2.398-.359 4.629-1.497c5.063-2.583 11.095-2.646 15.927-.165 4.038 2.073 6.124 5.143 8.216 12.095 2.458 8.167 4.239 8.779 11.094 3.811 5.162-3.741 13.129-5.845 19.695-5.202 4.748.465 11.489 3.286 18.705 7.828 11.823 7.443 24.234 10.988 33 9.427 2.2-.391 6.25-1.006 9-1.365 10.873-1.421 22.552-10.158 25.536-19.102 1.1-3.298 1.48-8.049 1.341-16.75-.201-12.548-.376-14.205-2.519-23.899-1.097-4.963-1.534-5.668-3.19-5.143-1.26.4-1.684.229-1.234-.498.376-.609.32-1.102-.125-1.097s-1.563 1.806-2.485 4c-1.679 3.999-4.136 5.226-5.153 2.575-.299-.779.326-3.704 1.389-6.5 1.82-4.79 1.83-5.085.171-5.085-.968 0-3.723 2.025-6.122 4.5s-4.979 4.5-5.735 4.5c-1.578 0-1.875-3.573-.374-4.5.55-.34 1-1.759 1-3.153 0-1.693.664-2.708 2-3.057 1.1-.288 2-.973 2-1.523s-.878-.771-1.952-.49-2.096.08-2.271-.446-.616-.658-.98-.295m166.543 19.347c-8.136 4.554-8.042 4.417-8.797 12.81-1.237 13.76-2.981 18.241-7.394 19.005-1.651.286-7.882-1.652-13.8-4.292-5.311-2.369-7.296-1.771-12.761 3.844-2.81 2.888-5.664 6.375-6.342 7.75-5.981 12.138-14.973 19.019-26.746 20.466-5.817.716-26.316.766-27.446.067-.423-.261-3.359-.751-6.524-1.088s-7.581-1.257-9.812-2.044c-3.988-1.408-4.026-1.399-2.301.507.965 1.067 4.101 3.05 6.969 4.408 26.998 12.783 56.176 10.181 84.75-7.559 14.314-8.887 23.471-21.148 31.185-41.757 2.551-6.815 4.036-14.04 2.866-13.943-.378.032-2.109.854-3.847 1.826M383.31 583.83l-5.191 1.698 5.992 8.986c6.592 9.888 12.526 16.5 17.889 19.934 2.918 1.869 11.713 5.362 15.5 6.156a517.57 517.57 0 0 1 5.5 1.247c9.733 2.242 25.847 4.423 32.5 4.397 22.516-.087 42.271-6.009 54.668-16.388 5.355-4.484 5.788-5.676 1.244-3.427s-17.301 5.376-23.884 5.852c-3.284.237-8.347-.121-11.25-.795s-5.278-1.036-5.278-.802-1.462-.34-3.25-1.274l-5.137-2.651c-4.28-2.157-9.363-5.183-13.564-8.073-8.335-5.735-19.164-5.376-28.696.951-5.773 3.832-10.826 5.041-13.118 3.139-1.362-1.13-2.732-3.987-6.184-12.898-3.145-8.119-7.197-9.501-17.741-6.052" fill="#f5dedc"/></svg>