<svg version="1.1" xmlns="http://www.w3.org/2000/svg" style="display: block;" viewBox="0 0 2048 2048" width="1024" height="1024" preserveAspectRatio="none">
<defs>
	<linearGradient id="Gradient1" gradientUnits="userSpaceOnUse" x1="1166.42" y1="1220.06" x2="1152.83" y2="1244.76">
		<stop class="stop0" offset="0" stop-opacity="1" stop-color="rgb(73,40,22)"/>
		<stop class="stop1" offset="1" stop-opacity="1" stop-color="rgb(88,67,51)"/>
	</linearGradient>
</defs>
<path transform="translate(0,0)" fill="rgb(248,234,192)" d="M 1077.31 549.255 C 1108.99 547.668 1148.38 556.72 1179.82 561.239 C 1191.6 563.432 1205.01 567.666 1203.17 583.994 C 1202.51 589.886 1197.48 594.845 1192.57 597.989 C 1191.75 598.508 1190.93 599.017 1190.1 599.515 L 1188.78 600.031 C 1179.02 603.793 1166.75 606.525 1156.59 609.669 C 1138.75 615.189 1091.84 637.29 1079.75 649.864 C 1069.6 658.436 1034.46 695.383 1026.43 695.648 C 1023.94 693.771 1024.82 694.986 1024.01 691.675 C 1025.39 688.74 1025.32 689.361 1028.23 687.231 C 1022.85 689.802 1021.63 690.938 1017.12 694.653 C 1004.88 709.104 990.058 731.443 982.611 748.843 C 981.708 752.246 980.972 752.484 982.062 755.021 C 985.273 754.744 985.884 753.703 988.842 751.704 C 989.028 756.959 981.514 773.781 979.018 779.74 C 973.228 793.565 968.619 804.848 965.165 819.661 L 960.773 810.733 L 961.024 809.728 C 963.045 801.927 966.397 795.402 968.063 787.849 C 958.481 804.719 957.483 823.873 951.025 838.252 L 950.894 838.773 C 949.64 858.648 947.345 880.52 947.567 900.378 C 947.282 906.246 947.792 937.303 948.62 942.28 L 949.497 942.113 C 948.736 932.927 951.723 906.682 949.284 899.236 C 949.06 885.735 952.427 843.703 956.367 830.86 L 959.894 838.447 C 946.367 923.286 957.114 1011.92 994.625 1090.17 C 1002.48 1106.55 1019.64 1130.7 1030.8 1146.23 C 1031.92 1147.78 1033.06 1149.31 1034.21 1150.83 L 1033.02 1152.03 C 1031.46 1153.62 1031.14 1154.14 1029.94 1156.09 L 1028.51 1156.37 C 1033.56 1162.98 1039.28 1169.04 1045.59 1174.45 L 1046.27 1173.8 L 1051.05 1177.11 L 1051.97 1175.3 L 1050.26 1175.66 L 1050.84 1176.2 L 1051.93 1174.19 C 1051.71 1173.51 1051.5 1172.83 1051.28 1172.15 C 1062.08 1185.12 1070.67 1187.28 1082.42 1196.73 C 1132.33 1236.86 1193.11 1253.29 1254.15 1268.01 C 1263.15 1270.19 1269.85 1276.03 1279.29 1278.11 C 1286.66 1279.09 1291.04 1278.98 1298.54 1278.88 C 1303.74 1278.45 1321.87 1277.84 1324.36 1274.19 C 1320.98 1274.07 1317.88 1274.09 1314.51 1274.13 L 1313.56 1273.06 C 1315.79 1270.75 1332.97 1268.11 1337.1 1267.45 C 1383.95 1259.97 1430.45 1241.31 1465.66 1208.94 C 1478.19 1197.41 1500.86 1163.54 1516.02 1188.91 C 1521.55 1233.36 1465.7 1300.97 1436.92 1332.58 C 1378.43 1397.5 1302.61 1446.23 1220.95 1476.54 C 1210.53 1480.4 1197.77 1482.12 1187.05 1485.33 C 1153.33 1495.42 1121.05 1497.75 1086.12 1496.88 C 1079.33 1496.91 1068.95 1495.9 1061.93 1495.42 C 1045.43 1493.86 1010.45 1487.53 993.967 1483.7 C 1005.63 1482.81 1017.37 1487.85 1027.86 1485.39 C 1025.7 1482.08 997.563 1477.53 990.508 1474.81 C 969.792 1468.19 950.297 1465.33 928.399 1457.36 C 869.349 1435.1 816.7 1409.81 770.104 1366.57 C 758.51 1355.82 748.092 1344.65 736.915 1333.53 C 734.592 1329.63 726.338 1320.13 723.099 1316.67 C 689.909 1281.27 672.42 1244.49 650.805 1201.92 C 646.523 1191.26 642.196 1182.34 638.096 1171.17 L 637.058 1168.5 L 633.643 1158.9 C 631.31 1153.13 628.302 1141.59 626.449 1135.24 C 623.746 1118.25 618.499 1090.91 614.955 1073.7 C 614.745 1066.45 612.788 1046.82 612.139 1038.7 C 611.077 1013.64 612.869 981.858 615.202 956.706 C 615.215 956.671 618.316 938.026 618.563 936.625 C 593.882 871.127 621.911 871.297 653.76 821.163 C 656.285 819.206 678.87 783.277 682.513 777.168 C 700.093 747.688 720.774 727.201 743.351 701.92 C 760.895 684.878 780.072 665.704 799.27 650.564 C 801.706 649.452 805.766 646.217 808.084 644.52 C 815.868 638.741 828.347 631.218 836.851 625.773 L 841.851 623.262 C 864.25 610.523 878.756 604.535 901.228 593.529 C 909.67 590.992 919.109 587.437 927.418 584.319 C 932.346 577.709 926.848 582.654 930.288 576.431 C 935.88 573.369 944.087 570.634 950.253 568.964 C 967.631 564.255 1009.08 547.032 1024.79 560.671 L 1032.25 558.308 C 1039.02 558.629 1046.78 558.098 1053.64 557.795 L 1058.08 558.21 C 1069.16 558.367 1072.37 560.16 1077.31 549.255 z"/>
<path transform="translate(0,0)" fill="rgb(73,49,34)" d="M 1516.02 1188.91 C 1521.55 1233.36 1465.7 1300.97 1436.92 1332.58 C 1378.43 1397.5 1302.61 1446.23 1220.95 1476.54 C 1210.53 1480.4 1197.77 1482.12 1187.05 1485.33 C 1153.33 1495.42 1121.05 1497.75 1086.12 1496.88 C 1084.53 1492.33 1083.48 1490.39 1084.68 1485.95 C 1089.59 1484.98 1106.56 1486.49 1113.16 1486.11 C 1260.53 1477.63 1400.09 1381.9 1479.25 1260.03 C 1488.67 1245.52 1497.33 1228.05 1503.64 1212.33 C 1504.96 1209.03 1505.11 1197.76 1506.04 1193.04 C 1509.43 1193.07 1513.56 1191.33 1516.02 1188.91 z"/>
<path transform="translate(0,0)" fill="rgb(80,54,37)" d="M 956.367 830.86 L 959.894 838.447 C 946.367 923.286 957.114 1011.92 994.625 1090.17 C 1002.48 1106.55 1019.64 1130.7 1030.8 1146.23 C 1031.92 1147.78 1033.06 1149.31 1034.21 1150.83 L 1033.02 1152.03 C 1031.46 1153.62 1031.14 1154.14 1029.94 1156.09 L 1028.51 1156.37 C 967.735 1085.96 943.587 991.57 945.637 900.243 C 946.078 880.587 945.746 857.692 950.894 838.773 C 949.64 858.648 947.345 880.52 947.567 900.378 C 947.282 906.246 947.792 937.303 948.62 942.28 L 949.497 942.113 C 948.736 932.927 951.723 906.682 949.284 899.236 C 949.06 885.735 952.427 843.703 956.367 830.86 z"/>
<path transform="translate(0,0)" fill="rgb(80,54,37)" d="M 1298.54 1278.88 C 1303.74 1278.45 1321.87 1277.84 1324.36 1274.19 C 1320.98 1274.07 1317.88 1274.09 1314.51 1274.13 L 1313.56 1273.06 C 1315.79 1270.75 1332.97 1268.11 1337.1 1267.45 C 1383.95 1259.97 1430.45 1241.31 1465.66 1208.94 C 1478.19 1197.41 1500.86 1163.54 1516.02 1188.91 C 1513.56 1191.33 1509.43 1193.07 1506.04 1193.04 C 1504.82 1189.15 1505.95 1190.58 1502.83 1188.39 C 1497.47 1188.49 1491.58 1194.67 1488.15 1198.59 C 1443.7 1249.42 1376 1277.57 1307.8 1278.98 C 1304.71 1279.03 1301.62 1279 1298.54 1278.88 z"/>
<path transform="translate(0,0)" fill="url(#Gradient1)" d="M 1051.28 1172.15 C 1062.08 1185.12 1070.67 1187.28 1082.42 1196.73 C 1132.33 1236.86 1193.11 1253.29 1254.15 1268.01 C 1263.15 1270.19 1269.85 1276.03 1279.29 1278.11 C 1207.88 1277.06 1092.81 1226.77 1045.59 1174.45 L 1046.27 1173.8 L 1051.05 1177.11 L 1051.97 1175.3 L 1050.26 1175.66 L 1050.84 1176.2 L 1051.93 1174.19 C 1051.71 1173.51 1051.5 1172.83 1051.28 1172.15 z"/>
<path transform="translate(0,0)" fill="rgb(73,49,34)" d="M 1176.66 592.976 C 1182.8 593.62 1185.06 593.032 1188.7 597.64 C 1189.18 598.256 1189.65 598.881 1190.1 599.515 L 1188.78 600.031 C 1179.02 603.793 1166.75 606.525 1156.59 609.669 C 1138.75 615.189 1091.84 637.29 1079.75 649.864 C 1077.77 637.166 1084.12 642.833 1090.18 630.477 C 1105.37 620.531 1124.55 610.398 1141.56 604.281 C 1153.64 599.934 1164.69 597.711 1176.66 592.976 z"/>
<path transform="translate(0,0)" fill="rgb(73,49,34)" d="M 1077.31 549.255 C 1108.99 547.668 1148.38 556.72 1179.82 561.239 C 1175.51 567.193 1172.25 566.85 1164.82 568.448 C 1112.8 557.898 1082.63 556.65 1029.47 561.363 L 1024.79 560.671 L 1032.25 558.308 C 1039.02 558.629 1046.78 558.098 1053.64 557.795 L 1058.08 558.21 C 1069.16 558.367 1072.37 560.16 1077.31 549.255 z"/>
<path transform="translate(0,0)" fill="rgb(87,62,44)" d="M 1090.18 630.477 C 1084.12 642.833 1077.77 637.166 1079.75 649.864 C 1069.6 658.436 1034.46 695.383 1026.43 695.648 C 1023.94 693.771 1024.82 694.986 1024.01 691.675 C 1025.39 688.74 1025.32 689.361 1028.23 687.231 C 1022.85 689.802 1021.63 690.938 1017.12 694.653 C 1027.69 678.899 1074.04 640.714 1090.18 630.477 z"/>
<path transform="translate(0,0)" fill="rgb(73,49,34)" d="M 927.418 584.319 C 932.346 577.709 926.848 582.654 930.288 576.431 C 935.88 573.369 944.087 570.634 950.253 568.964 C 967.631 564.255 1009.08 547.032 1024.79 560.671 L 1029.47 561.363 C 986.969 567.795 968.322 571.147 927.418 584.319 z"/>
<path transform="translate(0,0)" fill="rgb(80,54,37)" d="M 990.508 1474.81 C 1004.92 1475.95 1023.71 1480.51 1039.27 1482.28 C 1048.4 1483.32 1076.92 1484.48 1083.6 1486.01 L 1084.68 1485.95 C 1083.48 1490.39 1084.53 1492.33 1086.12 1496.88 C 1079.33 1496.91 1068.95 1495.9 1061.93 1495.42 C 1045.43 1493.86 1010.45 1487.53 993.967 1483.7 C 1005.63 1482.81 1017.37 1487.85 1027.86 1485.39 C 1025.7 1482.08 997.563 1477.53 990.508 1474.81 z"/>
<path transform="translate(0,0)" fill="rgb(74,46,30)" d="M 1083.6 1486.01 L 1084.68 1485.95 C 1083.48 1490.39 1084.53 1492.33 1086.12 1496.88 C 1079.33 1496.91 1068.95 1495.9 1061.93 1495.42 C 1062.89 1494 1063.58 1493.07 1064.66 1491.73 L 1067.32 1492.35 C 1070.72 1491.01 1071.77 1489.98 1073.74 1486.92 C 1077.51 1486.17 1079.74 1486.16 1083.6 1486.01 z"/>
<path transform="translate(0,0)" fill="rgb(87,62,44)" d="M 982.611 748.843 C 981.708 752.246 980.972 752.484 982.062 755.021 C 985.273 754.744 985.884 753.703 988.842 751.704 C 989.028 756.959 981.514 773.781 979.018 779.74 C 973.228 793.565 968.619 804.848 965.165 819.661 L 960.773 810.733 L 961.024 809.728 C 963.045 801.927 966.397 795.402 968.063 787.849 C 958.481 804.719 957.483 823.873 951.025 838.252 C 953.474 815.096 970.595 769.788 982.611 748.843 z"/>
<path transform="translate(0,0)" fill="rgb(87,62,44)" d="M 1179.82 561.239 C 1191.6 563.432 1205.01 567.666 1203.17 583.994 C 1202.51 589.886 1197.48 594.845 1192.57 597.989 C 1191.75 598.508 1190.93 599.017 1190.1 599.515 C 1189.65 598.881 1189.18 598.256 1188.7 597.64 C 1185.06 593.032 1182.8 593.62 1176.66 592.976 C 1182.62 591.27 1200.53 585.462 1191.63 575.623 C 1184.87 568.151 1173.95 568.911 1164.82 568.448 C 1172.25 566.85 1175.51 567.193 1179.82 561.239 z"/>
<path transform="translate(0,0)" fill="rgb(234,202,137)" d="M 700.767 1073.59 C 722.344 1068.33 740.457 1099.03 744.085 1116.85 C 744.386 1118.33 744.66 1119.82 744.906 1121.31 C 744.967 1122.75 745 1124.19 745.007 1125.63 C 745.159 1196.11 659.223 1188.02 663.135 1109.51 C 663.285 1108.09 663.465 1106.67 663.673 1105.25 C 665.473 1093.21 670.137 1084.55 679.848 1077.28 C 686.329 1072.44 692.963 1072.01 700.767 1073.59 z"/>
<path transform="translate(0,0)" fill="rgb(203,157,91)" d="M 663.135 1109.51 C 670.763 1104.97 664.001 1104.86 671.225 1101.75 L 670.382 1109.76 C 668.151 1130.84 682.118 1163.38 705.761 1165.78 C 712.556 1166.52 719.344 1164.33 724.418 1159.75 C 733.934 1151.27 737.153 1137.15 737.174 1124.88 C 740.681 1122.53 740.888 1122.28 744.906 1121.31 C 744.967 1122.75 745 1124.19 745.007 1125.63 C 745.159 1196.11 659.223 1188.02 663.135 1109.51 z"/>
<path transform="translate(0,0)" fill="rgb(203,157,91)" d="M 700.767 1073.59 C 722.344 1068.33 740.457 1099.03 744.085 1116.85 C 744.386 1118.33 744.66 1119.82 744.906 1121.31 C 740.888 1122.28 740.681 1122.53 737.174 1124.88 C 733.922 1105.84 728.868 1090.32 710.848 1081 C 706.691 1078.85 703.187 1077.41 700.767 1073.59 z"/>
<path transform="translate(0,0)" fill="rgb(203,157,91)" d="M 679.848 1077.28 L 681.484 1078.62 C 679.681 1085.31 674.139 1091.25 671.225 1101.75 C 664.001 1104.86 670.763 1104.97 663.135 1109.51 C 663.285 1108.09 663.465 1106.67 663.673 1105.25 C 665.473 1093.21 670.137 1084.55 679.848 1077.28 z"/>
<path transform="translate(0,0)" fill="rgb(203,157,91)" d="M 686.093 1107.68 C 687.262 1109.2 687.027 1108.52 687.35 1110.16 C 691.8 1132.64 693.396 1131.19 707.03 1145 C 692.846 1142.67 682.952 1120.23 686.093 1107.68 z"/>
<path transform="translate(0,0)" fill="rgb(234,202,137)" d="M 860.419 1315.51 C 861.323 1300.2 885.957 1305.51 895.13 1309.06 C 906.358 1313.4 926.384 1331.16 927.844 1343.04 C 933.628 1352.62 934.331 1359.33 931.456 1370.07 C 924.964 1383.83 909.243 1382.77 896.399 1382.11 L 895.655 1380.71 C 871.005 1379.55 840.795 1358.15 845.341 1330.95 C 845.841 1327.96 846.398 1325.44 848.889 1323.55 L 850.501 1323.92 C 853.475 1324.38 855.079 1324.57 858.073 1324.73 C 860.677 1322.18 859.866 1321.92 860.466 1317.24 L 860.419 1315.51 z"/>
<path transform="translate(0,0)" fill="rgb(203,157,91)" d="M 895.655 1380.71 C 871.005 1379.55 840.795 1358.15 845.341 1330.95 C 845.841 1327.96 846.398 1325.44 848.889 1323.55 L 850.501 1323.92 C 851.808 1380.15 899.414 1368.33 905.552 1378.93 C 901.9 1380.71 899.358 1379.8 895.655 1380.71 z"/>
<path transform="translate(0,0)" fill="rgb(203,157,91)" d="M 860.419 1315.51 C 861.323 1300.2 885.957 1305.51 895.13 1309.06 C 906.358 1313.4 926.384 1331.16 927.844 1343.04 L 923.438 1348.28 C 909.014 1320.49 892.505 1307.1 860.419 1315.51 z"/>
<path transform="translate(0,0)" fill="rgb(203,157,91)" d="M 923.438 1348.28 L 927.844 1343.04 C 933.628 1352.62 934.331 1359.33 931.456 1370.07 C 927.03 1370.94 928.129 1372.01 922.375 1372.01 C 921.372 1370.23 927.573 1359.73 923.438 1348.28 z"/>
<path transform="translate(0,0)" fill="rgb(234,202,137)" d="M 1251.75 1342.74 C 1257.56 1335.25 1259.49 1329.41 1267.24 1322.8 C 1279.67 1312.19 1291.44 1313.04 1306.3 1314.28 C 1311.33 1318.03 1316.26 1322.42 1321.05 1326.51 C 1322.29 1328.35 1323.34 1329.76 1324.35 1331.74 C 1326.05 1342.77 1329.09 1353.54 1321.81 1363.68 C 1318.71 1368.74 1315.45 1371.96 1310.65 1375.3 L 1307.05 1377.79 C 1296.87 1383.8 1292.61 1384.89 1281.38 1383.94 C 1275.25 1382.47 1273.67 1381.79 1268.09 1379.27 C 1264.18 1377.66 1258.98 1373.73 1256.19 1370.45 C 1248.93 1361.91 1252.71 1351.03 1251.75 1342.74 z"/>
<path transform="translate(0,0)" fill="rgb(203,157,91)" d="M 1315.69 1360.47 C 1322.09 1345.99 1318.18 1339.98 1320.6 1333.43 L 1324.35 1331.74 C 1326.05 1342.77 1329.09 1353.54 1321.81 1363.68 C 1318.71 1368.74 1315.45 1371.96 1310.65 1375.3 L 1307.05 1377.79 C 1296.87 1383.8 1292.61 1384.89 1281.38 1383.94 L 1282.77 1377.56 C 1289.55 1378.62 1296.61 1376.27 1302.63 1373.43 C 1309.64 1368.28 1310.56 1367.19 1315.69 1360.47 z"/>
<path transform="translate(0,0)" fill="rgb(203,157,91)" d="M 1251.75 1342.74 C 1257.56 1335.25 1259.49 1329.41 1267.24 1322.8 C 1279.67 1312.19 1291.44 1313.04 1306.3 1314.28 C 1311.33 1318.03 1316.26 1322.42 1321.05 1326.51 L 1319.64 1329.71 C 1312.62 1326.55 1309.43 1321.46 1300.47 1319.7 C 1281.55 1315.98 1266.09 1328.78 1257.89 1344.82 C 1255.28 1344.99 1254.49 1344.04 1251.75 1342.74 z"/>
<path transform="translate(0,0)" fill="rgb(225,187,114)" d="M 1268.09 1379.27 L 1268.59 1377.46 C 1271.8 1375.39 1277.38 1377.18 1282.77 1377.56 L 1281.38 1383.94 C 1275.25 1382.47 1273.67 1381.79 1268.09 1379.27 z"/>
<path transform="translate(0,0)" fill="rgb(234,202,137)" d="M 816.921 686.566 C 824.537 685.089 830.185 682.769 837.649 685.311 C 842.141 689.486 844.947 691.649 848.087 696.993 L 847.802 700.333 C 849.18 708.797 846.942 717.533 842.9 725.009 C 836.779 734.244 834.391 737.5 826.852 745.667 C 821.443 750.452 819.103 751.888 812.92 755.693 C 803.998 763.768 792.409 758.297 782.34 756.713 C 779.25 756.226 779.25 755.401 777.963 753.104 C 775.539 749.438 772.786 745.965 771.674 741.801 C 772.856 717.793 780.327 706.83 799.056 693.212 C 804.299 690.253 810.986 687.601 816.921 686.566 z"/>
<path transform="translate(0,0)" fill="rgb(203,157,91)" d="M 799.056 693.212 C 804.299 690.253 810.986 687.601 816.921 686.566 L 817.853 689.928 C 814.932 694.231 804.346 699.217 799.339 702.477 C 788.847 711.474 776.742 725.527 778.162 740.264 C 779.486 743.984 780.133 745.715 781.923 749.206 L 781.674 751.455 C 780.24 752.154 779.472 752.58 777.963 753.104 C 775.539 749.438 772.786 745.965 771.674 741.801 C 772.856 717.793 780.327 706.83 799.056 693.212 z"/>
<path transform="translate(0,0)" fill="rgb(203,157,91)" d="M 835.499 721.164 C 839.198 714.42 841.657 700.876 844.043 699.093 L 847.802 700.333 C 849.18 708.797 846.942 717.533 842.9 725.009 C 836.779 734.244 834.391 737.5 826.852 745.667 C 824.997 743.599 823.349 742.286 821.252 740.509 C 827.642 734.083 831.003 728.889 835.499 721.164 z"/>
<path transform="translate(0,0)" fill="rgb(203,157,91)" d="M 821.252 740.509 C 823.349 742.286 824.997 743.599 826.852 745.667 C 821.443 750.452 819.103 751.888 812.92 755.693 C 810.585 754.472 809.956 753.547 809.543 751.11 C 811.021 748.761 818.186 743.446 821.252 740.509 z"/>
<path transform="translate(0,0)" fill="rgb(203,157,91)" d="M 837.649 685.311 C 842.141 689.486 844.947 691.649 848.087 696.993 C 843.737 696.465 833.662 693.361 834.291 687.828 L 837.649 685.311 z"/>
<path transform="translate(0,0)" fill="rgb(203,157,91)" d="M 818.91 705.599 C 820.409 705.727 821.207 705.995 822.671 706.346 C 822.791 708.397 822.747 707.773 819.099 709.703 C 811.522 713.713 806.902 720.285 801.801 727.03 L 800.32 728.374 L 799.954 726.152 C 802.51 717.664 811.391 709.956 818.91 705.599 z"/>
<path transform="translate(0,0)" fill="rgb(234,202,137)" d="M 1078.47 1425.21 C 1083.69 1422.79 1086.36 1421.28 1091.19 1418.34 C 1093.86 1419.89 1092.81 1418.87 1094.43 1421.53 C 1093.4 1426.68 1090.9 1427.36 1092.36 1429.62 C 1094.8 1433.36 1098 1434.61 1098.87 1438.82 C 1095.07 1447.81 1088.87 1442.02 1084.58 1437.78 C 1079.27 1438.08 1075.01 1437.29 1073.65 1431.31 L 1078.47 1425.21 z"/>
<path transform="translate(0,0)" fill="rgb(203,157,91)" d="M 724.422 1185.37 C 726.909 1185.44 729.613 1185.23 732.121 1185.11 C 731.014 1185.95 729.901 1186.79 728.779 1187.62 C 717.175 1196.15 711.188 1196.04 697.548 1193.93 C 692.66 1191.06 687.961 1188.03 683.181 1184.99 C 696.338 1187.71 711.601 1190.63 724.422 1185.37 z"/>
<path transform="translate(0,0)" fill="rgb(234,202,137)" d="M 1113.38 1395.04 C 1117.78 1396.03 1121.67 1396.72 1126.13 1397.45 L 1126.95 1403.13 L 1128 1403.67 L 1129.58 1401.12 L 1130.16 1401.31 L 1129.6 1402.73 L 1130.82 1403.64 L 1130.72 1405.14 C 1128.69 1409.89 1129.37 1409.68 1125.71 1412.44 C 1116.29 1412.93 1113.46 1402.79 1113.38 1395.04 z"/>
<path transform="translate(0,0)" fill="rgb(203,157,91)" d="M 756.932 1102.63 C 765.147 1107.39 768.484 1139.24 758.428 1145.5 C 758.317 1142.27 760.059 1136.92 760.302 1133.18 C 760.99 1122.58 759.09 1112.89 756.932 1102.63 z"/>
<path transform="translate(0,0)" fill="rgb(203,157,91)" d="M 691.897 1202.83 C 692.843 1202.92 694.012 1202.94 694.866 1203.29 C 701.067 1205.85 712.319 1204.5 717.595 1205.88 L 717.668 1208.35 C 708.86 1212.03 696.577 1212.88 691.897 1202.83 z"/>
<path transform="translate(0,0)" fill="rgb(234,202,137)" d="M 1309.53 1391.11 L 1311.06 1391.18 C 1314.33 1394.63 1313.62 1398.96 1309.97 1401.85 L 1307.45 1401.39 C 1303.89 1399.09 1301.75 1398.17 1300.73 1394.54 C 1303.93 1391.64 1304.66 1392.28 1309.53 1391.11 z"/>
<path transform="translate(0,0)" fill="rgb(234,202,137)" d="M 1088.13 1381.26 L 1090.91 1381.97 C 1095.36 1386.43 1098.88 1389.52 1094.85 1395.29 C 1092.24 1394.32 1088.08 1391.01 1086.73 1388.43 C 1085.17 1385.45 1086.62 1384.31 1088.13 1381.26 z"/>
<path transform="translate(0,0)" fill="rgb(234,202,137)" d="M 1049.15 1392.29 L 1051.56 1393.84 C 1053.45 1398 1051.99 1401.31 1052.7 1406.91 L 1057.57 1406.96 L 1057.94 1407.71 C 1046.24 1408.07 1043.72 1401.86 1049.15 1392.29 z"/>
<path transform="translate(0,0)" fill="rgb(203,157,91)" d="M 950.534 1358.46 C 951.893 1359.35 951.134 1358.73 952.56 1360.6 C 951.655 1367.85 951.014 1371.18 945.809 1376.37 L 945.126 1373.97 C 947.911 1366.57 944.73 1365.77 950.534 1358.46 z"/>
<path transform="translate(0,0)" fill="rgb(139,121,84)" d="M 1421.94 1271.39 C 1426.96 1273.99 1428.3 1279.81 1426.93 1284.97 C 1419.8 1281.57 1419.07 1277.99 1421.94 1271.39 z"/>
<path transform="translate(0,0)" fill="rgb(139,121,84)" d="M 1095.33 588.599 C 1096.54 589.593 1095.96 588.902 1096.65 590.959 C 1094.92 595.906 1093.99 598.967 1091.31 603.568 L 1089.33 600.401 C 1089.33 594.629 1091.54 592.833 1095.33 588.599 z"/>
<path transform="translate(0,0)" fill="rgb(203,157,91)" d="M 962.487 1365.68 C 963.988 1371.5 960.868 1376.37 958.167 1381.48 C 955.707 1374.94 958.54 1370.56 962.487 1365.68 z"/>
<path transform="translate(0,0)" fill="rgb(248,234,192)" d="M 1273.94 689.457 C 1276.16 691.665 1278.81 708.94 1283.1 716.631 C 1291.03 730.877 1302.85 729.698 1304.94 731.953 C 1302.45 734.617 1301.86 734.258 1299.58 736.265 C 1282.18 751.538 1285.74 765.229 1283.09 785.51 C 1282.7 788.473 1281.61 788.458 1279.52 789.613 C 1275.16 781.676 1275.01 762.961 1267.83 753.543 C 1260.19 743.535 1254.51 742.804 1243.11 740.657 C 1253.48 735.905 1266.38 731.294 1269.88 718.559 C 1272.18 710.171 1271.37 696.775 1273.94 689.457 z M 1261.71 737.747 C 1269.93 746.103 1273.82 749.026 1278.24 759.914 C 1283.19 745.703 1283.45 744.011 1292.81 732.63 C 1278.53 723.072 1283.71 720.544 1276.15 711.602 C 1272.99 725.146 1272.65 728.92 1261.71 737.747 z"/>
<path transform="translate(0,0)" fill="rgb(248,234,192)" d="M 542.631 1252.24 C 549.446 1253.97 551.954 1268.81 561.772 1275.16 C 568.349 1279.41 568.463 1279.26 576.196 1282.26 C 582.906 1279.53 585.89 1278.34 592.905 1276.65 C 576.672 1294.55 570.579 1299.77 576.218 1325.76 C 576.143 1329.57 576.878 1330.17 574.909 1332.07 C 568.033 1328.31 560.935 1296.65 536.595 1301.79 L 535.405 1302.06 L 534.273 1301.08 C 549.04 1286.3 544.807 1270.21 542.631 1252.24 z M 567.863 1310.63 C 568.603 1299.81 568.377 1295.97 574.321 1286.75 C 557.108 1283.18 562.56 1281.34 551.754 1274.62 C 551.301 1277.76 549.393 1291.48 549.176 1295.09 C 549.115 1296.1 553.13 1297.12 553.601 1297.46 C 559.056 1297.2 565.06 1311.12 567.863 1310.63 z"/>
<path transform="translate(0,0)" fill="rgb(80,54,37)" fill-opacity="0.976471" d="M 650.805 1201.92 C 672.42 1244.49 689.909 1281.27 723.099 1316.67 C 726.338 1320.13 734.592 1329.63 736.915 1333.53 L 736.549 1334.77 C 734.297 1333.39 733.248 1334.11 730.764 1334.71 L 729.136 1333.31 L 731.361 1331.86 C 724.921 1322.82 716.567 1312.57 709.698 1303.69 C 706.686 1300.39 703.678 1295.49 699.924 1293.97 C 697.047 1295.65 697.828 1295.85 696.448 1300.13 C 676.575 1276.99 650.83 1231.19 640.246 1202.77 C 643.673 1202.35 646.73 1202.87 649.823 1204.35 L 650.805 1201.92 z M 658.085 1222.21 C 656.169 1217.8 655.103 1213.63 651.035 1211.37 C 652.333 1216.04 652.394 1217.8 655.511 1221.27 L 658.085 1222.21 z"/>
<path transform="translate(0,0)" fill="rgb(80,54,37)" fill-opacity="0.898039" d="M 651.035 1211.37 C 655.103 1213.63 656.169 1217.8 658.085 1222.21 L 655.511 1221.27 C 652.394 1217.8 652.333 1216.04 651.035 1211.37 z"/>
<path transform="translate(0,0)" fill="rgb(87,62,44)" fill-opacity="0.980392" d="M 736.915 1333.53 C 748.092 1344.65 758.51 1355.82 770.104 1366.57 C 816.7 1409.81 869.349 1435.1 928.399 1457.36 L 926.84 1458.22 C 917.005 1455.07 895.655 1447.39 886.62 1443.23 C 882.901 1440.96 877.576 1439.7 873.104 1437.27 C 871.783 1435.97 847.305 1424.44 844.394 1423.25 C 834.089 1417.1 814.679 1404.78 804.527 1400.12 L 803.165 1400.96 L 803.704 1405.88 C 784.868 1395.45 771.901 1382.86 756.147 1368.36 C 759.416 1363.81 759.609 1367.38 762.588 1363.29 C 757.821 1357.04 751.222 1353.11 745.108 1347.77 L 744.753 1346 C 741.365 1342.15 738.94 1339.29 736.549 1334.77 L 736.915 1333.53 z"/>
<path transform="translate(0,0)" fill="rgb(248,234,192)" d="M 421.151 878.591 C 428.851 883.099 422.263 896.176 448.969 908.399 C 439.686 918.619 435.766 923.283 435.981 938.317 C 436.067 944.324 437.889 950.633 432.756 953.891 C 423.015 933.785 437.005 928.332 407.326 916.02 C 421.655 901.937 422.427 898.743 421.151 878.591 z M 429.799 927.674 C 432.076 920.178 433.668 915.959 437.533 908.997 C 430.968 905.402 430.173 903.477 425.116 898.661 C 422.016 905.823 421.42 907.779 416.479 913.945 C 423.458 918.825 425.239 920.084 429.799 927.674 z"/>
<path transform="translate(0,0)" fill="rgb(248,234,192)" d="M 1462.52 1049.45 C 1466.3 1051.71 1468.84 1064.57 1475.05 1070.12 C 1479.07 1073.73 1480.38 1074.68 1485.2 1077.93 C 1469.11 1088.55 1469.82 1098.05 1465.8 1115.69 L 1463.99 1115.69 C 1462.11 1113.3 1460.98 1101.53 1460.24 1097.24 C 1458.96 1089.83 1446.46 1082.42 1444.89 1079.58 C 1458.08 1070.32 1458.07 1064.41 1462.52 1049.45 z M 1454.48 1079.61 C 1459.82 1084.28 1461.55 1086.05 1464.17 1092.63 C 1466.54 1087.5 1471.25 1080.64 1471.39 1076.76 C 1469.55 1071.95 1467.08 1069.76 1464.51 1065.04 C 1461.33 1071.26 1458.82 1074.15 1454.48 1079.61 z"/>
<path transform="translate(0,0)" fill="rgb(248,234,192)" d="M 1118.39 904.752 C 1125.3 910.881 1116.58 920.02 1140.64 933.292 C 1120.49 956.379 1130.12 964.549 1125.87 971.696 L 1124.62 970.678 C 1121.85 961.531 1118.39 947.159 1107.85 944.185 C 1104.8 943.324 1101.84 942.038 1100.72 938.989 C 1102.99 936.412 1108.21 934.308 1111.5 932.704 C 1118.79 920.889 1118.11 918.956 1118.39 904.752 z M 1123.27 949.789 C 1125.69 943.542 1126.74 939.823 1131.33 934.785 C 1126.28 930.494 1124.39 928.526 1120.02 923.562 L 1119.67 924.884 C 1117.97 931.063 1114.58 935.308 1114.92 939.389 C 1115.34 940.129 1122.46 949.001 1123.27 949.789 z"/>
<path transform="translate(0,0)" fill="rgb(73,49,34)" fill-opacity="0.0117647" d="M 610.654 956.348 L 611.719 958.379 L 612.991 956.301 L 615.202 956.706 C 612.869 981.858 611.077 1013.64 612.139 1038.7 C 610.955 1044.73 612.826 1056.43 607.905 1058.77 C 606.22 1052.11 608.412 1043.25 605.115 1037.83 C 603.762 1030.2 600.905 1008.09 604.575 1001.53 L 608.137 1001.82 L 608.952 1000.5 C 606.945 999.997 606.453 999.833 604.56 999.151 C 602.414 994.593 605.811 973.497 606.934 968.106 L 608.095 968.63 C 610.151 966.782 609.584 959.957 610.654 956.348 z"/>
<path transform="translate(0,0)" fill="rgb(248,234,192)" d="M 1487.14 1417.61 C 1488.96 1419.01 1494.37 1430.34 1496.73 1434.04 L 1507.99 1438.76 C 1502.41 1441.52 1498.72 1443.88 1493.47 1447.2 C 1491.13 1452.17 1488.65 1457.07 1486.02 1461.89 L 1484.38 1462.62 C 1480.25 1459.89 1482.01 1451.31 1479.39 1448.36 C 1477.16 1445.85 1471.04 1442.08 1469.11 1439.18 C 1471.78 1437.12 1476.55 1436.25 1479.96 1435.33 C 1482.45 1430.57 1485.16 1422.83 1487.14 1417.61 z"/>
<path transform="translate(0,0)" fill="rgb(80,54,37)" fill-opacity="0.921569" d="M 871.142 1443.48 C 878.642 1441.33 880.112 1443.01 887.075 1446.91 C 887.686 1447.26 888.295 1447.6 888.902 1447.95 C 891.196 1451.12 931.735 1466.77 938.384 1467.27 C 942.232 1467.56 945.463 1467.69 949.632 1467.46 L 926.84 1458.22 L 928.399 1457.36 C 950.297 1465.33 969.792 1468.19 990.508 1474.81 L 984.461 1474.61 C 981.585 1473.73 973.657 1473.01 970.307 1472.62 C 966.307 1471.29 966.173 1471.17 962.036 1470.86 L 960.912 1471.98 L 961.34 1474.42 C 964.349 1476.27 964.862 1476.16 968.257 1476.9 L 968.075 1478.31 C 946.413 1475.89 890.557 1454.27 871.142 1443.48 z"/>
<path transform="translate(0,0)" fill="rgb(74,46,30)" fill-opacity="0.976471" d="M 604.465 1064.28 C 605.802 1060.15 604.548 1061.35 607.409 1059.63 C 609.105 1065.7 612.96 1088.5 615.132 1090.55 C 616.53 1085.17 614.372 1080.39 614.955 1073.7 C 618.499 1090.91 623.746 1118.25 626.449 1135.24 C 624.888 1131.68 623.142 1125.53 621.913 1121.65 L 621.197 1118.18 L 619.984 1117.79 C 617.031 1122.63 616.882 1123.97 615.182 1129.4 C 612.083 1119.04 605.017 1075.89 604.465 1064.28 z"/>
<path transform="translate(0,0)" fill="rgb(248,234,192)" d="M 594.43 635.746 C 596.517 637.938 598.171 645.105 599.077 648.312 C 602.106 650.756 605.261 653.785 608.155 656.438 C 604.064 665.605 603.684 671.185 602.252 681.015 L 600.858 681.753 L 599.939 680.515 C 596.15 671.243 593.093 667.483 583.627 662.996 L 583.75 661.896 C 593.046 657.749 589.072 644.436 594.43 635.746 z"/>
<path transform="translate(0,0)" fill="rgb(80,54,37)" fill-opacity="0.901961" d="M 700.121 1304.39 C 710.103 1304.58 701.15 1307.76 709.698 1303.69 C 716.567 1312.57 724.921 1322.82 731.361 1331.86 L 729.136 1333.31 L 730.764 1334.71 C 733.248 1334.11 734.297 1333.39 736.549 1334.77 C 738.94 1339.29 741.365 1342.15 744.753 1346 L 745.108 1347.77 L 739.556 1351.98 C 728.042 1340.56 710.703 1317.67 700.121 1304.39 z"/>
<path transform="translate(0,0)" fill="rgb(87,62,44)" fill-opacity="0.698039" d="M 803.704 1405.88 L 803.165 1400.96 L 804.527 1400.12 C 814.679 1404.78 834.089 1417.1 844.394 1423.25 C 842.319 1426.18 842.278 1426.31 837.976 1427.51 C 824.408 1420.17 816.029 1414.65 803.704 1405.88 z"/>
<path transform="translate(0,0)" fill="rgb(80,54,37)" fill-opacity="0.0470588" d="M 886.62 1443.23 C 895.655 1447.39 917.005 1455.07 926.84 1458.22 L 949.632 1467.46 C 945.463 1467.69 942.232 1467.56 938.384 1467.27 C 931.735 1466.77 891.196 1451.12 888.902 1447.95 L 886.62 1443.23 z"/>
<path transform="translate(0,0)" fill="rgb(73,49,34)" fill-opacity="0.819608" d="M 879.761 596.32 C 882.193 593.226 885.825 593.148 889.294 594.174 C 894.103 595.596 896.426 594.843 901.228 593.529 C 878.756 604.535 864.25 610.523 841.851 623.262 C 843.449 619.299 845.115 615.619 846.083 611.461 C 849.669 608.498 855.744 607.01 860.291 605.575 L 860.797 609.175 C 864.034 609.61 868.313 608.287 870.876 606.479 C 877.664 601.69 878.144 603.208 879.761 596.32 z"/>
<path transform="translate(0,0)" fill="rgb(73,49,34)" fill-opacity="0.0235294" d="M 984.461 1474.61 L 990.508 1474.81 C 997.563 1477.53 1025.7 1482.08 1027.86 1485.39 C 1017.37 1487.85 1005.63 1482.81 993.967 1483.7 C 991.046 1484.76 985.028 1482.59 982.39 1481.12 C 980.801 1478.75 980.064 1479.15 976.755 1477.9 C 979.693 1476.14 981.037 1475 984.461 1474.61 z"/>
<path transform="translate(0,0)" fill="rgb(73,49,34)" fill-opacity="0.839216" d="M 615.182 1129.4 C 616.882 1123.97 617.031 1122.63 619.984 1117.79 L 621.197 1118.18 L 621.913 1121.65 C 619.616 1125.37 618.401 1127.06 620.111 1131.75 C 622.6 1138.58 625.137 1159.12 631.371 1162.79 L 632.738 1162.08 L 633.643 1158.9 L 637.058 1168.5 C 637.05 1172.16 637.457 1174.32 635.513 1177.38 C 632.861 1176.27 632.837 1174.17 632.162 1171.37 C 630.85 1168.04 631.194 1167.72 628.701 1165.47 L 626.259 1166.76 C 622.843 1154.38 618.672 1142.19 615.182 1129.4 z"/>
<path transform="translate(0,0)" fill="rgb(248,234,192)" d="M 724.409 1512.21 C 727.983 1513.94 733.634 1523.24 736.621 1527.33 C 734.281 1532.36 732.632 1537.96 730.891 1543.26 C 712.701 1521.85 722.825 1535.98 724.322 1513.72 L 724.409 1512.21 z"/>
<path transform="translate(0,0)" fill="rgb(74,46,30)" fill-opacity="0.431373" d="M 805.849 637.185 C 815.936 631.592 824.343 623.579 833.822 618.521 C 834.433 622.201 834.207 623.288 836.851 625.773 C 828.347 631.218 815.868 638.741 808.084 644.52 L 806.974 643.048 C 807.002 639.922 807.248 639.896 805.849 637.185 z"/>
<path transform="translate(0,0)" fill="rgb(74,46,30)" fill-opacity="0.027451" d="M 951.025 838.252 C 957.483 823.873 958.481 804.719 968.063 787.849 C 966.397 795.402 963.045 801.927 961.024 809.728 L 960.773 810.733 C 959.191 817.249 957.306 824.28 956.367 830.86 C 952.427 843.703 949.06 885.735 949.284 899.236 L 947.567 900.378 C 947.345 880.52 949.64 858.648 950.894 838.773 L 951.025 838.252 z"/>
<path transform="translate(0,0)" fill="rgb(80,54,37)" fill-opacity="0.862745" d="M 844.394 1423.25 C 847.305 1424.44 871.783 1435.97 873.104 1437.27 C 870.042 1439.38 871.01 1438.67 869.356 1442.67 C 859.337 1438.72 846.993 1433.36 837.976 1427.51 C 842.278 1426.31 842.319 1426.18 844.394 1423.25 z"/>
<path transform="translate(0,0)" fill="rgb(73,49,34)" fill-opacity="0.952941" d="M 1028.69 555.13 C 1038.24 551.959 1066.97 548.992 1077.31 549.255 C 1072.37 560.16 1069.16 558.367 1058.08 558.21 C 1061.39 557.264 1060.27 558.186 1062.41 556.072 C 1059.28 554.282 1055.32 554.232 1052.09 555.882 C 1043 554.067 1038.42 557.14 1028.69 555.13 z"/>
<path transform="translate(0,0)" fill="rgb(80,54,37)" fill-opacity="0.933333" d="M 638.096 1171.17 C 642.196 1182.34 646.523 1191.26 650.805 1201.92 L 649.823 1204.35 C 646.73 1202.87 643.673 1202.35 640.246 1202.77 C 637.807 1198.12 636.15 1193.2 634.31 1188.26 L 638.519 1186.54 C 639.212 1183.42 637.68 1177.16 637.996 1172.47 L 638.096 1171.17 z"/>
<path transform="translate(0,0)" fill="rgb(87,62,44)" fill-opacity="0.960784" d="M 1034.21 1150.83 C 1039.85 1157.98 1045.54 1165.09 1051.28 1172.15 C 1051.5 1172.83 1051.71 1173.51 1051.93 1174.19 L 1050.84 1176.2 L 1050.26 1175.66 L 1051.97 1175.3 L 1051.05 1177.11 L 1046.27 1173.8 L 1045.59 1174.45 C 1039.28 1169.04 1033.56 1162.98 1028.51 1156.37 L 1029.94 1156.09 C 1031.14 1154.14 1031.46 1153.62 1033.02 1152.03 L 1034.21 1150.83 z"/>
<path transform="translate(0,0)" fill="rgb(73,49,34)" fill-opacity="0.286275" d="M 633.643 1158.9 L 632.738 1162.08 L 631.371 1162.79 C 625.137 1159.12 622.6 1138.58 620.111 1131.75 C 618.401 1127.06 619.616 1125.37 621.913 1121.65 C 623.142 1125.53 624.888 1131.68 626.449 1135.24 C 628.302 1141.59 631.31 1153.13 633.643 1158.9 z"/>
<path transform="translate(0,0)" fill="rgb(73,49,34)" fill-opacity="0.905882" d="M 739.556 1351.98 L 745.108 1347.77 C 751.222 1353.11 757.821 1357.04 762.588 1363.29 C 759.609 1367.38 759.416 1363.81 756.147 1368.36 C 750.589 1363.53 744.778 1357.31 739.556 1351.98 z"/>
<path transform="translate(0,0)" fill="rgb(74,46,30)" fill-opacity="0.666667" d="M 612.139 1038.7 C 612.788 1046.82 614.745 1066.45 614.955 1073.7 C 614.372 1080.39 616.53 1085.17 615.132 1090.55 C 612.96 1088.5 609.105 1065.7 607.409 1059.63 L 607.905 1058.77 C 612.826 1056.43 610.955 1044.73 612.139 1038.7 z"/>
<path transform="translate(0,0)" fill="rgb(80,54,37)" fill-opacity="0.988235" d="M 606.934 968.106 C 610.404 939.968 608.808 939.252 601.882 912.269 C 612.357 930.652 612.5 935.968 610.654 956.348 C 609.584 959.957 610.151 966.782 608.095 968.63 L 606.934 968.106 z"/>
<path transform="translate(0,0)" fill="rgb(74,46,30)" fill-opacity="0.0117647" d="M 860.291 605.575 C 867.5 599.529 870.287 596.029 879.761 596.32 C 878.144 603.208 877.664 601.69 870.876 606.479 C 868.313 608.287 864.034 609.61 860.797 609.175 L 860.291 605.575 z"/>
<path transform="translate(0,0)" fill="rgb(80,54,37)" d="M 960.773 810.733 L 965.165 819.661 C 963.452 825.377 961.015 832.783 959.894 838.447 L 956.367 830.86 C 957.306 824.28 959.191 817.249 960.773 810.733 z"/>
<path transform="translate(0,0)" fill="rgb(74,46,30)" fill-opacity="0.65098" d="M 805.849 637.185 C 807.248 639.896 807.002 639.922 806.974 643.048 L 808.084 644.52 C 805.766 646.217 801.706 649.452 799.27 650.564 C 798.537 649.258 798.284 649.028 797.353 647.854 L 790.954 649.208 L 790.905 648.465 C 796.366 643.578 799.321 640.546 805.849 637.185 z"/>
<path transform="translate(0,0)" fill="rgb(80,54,37)" fill-opacity="0.866667" d="M 696.448 1300.13 C 697.828 1295.85 697.047 1295.65 699.924 1293.97 C 703.678 1295.49 706.686 1300.39 709.698 1303.69 C 701.15 1307.76 710.103 1304.58 700.121 1304.39 L 696.448 1300.13 z"/>
<path transform="translate(0,0)" fill="rgb(80,54,37)" fill-opacity="0.423529" d="M 949.284 899.236 C 951.723 906.682 948.736 932.927 949.497 942.113 L 948.62 942.28 C 947.792 937.303 947.282 906.246 947.567 900.378 L 949.284 899.236 z"/>
<path transform="translate(0,0)" fill="rgb(80,54,37)" fill-opacity="0.901961" d="M 637.058 1168.5 L 638.096 1171.17 L 637.996 1172.47 C 637.68 1177.16 639.212 1183.42 638.519 1186.54 L 634.31 1188.26 L 630.458 1179.08 L 632.162 1171.37 C 632.837 1174.17 632.861 1176.27 635.513 1177.38 C 637.457 1174.32 637.05 1172.16 637.058 1168.5 z"/>
<path transform="translate(0,0)" fill="rgb(74,46,30)" fill-opacity="0.556863" d="M 833.822 618.521 L 846.083 611.461 C 845.115 615.619 843.449 619.299 841.851 623.262 L 836.851 625.773 C 834.207 623.288 834.433 622.201 833.822 618.521 z"/>
<path transform="translate(0,0)" fill="rgb(74,46,30)" fill-opacity="0.729412" d="M 968.075 1478.31 L 968.257 1476.9 C 964.862 1476.16 964.349 1476.27 961.34 1474.42 L 960.912 1471.98 L 962.036 1470.86 C 966.173 1471.17 966.307 1471.29 970.307 1472.62 L 969.923 1473.97 C 972.394 1476.75 973.263 1476.77 976.755 1477.9 C 980.064 1479.15 980.801 1478.75 982.39 1481.12 C 978.578 1479.66 973.236 1480.04 968.075 1478.31 z"/>
<path transform="translate(0,0)" fill="rgb(87,62,44)" fill-opacity="0.627451" d="M 869.356 1442.67 C 871.01 1438.67 870.042 1439.38 873.104 1437.27 C 877.576 1439.7 882.901 1440.96 886.62 1443.23 L 888.902 1447.95 C 888.295 1447.6 887.686 1447.26 887.075 1446.91 C 880.112 1443.01 878.642 1441.33 871.142 1443.48 L 869.356 1442.67 z"/>
<path transform="translate(0,0)" fill="rgb(80,54,37)" fill-opacity="0.117647" d="M 1032.25 558.308 C 1029.1 557.253 1029.39 557.7 1026.95 555.692 L 1028.69 555.13 C 1038.42 557.14 1043 554.067 1052.09 555.882 L 1053.64 557.795 C 1046.78 558.098 1039.02 558.629 1032.25 558.308 z"/>
<path transform="translate(0,0)" fill="rgb(73,49,34)" fill-opacity="0.945098" d="M 605.115 1037.83 C 608.412 1043.25 606.22 1052.11 607.905 1058.77 L 607.409 1059.63 C 604.548 1061.35 605.802 1060.15 604.465 1064.28 C 604.137 1057.28 604.89 1045.19 605.115 1037.83 z"/>
<path transform="translate(0,0)" fill="rgb(73,49,34)" fill-opacity="0.0784314" d="M 970.307 1472.62 C 973.657 1473.01 981.585 1473.73 984.461 1474.61 C 981.037 1475 979.693 1476.14 976.755 1477.9 C 973.263 1476.77 972.394 1476.75 969.923 1473.97 L 970.307 1472.62 z"/>
<path transform="translate(0,0)" fill="rgb(80,54,37)" fill-opacity="0.92549" d="M 626.259 1166.76 L 628.701 1165.47 C 631.194 1167.72 630.85 1168.04 632.162 1171.37 L 630.458 1179.08 C 628.685 1175.26 627.502 1170.81 626.259 1166.76 z"/>
<path transform="translate(0,0)" fill="rgb(80,54,37)" fill-opacity="0.713725" d="M 1052.09 555.882 C 1055.32 554.232 1059.28 554.282 1062.41 556.072 C 1060.27 558.186 1061.39 557.264 1058.08 558.21 L 1053.64 557.795 L 1052.09 555.882 z"/>
</svg>