<svg version="1.1" xmlns="http://www.w3.org/2000/svg" style="display: block;" viewBox="0 0 2048 2048" width="1024" height="1024" preserveAspectRatio="none">
<defs>
	<linearGradient id="Gradient1" gradientUnits="userSpaceOnUse" x1="1162.12" y1="974.883" x2="1175.23" y2="960.106">
		<stop class="stop0" offset="0" stop-opacity="1" stop-color="rgb(180,163,113)"/>
		<stop class="stop1" offset="1" stop-opacity="1" stop-color="rgb(191,212,142)"/>
	</linearGradient>
	<linearGradient id="Gradient2" gradientUnits="userSpaceOnUse" x1="752.642" y1="947.092" x2="816.283" y2="937.66">
		<stop class="stop0" offset="0" stop-opacity="1" stop-color="rgb(243,217,213)"/>
		<stop class="stop1" offset="1" stop-opacity="1" stop-color="rgb(248,240,238)"/>
	</linearGradient>
	<linearGradient id="Gradient3" gradientUnits="userSpaceOnUse" x1="712.1" y1="959.964" x2="685.866" y2="994.301">
		<stop class="stop0" offset="0" stop-opacity="1" stop-color="rgb(239,198,194)"/>
		<stop class="stop1" offset="1" stop-opacity="1" stop-color="rgb(250,249,240)"/>
	</linearGradient>
	<linearGradient id="Gradient4" gradientUnits="userSpaceOnUse" x1="391.017" y1="1021.5" x2="420.054" y2="1049.82">
		<stop class="stop0" offset="0" stop-opacity="1" stop-color="rgb(240,202,185)"/>
		<stop class="stop1" offset="1" stop-opacity="1" stop-color="rgb(245,237,213)"/>
	</linearGradient>
	<linearGradient id="Gradient5" gradientUnits="userSpaceOnUse" x1="1106.37" y1="1013.43" x2="1114.31" y2="1017.42">
		<stop class="stop0" offset="0" stop-opacity="1" stop-color="rgb(242,199,188)"/>
		<stop class="stop1" offset="1" stop-opacity="1" stop-color="rgb(241,223,207)"/>
	</linearGradient>
	<linearGradient id="Gradient6" gradientUnits="userSpaceOnUse" x1="995.672" y1="1109.82" x2="992.937" y2="1117.24">
		<stop class="stop0" offset="0" stop-opacity="1" stop-color="rgb(204,211,158)"/>
		<stop class="stop1" offset="1" stop-opacity="1" stop-color="rgb(170,129,89)"/>
	</linearGradient>
	<linearGradient id="Gradient7" gradientUnits="userSpaceOnUse" x1="1048.7" y1="1047.81" x2="1081.3" y2="1082.04">
		<stop class="stop0" offset="0" stop-opacity="1" stop-color="rgb(243,213,209)"/>
		<stop class="stop1" offset="1" stop-opacity="1" stop-color="rgb(249,247,239)"/>
	</linearGradient>
	<linearGradient id="Gradient8" gradientUnits="userSpaceOnUse" x1="999.21" y1="1045.02" x2="983.154" y2="1090.11">
		<stop class="stop0" offset="0" stop-opacity="1" stop-color="rgb(241,198,194)"/>
		<stop class="stop1" offset="1" stop-opacity="1" stop-color="rgb(249,252,244)"/>
	</linearGradient>
	<linearGradient id="Gradient9" gradientUnits="userSpaceOnUse" x1="1671.86" y1="1023.28" x2="1625.37" y2="962.485">
		<stop class="stop0" offset="0" stop-opacity="1" stop-color="rgb(223,194,175)"/>
		<stop class="stop1" offset="1" stop-opacity="1" stop-color="rgb(245,231,221)"/>
	</linearGradient>
	<linearGradient id="Gradient10" gradientUnits="userSpaceOnUse" x1="1588.71" y1="1076.47" x2="1592.97" y2="1070.03">
		<stop class="stop0" offset="0" stop-opacity="1" stop-color="rgb(246,219,196)"/>
		<stop class="stop1" offset="1" stop-opacity="1" stop-color="rgb(201,167,151)"/>
	</linearGradient>
	<linearGradient id="Gradient11" gradientUnits="userSpaceOnUse" x1="1640.39" y1="1075.31" x2="1581.5" y2="1027.53">
		<stop class="stop0" offset="0" stop-opacity="1" stop-color="rgb(217,185,167)"/>
		<stop class="stop1" offset="1" stop-opacity="1" stop-color="rgb(246,238,222)"/>
	</linearGradient>
</defs>
<path transform="translate(0,0)" fill="rgb(242,237,214)" d="M 429.034 842.019 L 1174 841.518 L 1448.86 842.024 L 1630.53 842.704 C 1649.71 842.965 1668.49 841.841 1687.93 842.633 C 1701.47 843.184 1713.55 847.821 1726.21 848.6 C 1741.59 849.079 1756.65 844.006 1771.75 842.131 C 1794.23 839.338 1817.07 840.384 1839.74 839.972 C 1849.51 838.693 1869.24 854.82 1868.4 864.413 C 1867.27 877.412 1838.87 893.878 1842.51 908.084 C 1843.52 912.015 1857.98 929.522 1861.54 935.334 C 1856.73 947.856 1846.11 961.354 1839.16 973.534 C 1833.15 984.661 1843.71 987.358 1849.83 996.847 C 1849.85 1002.98 1850.15 1011.95 1849.79 1017.85 C 1848.99 1024.12 1849.01 1026.56 1845.02 1031.57 C 1832.32 1044.6 1820.53 1050.26 1805.84 1060.44 C 1792.45 1069.72 1779.65 1078.08 1765.99 1086.88 L 1655.62 1158.57 C 1645.25 1165.34 1622.9 1183.35 1613.18 1187.67 C 1603.71 1191.61 1592.12 1198.79 1583.78 1201.75 C 1551.07 1211.14 1528.17 1210.85 1494.68 1210.17 C 1486.41 1210 1472.04 1210.53 1464.3 1209.72 C 1419.18 1211.67 1364.38 1209.12 1318.4 1209.25 L 927.084 1209.6 L 436.796 1209.33 L 251.919 1210 C 219.752 1210.12 183.5 1211.09 151.902 1209.9 C 146.229 1205.87 144.238 1203.97 140.212 1198.39 C 148.111 1183.51 162.099 1170.41 167.614 1157.67 C 167.499 1157.33 167.384 1156.99 167.268 1156.65 L 166.659 1154.95 C 162.659 1143.64 157.645 1137.51 150.652 1127.59 C 158.313 1114.38 164.011 1104.76 172.46 1092 C 167.79 1083.85 162.969 1079.03 159.451 1069.84 C 161.953 1057.59 163.618 1045.18 164.435 1032.71 C 161.673 1026.13 151.259 1021.5 145.918 1012.36 L 144.949 1010.14 C 144.342 1008.29 143.787 1005.03 143.37 1003.02 C 145.751 988.072 145.72 977.513 156.141 966.208 L 161.212 960.76 C 166.826 955.362 183.001 945.365 189.958 940.716 C 215.641 923.554 241.746 907.781 268.399 892.213 C 282.004 884.266 299.072 870.913 312.794 864.287 C 344.75 845.383 357.499 839.864 395.972 840.82 C 407.59 841.109 416.575 840.389 429.034 842.019 z"/>
<path transform="translate(0,0)" fill="rgb(242,237,214)" d="M 1613.18 1187.67 C 1612.15 1184.48 1624.12 1171.83 1627.82 1166.57 C 1650.98 1134.46 1664.79 1097.61 1671.17 1058.7 C 1672.84 1048.51 1680.06 991.489 1676.14 985.738 C 1677.6 983.031 1677.43 982.323 1677.42 979.368 C 1680.4 976.551 1690.72 984.331 1694.78 986.128 C 1739.11 1005.77 1793.08 1039.98 1843.17 1030.01 L 1845.02 1031.57 C 1832.32 1044.6 1820.53 1050.26 1805.84 1060.44 C 1792.45 1069.72 1779.65 1078.08 1765.99 1086.88 L 1655.62 1158.57 C 1645.25 1165.34 1622.9 1183.35 1613.18 1187.67 z"/>
<path transform="translate(0,0)" fill="rgb(170,126,100)" d="M 1640.37 965.57 C 1641.16 959.788 1640.9 952.624 1645.81 949.224 C 1660.22 948.898 1685.22 977.109 1698.53 984.267 L 1699.85 984.972 C 1701.63 983.032 1703.42 981.104 1705.22 979.189 C 1711.01 973.054 1724.58 959.17 1733.25 958.916 C 1736.37 960.663 1736.75 964.426 1738.07 968.525 L 1739.43 968.664 C 1742.32 966.596 1743.44 965.49 1746.92 964.604 C 1759.02 969.693 1756.75 998.919 1754.8 1009.64 C 1758.23 1011.5 1761.68 1012.83 1765.27 1014.32 C 1784.43 1025.26 1822.47 1030.6 1844.74 1027.63 L 1843.17 1030.01 C 1793.08 1039.98 1739.11 1005.77 1694.78 986.128 C 1690.72 984.331 1680.4 976.551 1677.42 979.368 C 1677.43 982.323 1677.6 983.031 1676.14 985.738 C 1680.06 991.489 1672.84 1048.51 1671.17 1058.7 C 1664.79 1097.61 1650.98 1134.46 1627.82 1166.57 C 1624.12 1171.83 1612.15 1184.48 1613.18 1187.67 C 1603.71 1191.61 1592.12 1198.79 1583.78 1201.75 C 1586.02 1196.68 1601.31 1190.41 1608.17 1183.42 C 1626.49 1164.72 1636.65 1147.15 1648.14 1124.08 C 1625.17 1124.09 1601.52 1115.55 1622.04 1090.17 L 1622.34 1089.22 C 1620.41 1087.93 1602.04 1087.75 1593.74 1085.41 C 1582.55 1080.01 1566.22 1065.59 1565.31 1052.46 C 1567.02 1049.04 1565.78 1050.43 1569.51 1048.51 L 1573.54 1046.44 L 1573.53 1044.58 C 1567.23 1039.2 1565.82 1035.12 1575.13 1030.84 C 1592.35 1022.91 1612.25 1023.1 1630.14 1028.95 C 1611.72 1008.72 1612.21 980.351 1624.77 957.168 C 1629.53 959.383 1635.63 962.957 1640.37 965.57 z"/>
<path transform="translate(0,0)" fill="url(#Gradient11)" d="M 1569.74 1038.05 C 1587.03 1025.56 1623.8 1020 1639.04 1037.13 C 1643.29 1045.61 1641.89 1045.36 1640.17 1054.82 C 1641.82 1056.83 1641.68 1056.71 1644.05 1057.79 C 1648.76 1057.48 1649.55 1057.25 1654.01 1058.35 C 1653.44 1062.4 1652.72 1062.74 1649.84 1065.97 L 1649.57 1068.79 L 1637.26 1077.22 L 1638.4 1079.33 C 1632.12 1084.31 1627.27 1088.39 1621.37 1093.8 L 1622.04 1090.17 L 1622.34 1089.22 C 1620.41 1087.93 1602.04 1087.75 1593.74 1085.41 C 1582.55 1080.01 1566.22 1065.59 1565.31 1052.46 C 1567.02 1049.04 1565.78 1050.43 1569.51 1048.51 L 1570.22 1050.54 C 1574.23 1050.01 1576.18 1050.44 1577.48 1046.4 C 1575.9 1042.53 1573.03 1040.78 1569.74 1038.05 z"/>
<path transform="translate(0,0)" fill="rgb(195,155,131)" d="M 1593.74 1085.41 C 1582.55 1080.01 1566.22 1065.59 1565.31 1052.46 C 1567.02 1049.04 1565.78 1050.43 1569.51 1048.51 L 1570.22 1050.54 C 1568.87 1052.78 1568.97 1051.64 1569.29 1053.91 C 1579.62 1062.86 1585.39 1067.56 1597.2 1074.26 C 1602.27 1082.66 1606.88 1076.48 1610.47 1084.58 C 1613.3 1084.47 1615.89 1084.69 1618.34 1083.4 L 1617.08 1080.81 C 1626.94 1081.69 1628.69 1082.42 1637.26 1077.22 L 1638.4 1079.33 C 1632.12 1084.31 1627.27 1088.39 1621.37 1093.8 L 1622.04 1090.17 L 1622.34 1089.22 C 1620.41 1087.93 1602.04 1087.75 1593.74 1085.41 z"/>
<path transform="translate(0,0)" fill="url(#Gradient10)" d="M 1569.29 1053.91 C 1579.62 1062.86 1585.39 1067.56 1597.2 1074.26 C 1602.27 1082.66 1606.88 1076.48 1610.47 1084.58 C 1592.48 1081.93 1573.51 1073.56 1569.29 1053.91 z"/>
<path transform="translate(0,0)" fill="rgb(199,160,146)" d="M 1597.2 1074.26 C 1604.51 1077 1609.58 1078.81 1617.08 1080.81 L 1618.34 1083.4 C 1615.89 1084.69 1613.3 1084.47 1610.47 1084.58 C 1606.88 1076.48 1602.27 1082.66 1597.2 1074.26 z"/>
<path transform="translate(0,0)" fill="url(#Gradient9)" d="M 1645.91 950.871 C 1653.93 954.197 1676.91 965.318 1678.28 974.273 L 1677.47 975.546 C 1673.77 981.46 1673.16 981.919 1673.23 989.481 C 1673.27 993.599 1671.83 1000.26 1673.22 1003.94 L 1676.25 1003.83 C 1675.38 1006.5 1676 1005.23 1672.66 1007.23 C 1670.26 1013.9 1673.79 1013.88 1670.47 1020.66 C 1671.53 1024.51 1671.6 1024.31 1670.68 1028.13 C 1668.89 1030.19 1661.14 1034.62 1658.4 1035.16 L 1655.81 1033.23 C 1653.37 1031.75 1653.27 1031.87 1651.55 1029.67 C 1651.43 1026.76 1651.42 1025.55 1650.43 1022.74 C 1647.65 1026.32 1646.97 1025.9 1646.95 1029.45 L 1647.73 1030.2 C 1650.52 1032.97 1650.94 1033.13 1652.07 1036.7 C 1647.89 1036.49 1643.78 1035.55 1639.93 1033.93 C 1613.06 1022.9 1616.25 981.396 1625.45 959.144 C 1630.93 962.358 1636.06 964.844 1641.75 967.638 C 1643.06 961.042 1643.82 957.305 1645.91 950.871 z"/>
<path transform="translate(0,0)" fill="rgb(209,173,146)" d="M 1658.78 1021.12 C 1664.47 1020.7 1664.66 1023.23 1666.42 1027.39 L 1667.47 1027.52 C 1669.7 1024.02 1669.22 1025.89 1668.89 1021.69 L 1670.47 1020.66 C 1671.53 1024.51 1671.6 1024.31 1670.68 1028.13 C 1668.89 1030.19 1661.14 1034.62 1658.4 1035.16 L 1655.81 1033.23 C 1658.3 1027.64 1658.49 1027.61 1658.78 1021.12 z"/>
<path transform="translate(0,0)" fill="rgb(226,186,156)" d="M 1650.43 1022.74 C 1651.25 1022.32 1655.23 1016.06 1657.86 1013.75 L 1659.62 1013.96 L 1660.54 1016.83 L 1658.17 1020.75 L 1658.78 1021.12 C 1658.49 1027.61 1658.3 1027.64 1655.81 1033.23 C 1653.37 1031.75 1653.27 1031.87 1651.55 1029.67 C 1651.43 1026.76 1651.42 1025.55 1650.43 1022.74 z"/>
<path transform="translate(0,0)" fill="rgb(235,210,195)" d="M 1638.4 1079.33 C 1643.89 1075.27 1653.5 1067.2 1660.11 1068.14 C 1666.78 1073.9 1658.99 1094.22 1656.84 1101.92 C 1643.35 1101.84 1642.03 1101.56 1633.59 1112.12 C 1629.14 1107.8 1627.04 1104.47 1621.3 1103.46 L 1619.14 1105.08 C 1615.99 1105.42 1617.29 1105.87 1614.94 1104.42 C 1615.09 1101.18 1619.14 1096.94 1621.37 1093.8 C 1627.27 1088.39 1632.12 1084.31 1638.4 1079.33 z"/>
<path transform="translate(0,0)" fill="rgb(199,160,146)" d="M 1635.52 1114.6 C 1639.35 1108.97 1644.1 1102.59 1651.76 1103.21 C 1657.25 1108.21 1652.1 1115.32 1649.33 1120.9 C 1640.97 1121.17 1619.33 1120.72 1617.56 1109.58 C 1619.15 1106.65 1619.52 1107.35 1619.14 1105.08 L 1621.3 1103.46 C 1625.77 1107.51 1630.75 1110.7 1635.52 1114.6 z"/>
<path transform="translate(0,0)" fill="rgb(209,173,146)" d="M 1650.43 1022.74 C 1651.42 1025.55 1651.43 1026.76 1651.55 1029.67 C 1653.27 1031.87 1653.37 1031.75 1655.81 1033.23 L 1658.4 1035.16 C 1659.2 1039.57 1667.48 1045.23 1668.01 1051.3 C 1663.25 1052.2 1664.44 1051.31 1661.16 1054.16 C 1657.42 1051.63 1651.36 1046.31 1648.5 1044.68 C 1649.29 1042.92 1649.06 1043.89 1649.05 1041.75 C 1651.36 1038.65 1652.19 1040.05 1653.34 1036.97 L 1652.07 1036.7 C 1650.94 1033.13 1650.52 1032.97 1647.73 1030.2 L 1646.95 1029.45 C 1646.97 1025.9 1647.65 1026.32 1650.43 1022.74 z"/>
<path transform="translate(0,0)" fill="rgb(226,186,156)" d="M 1639.04 1037.13 C 1644.4 1040.6 1644.95 1042.12 1648.5 1044.68 C 1651.36 1046.31 1657.42 1051.63 1661.16 1054.16 C 1656.24 1059.6 1648.99 1055.47 1643.18 1053.17 L 1642.56 1054.27 L 1644.05 1057.79 C 1641.68 1056.71 1641.82 1056.83 1640.17 1054.82 C 1641.89 1045.36 1643.29 1045.61 1639.04 1037.13 z"/>
<path transform="translate(0,0)" fill="rgb(226,186,156)" d="M 1654.01 1058.35 C 1658.29 1058.68 1659.02 1058.02 1661.99 1060.1 C 1660.9 1063.58 1655.72 1065.59 1652.2 1067.43 L 1649.57 1068.79 L 1649.84 1065.97 C 1652.72 1062.74 1653.44 1062.4 1654.01 1058.35 z"/>
<path transform="translate(0,0)" fill="rgb(235,210,195)" d="M 1729.65 961.741 C 1733.52 962.634 1731.99 961.67 1734.49 964.587 C 1734.84 968.21 1734.43 968.821 1736.2 971.715 C 1739.34 972.209 1741.78 970.22 1744.74 968.565 C 1745.92 981.378 1745.39 993.389 1744.86 1006.16 C 1740.16 1004.22 1734.7 1001.37 1730.07 999.098 C 1720.89 994.166 1712.06 991.131 1702.08 985.571 C 1710.57 975.483 1718.33 968.386 1729.65 961.741 z"/>
<path transform="translate(0,0)" fill="rgb(235,210,195)" d="M 1746.82 970.21 L 1749.17 972.142 C 1754.38 983.578 1755.44 996.474 1752.17 1008.61 C 1749.72 1008.54 1750.64 1008.66 1748.29 1007.57 C 1746.48 1003.02 1746.81 976.856 1746.82 970.21 z"/>
<path transform="translate(0,0)" fill="rgb(242,237,214)" d="M 312.794 864.287 C 290.309 902.636 275.172 930.547 283.798 977.446 C 278.335 974.672 269.937 969.789 264.02 974.171 L 263.384 973.752 C 252.218 961.886 193.462 957.433 176.246 959.282 C 172.403 960.042 165.145 961.06 161.212 960.76 C 166.826 955.362 183.001 945.365 189.958 940.716 C 215.641 923.554 241.746 907.781 268.399 892.213 C 282.004 884.266 299.072 870.913 312.794 864.287 z"/>
<path transform="translate(0,0)" fill="rgb(197,186,163)" d="M 1593.74 1085.41 C 1602.04 1087.75 1620.41 1087.93 1622.34 1089.22 L 1622.04 1090.17 C 1601.52 1115.55 1625.17 1124.09 1648.14 1124.08 C 1636.65 1147.15 1626.49 1164.72 1608.17 1183.42 C 1601.31 1190.41 1586.02 1196.68 1583.78 1201.75 C 1551.07 1211.14 1528.17 1210.85 1494.68 1210.17 C 1486.41 1210 1472.04 1210.53 1464.3 1209.72 C 1472.63 1204.56 1557.16 1213.33 1566.69 1202.94 C 1564.47 1200.29 1562.41 1198.79 1563.33 1195.29 L 1567.61 1193.52 C 1568.55 1184.89 1580.79 1177.45 1575.63 1171.62 C 1573.05 1170.81 1572.6 1171.03 1570.04 1171.85 C 1578.93 1156.15 1593.92 1143.78 1598.54 1122.08 L 1599.32 1118.52 C 1599.84 1116.19 1599.29 1117.28 1601.23 1115.59 L 1602.67 1116.08 L 1603.13 1118.05 C 1601.81 1120.99 1599.75 1124.05 1598.7 1126.8 C 1594.73 1137.3 1593.83 1144.71 1586.08 1153.48 C 1588.38 1155.9 1588.42 1156.31 1591.63 1157.41 C 1593.15 1156.73 1594.08 1156.3 1595.55 1155.49 L 1596.75 1154.82 C 1614.9 1161.48 1608.3 1165.94 1615.49 1170.55 C 1624.59 1166.96 1639.1 1136.22 1645.6 1126.56 C 1639.74 1122.14 1607.19 1126.66 1611.84 1101.81 L 1612.1 1100.47 C 1612.93 1096.12 1612.99 1094.27 1615.43 1090.58 C 1608.91 1090.3 1598.12 1090.5 1593.74 1085.41 z"/>
<path transform="translate(0,0)" fill="rgb(173,135,106)" d="M 312.794 864.287 C 344.75 845.383 357.499 839.864 395.972 840.82 C 407.59 841.109 416.575 840.389 429.034 842.019 C 403.822 844.915 344.339 833.895 328.677 862.922 C 327.745 864.65 325.742 868.118 324.192 869.585 C 317.664 874.04 316.074 872.254 311.023 878.573 C 297.17 895.904 292.734 913.313 287.934 934.312 C 284.979 947.236 290.463 976.037 285.851 981.992 C 273.327 980.814 242.624 968.267 231.658 968.343 C 220.053 968.774 202.24 964.53 195.336 965.835 L 194.367 967.38 C 196.011 968.146 197.283 968.795 198.995 969.403 L 198.952 971.186 L 196.045 971.206 L 193.317 970.708 C 182.986 966.883 167.246 966.24 156.141 966.208 L 161.212 960.76 C 165.145 961.06 172.403 960.042 176.246 959.282 C 193.462 957.433 252.218 961.886 263.384 973.752 L 264.02 974.171 C 269.937 969.789 278.335 974.672 283.798 977.446 C 275.172 930.547 290.309 902.636 312.794 864.287 z"/>
<path transform="translate(0,0)" fill="rgb(199,160,146)" d="M 161.212 960.76 C 165.145 961.06 172.403 960.042 176.246 959.282 C 186.461 962.537 218.17 965.719 229.549 965.561 C 230.548 965.817 231.548 966.073 232.547 966.329 L 237.615 967.748 L 231.658 968.343 C 220.053 968.774 202.24 964.53 195.336 965.835 L 194.367 967.38 C 196.011 968.146 197.283 968.795 198.995 969.403 L 198.952 971.186 L 196.045 971.206 L 193.317 970.708 C 182.986 966.883 167.246 966.24 156.141 966.208 L 161.212 960.76 z"/>
<path transform="translate(0,0)" fill="rgb(171,187,176)" d="M 1815.86 972.88 C 1820.16 969.413 1822.07 970.952 1827.08 972.498 L 1828.56 972.964 C 1830.87 973.712 1832.29 974.465 1834.48 975.538 C 1837.19 975.115 1837.12 975.306 1839.16 973.534 C 1833.15 984.661 1843.71 987.358 1849.83 996.847 C 1849.85 1002.98 1850.15 1011.95 1849.79 1017.85 C 1848.99 1024.12 1849.01 1026.56 1845.02 1031.57 L 1843.17 1030.01 L 1844.74 1027.63 C 1822.47 1030.6 1784.43 1025.26 1765.27 1014.32 C 1767.16 1012.96 1775.62 1016.72 1778.37 1017.69 C 1801.59 1025.93 1817.46 1026.89 1841.47 1026.51 C 1839.06 1022.24 1837.06 1017.87 1834.69 1013.56 C 1830.47 1005.86 1825.29 1015.44 1814.55 1013.26 C 1811.45 1011.31 1811.64 1011.49 1810.18 1008.14 C 1810.6 999.286 1816.24 1001.22 1821.56 993.542 C 1821.74 985.216 1812.04 982.801 1815.86 972.88 z"/>
<path transform="translate(0,0)" fill="rgb(151,169,166)" d="M 1835.12 1008.63 C 1840.72 1015.87 1839.81 1017.86 1849.79 1017.85 C 1848.99 1024.12 1849.01 1026.56 1845.02 1031.57 L 1843.17 1030.01 L 1844.74 1027.63 L 1845.15 1025.91 C 1839.81 1020.33 1837.81 1015.55 1835.12 1008.63 z"/>
<path transform="translate(0,0)" fill="rgb(151,169,166)" d="M 1815.86 972.88 C 1820.16 969.413 1822.07 970.952 1827.08 972.498 C 1824.33 975.534 1820.91 976.232 1816.82 975.58 L 1815.86 972.88 z"/>
<path transform="translate(0,0)" fill="rgb(235,210,195)" d="M 143.37 1003.02 C 145.751 988.072 145.72 977.513 156.141 966.208 C 167.246 966.24 182.986 966.883 193.317 970.708 L 193 971.526 C 191.282 976.077 190.059 983.833 187.558 986.572 C 184.665 987.567 183.24 986.85 180.256 986.078 C 160.49 994.815 180.829 1003.18 143.37 1003.02 z"/>
<path transform="translate(0,0)" fill="rgb(209,173,146)" d="M 198.995 969.403 C 208.419 978.563 199.41 991.796 192.022 999.158 C 181.694 1009.45 166.339 1014.94 151.866 1014.55 L 150.42 1015.74 C 154.664 1019.97 162.474 1025.8 165.139 1030.06 C 164.932 1031.85 165.294 1031.74 164.435 1032.71 C 161.673 1026.13 151.259 1021.5 145.918 1012.36 L 144.949 1010.14 C 144.342 1008.29 143.787 1005.03 143.37 1003.02 C 180.829 1003.18 160.49 994.815 180.256 986.078 C 183.24 986.85 184.665 987.567 187.558 986.572 C 190.059 983.833 191.282 976.077 193 971.526 L 193.317 970.708 L 196.045 971.206 L 198.952 971.186 L 198.995 969.403 z"/>
<path transform="translate(0,0)" fill="rgb(199,160,146)" d="M 144.949 1010.14 C 157.291 1009.65 162.197 1010.19 173.766 1006.11 L 174.782 1006.63 C 167.371 1014.29 156.529 1011.01 145.918 1012.36 L 144.949 1010.14 z"/>
<path transform="translate(0,0)" fill="rgb(197,186,163)" d="M 198.952 971.186 C 202.079 976.6 200.398 980.014 198.946 986.256 C 198.599 985.843 195.977 971.619 196.045 971.206 L 198.952 971.186 z"/>
<path transform="translate(0,0)" fill="rgb(188,141,126)" d="M 1029 931.143 C 1034.93 935.531 1042.71 943.442 1047.08 949.377 C 1059.5 966.255 1061.64 975.121 1058.97 995.347 C 1067.55 987.88 1102.23 963.56 1112.15 973.158 C 1113.45 976.017 1112.76 977.658 1112.21 980.838 L 1111.97 982.144 C 1114.12 983.844 1120.09 979.771 1122.24 981.148 C 1129.37 985.713 1124.67 1005.19 1122.79 1011.13 C 1117.35 1028.35 1106.24 1036.39 1091.52 1044.3 C 1095.71 1045.77 1106.69 1049.16 1108.24 1052.69 C 1115.05 1068.23 1094.57 1088.07 1082.18 1093.6 C 1066.89 1100.43 1055.69 1099.25 1041.32 1094.36 C 1033.8 1103.91 1054.81 1145.93 1060.22 1155.57 C 1046.21 1174.44 1043.56 1167.11 1037.71 1147.74 C 1035.84 1141.55 1034.02 1135.4 1031.37 1129.47 C 1027.97 1127.21 1021.88 1122.41 1018.18 1122.35 C 1016.82 1122.62 1015.45 1122.82 1014.07 1122.94 C 1000.47 1124.04 987.801 1116.22 978.027 1107.6 C 974.736 1104.09 973.156 1103.7 968.581 1102.29 C 954.573 1097.98 951.067 1091.47 944.774 1079.14 C 950.493 1068.58 954.676 1066.34 964.614 1060.33 C 946.845 1056.67 931.686 1050.51 922.644 1033.26 C 919.581 1027.42 915.475 1011.71 917.376 1005.41 C 920.754 1003.24 923.37 1003.91 927.976 1003.6 L 928.301 1002.22 C 927.731 1001.09 925.693 997.188 925.48 996.239 C 923.005 985.232 946.843 988.228 951.55 988.798 C 965.449 990.481 976.491 996.513 987.46 1004.39 C 980.454 983.7 984.985 964.188 995.49 945.484 C 998.799 939.593 1001.97 933.657 1009.56 934.521 C 1013.46 937.171 1015.84 941.507 1018.56 945.511 C 1022.23 939.984 1024.7 936.206 1029 931.143 z"/>
<path transform="translate(0,0)" fill="url(#Gradient8)" d="M 947.501 1077.72 C 948.069 1076.93 948.648 1076.15 949.24 1075.38 C 959.956 1061.5 984.912 1055.78 1001.13 1051.32 C 1005.93 1050 1017.78 1045.42 1021.65 1048.56 L 1020.94 1050.33 C 1017.78 1052.23 1015.39 1053.53 1015.38 1057.48 L 1017.13 1058.27 C 1018.44 1056.75 1019.72 1055.2 1020.97 1053.62 C 1029.21 1054.76 1028.27 1069.25 1027.8 1075.54 C 1027.34 1081.75 1025.4 1084.69 1020.77 1088.6 C 1013.77 1090.22 1003.64 1090.23 998.872 1091.59 C 992.702 1087.81 986.14 1084.71 979.302 1082.35 C 974.877 1083.56 969.711 1085.87 965.387 1087.62 L 960.397 1076.95 L 947.501 1077.72 z"/>
<path transform="translate(0,0)" fill="url(#Gradient7)" d="M 1049.29 1045.98 C 1070.31 1045.79 1086.64 1044.27 1106.16 1052.87 L 1097.01 1058.74 C 1096.99 1063.06 1097.09 1067.91 1096.87 1072.19 C 1093.18 1070.75 1085.83 1067.24 1082.98 1069.77 C 1068.73 1082.43 1076.88 1086.09 1056.09 1089.2 C 1050.11 1087.35 1043.98 1087.88 1037.69 1087.97 L 1036.67 1087.87 L 1030.03 1081.37 C 1030.53 1077.35 1030.56 1075.63 1030.51 1071.56 C 1031.49 1068.59 1032.17 1065.47 1032.91 1062.42 C 1035.55 1061.52 1043.37 1057.15 1045.75 1055.27 C 1049.34 1052.44 1049.05 1050.13 1049.29 1045.98 z"/>
<path transform="translate(0,0)" fill="rgb(170,126,100)" d="M 1020.77 1089.82 C 1025.94 1087.88 1025.09 1084.64 1031.56 1083.95 C 1036.52 1088.02 1030.58 1108.62 1037.31 1115.5 C 1037.78 1107.57 1030.59 1093.81 1036.67 1087.87 L 1037.69 1087.97 C 1039.44 1089.68 1041.41 1091.81 1043.35 1093.21 L 1041.32 1094.36 C 1033.8 1103.91 1054.81 1145.93 1060.22 1155.57 C 1046.21 1174.44 1043.56 1167.11 1037.71 1147.74 C 1035.84 1141.55 1034.02 1135.4 1031.37 1129.47 C 1027.97 1127.21 1021.88 1122.41 1018.18 1122.35 C 1016.82 1122.62 1015.45 1122.82 1014.07 1122.94 C 1000.47 1124.04 987.801 1116.22 978.027 1107.6 C 980.822 1105.71 982.485 1105.86 985.832 1105.52 C 993.597 1106.68 1000.2 1102.78 1008.6 1102.03 L 1007.92 1099.99 C 1014.89 1097.12 1016.36 1095.91 1020.77 1089.82 z"/>
<path transform="translate(0,0)" fill="rgb(189,192,131)" d="M 1008.6 1102.03 L 1012.71 1103.45 L 1013.78 1102.88 C 1023.09 1105.96 1022.39 1108.99 1029.06 1115.9 L 1029.05 1116.94 C 1024.06 1116.17 1022.89 1116.23 1018.02 1117.57 C 1015.76 1116.33 1015.23 1115.05 1013.73 1112.89 L 1011.7 1112.6 L 1010.41 1113.67 C 1011.09 1115.93 1010.67 1115.29 1012.02 1117.12 L 1014.67 1118.8 C 1013.56 1120.78 1014.27 1119.87 1011.75 1121.05 C 1012.48 1121.45 1012.1 1121.27 1012.89 1121.59 L 1013.94 1120.84 L 1014.46 1120.85 L 1015.62 1122.38 L 1018.18 1122.35 C 1016.82 1122.62 1015.45 1122.82 1014.07 1122.94 C 1000.47 1124.04 987.801 1116.22 978.027 1107.6 C 980.822 1105.71 982.485 1105.86 985.832 1105.52 C 993.597 1106.68 1000.2 1102.78 1008.6 1102.03 z"/>
<path transform="translate(0,0)" fill="url(#Gradient6)" d="M 978.027 1107.6 C 980.822 1105.71 982.485 1105.86 985.832 1105.52 C 986.579 1106.07 989.931 1108.66 990.527 1108.88 C 993.931 1111.42 995.604 1111.51 999.838 1112.61 C 1003.76 1113.77 1009.04 1116.41 1012.02 1117.12 L 1014.67 1118.8 C 1013.56 1120.78 1014.27 1119.87 1011.75 1121.05 C 1012.48 1121.45 1012.1 1121.27 1012.89 1121.59 L 1013.94 1120.84 L 1014.46 1120.85 L 1015.62 1122.38 L 1018.18 1122.35 C 1016.82 1122.62 1015.45 1122.82 1014.07 1122.94 C 1000.47 1124.04 987.801 1116.22 978.027 1107.6 z"/>
<path transform="translate(0,0)" fill="rgb(166,154,107)" d="M 990.527 1108.88 C 995.951 1106.99 1002.92 1105.47 1007.79 1109.28 C 1006.51 1112.6 1003.22 1112.21 999.838 1112.61 C 995.604 1111.51 993.931 1111.42 990.527 1108.88 z"/>
<path transform="translate(0,0)" fill="rgb(242,237,214)" d="M 1013.78 1102.88 L 1013.2 1100.7 C 1016.67 1097.41 1021.84 1094.67 1026.03 1092.17 C 1027.13 1100.07 1028.14 1107.98 1029.06 1115.9 C 1022.39 1108.99 1023.09 1105.96 1013.78 1102.88 z"/>
<path transform="translate(0,0)" fill="rgb(195,155,131)" d="M 1052.52 1150.42 C 1055.07 1151.57 1054.02 1150.79 1055.53 1153 C 1054.84 1156 1051.13 1158.7 1048.65 1160.96 L 1047.42 1161.59 L 1047.19 1159.74 C 1048.95 1155.04 1049.42 1154.39 1052.52 1150.42 z"/>
<path transform="translate(0,0)" fill="rgb(235,210,195)" d="M 1007.92 1099.99 C 990.934 1102.72 969.175 1105.82 956.036 1091.39 C 953.582 1088.7 949.828 1084.58 950.002 1080.95 C 952.555 1079.26 954.41 1079.58 957.503 1079.54 C 961.315 1082.02 958.793 1085.5 963.506 1091.19 C 966.109 1092.05 973.125 1088.31 975.87 1086.84 C 985.057 1081.91 991.248 1094.71 998.872 1091.59 C 1003.64 1090.23 1013.77 1090.22 1020.77 1088.6 L 1020.77 1089.82 C 1016.36 1095.91 1014.89 1097.12 1007.92 1099.99 z"/>
<path transform="translate(0,0)" fill="rgb(235,210,195)" d="M 1083.63 1069.87 C 1088.63 1071.08 1093.27 1073.26 1098.35 1073.64 L 1100.04 1071.82 L 1101.3 1072.09 C 1090.54 1093.66 1064.97 1098.56 1043.35 1093.21 C 1041.41 1091.81 1039.44 1089.68 1037.69 1087.97 C 1043.98 1087.88 1050.11 1087.35 1056.09 1089.2 L 1057.99 1090.4 C 1065.01 1090.18 1068.56 1088.38 1074.84 1085.19 C 1077.99 1080.1 1080.74 1075.11 1083.63 1069.87 z"/>
<path transform="translate(0,0)" fill="rgb(236,183,175)" d="M 1037.69 1056.56 C 1037.29 1051.95 1034.13 1053.03 1037.69 1047.13 C 1041.2 1045.42 1045.29 1045.93 1049.29 1045.98 C 1049.05 1050.13 1049.34 1052.44 1045.75 1055.27 C 1043.37 1057.15 1035.55 1061.52 1032.91 1062.42 C 1032.17 1065.47 1031.49 1068.59 1030.51 1071.56 C 1029.55 1064.85 1029.2 1055.32 1024.44 1051.19 C 1023.36 1050.26 1023.81 1050.41 1023.83 1048.5 C 1027.42 1047.76 1032.14 1053.42 1036.86 1056.1 L 1037.69 1056.56 z"/>
<path transform="translate(0,0)" fill="rgb(235,210,195)" d="M 1100.04 1071.82 C 1099.79 1067.16 1099.03 1064.19 1101.51 1060.4 L 1103.41 1059.23 C 1106.4 1062.54 1103.1 1068.37 1101.3 1072.09 L 1100.04 1071.82 z"/>
<path transform="translate(0,0)" fill="rgb(242,237,214)" d="M 1028.26 934.029 C 1034.18 938.811 1039.56 944.225 1044.3 950.177 C 1056.49 965.513 1058.78 978.557 1056.55 997.201 L 1049.9 1005.88 C 1047.87 1008.41 1044.07 1013.99 1041.39 1014.87 L 1039.73 1013.5 L 1039.55 1008.66 L 1036.76 1008.93 C 1032.51 1017.76 1015.82 1005.71 1007.88 1020.39 L 1006.11 1020.42 C 1003.71 1017.27 1005.19 1018.16 1001.97 1017.05 L 1001.06 1018.41 L 999.822 1018.26 C 992.428 1008.91 986.227 999.448 986.41 987.29 C 986.734 965.897 992.584 950.443 1007.46 935.415 C 1011.57 940.155 1014.73 946.681 1021.17 945.559 C 1024.81 942.486 1026.17 938.434 1028.26 934.029 z"/>
<path transform="translate(0,0)" fill="rgb(235,210,195)" d="M 1001.97 1017.05 C 1003.22 1015.41 1003.62 1013.79 1005.81 1013.92 C 1021.54 1014.82 1010.36 1004.87 1016.14 997.937 C 1019.16 996.996 1018.99 997.14 1022.12 997.822 C 1023.69 1000.7 1022.82 1004.26 1022.82 1008.26 L 1024.45 1009.02 C 1030.58 1006.2 1027.6 1000.96 1034.57 995.332 C 1043.17 993.27 1044.29 1001.25 1049.9 1005.88 C 1047.87 1008.41 1044.07 1013.99 1041.39 1014.87 L 1039.73 1013.5 L 1039.55 1008.66 L 1036.76 1008.93 C 1032.51 1017.76 1015.82 1005.71 1007.88 1020.39 L 1006.11 1020.42 C 1003.71 1017.27 1005.19 1018.16 1001.97 1017.05 z"/>
<path transform="translate(0,0)" fill="rgb(242,237,214)" d="M 933.418 1006.69 C 931.944 1003.76 928.269 997.523 928.459 994.685 C 933.701 987.343 946.772 991.004 954.541 992.351 C 970.197 995.067 986.761 1003.28 995.777 1016.77 C 998.408 1021.46 1000.53 1027.02 1004.36 1030.14 C 1010.57 1031.57 1010.93 1035.28 1011.97 1041.28 L 1009.16 1043.78 L 1009.63 1046.1 C 1006.02 1049.14 990.372 1052.2 985.101 1053.3 C 979.436 1054.63 974.328 1055.92 968.542 1056.72 C 966.698 1055.94 963.919 1054.64 962.125 1054.01 C 963.475 1055.62 963.102 1054.67 963.146 1056.87 C 945.804 1056.79 913.449 1030.73 921.531 1012.98 C 920.938 1008.19 920.268 1010.05 922.449 1006.84 C 926.39 1005.55 929.24 1006.66 933.418 1006.69 z"/>
<path transform="translate(0,0)" fill="rgb(235,210,195)" d="M 921.531 1012.98 C 930.09 1025.32 936.125 1034.63 947.665 1044.75 C 952.064 1047.6 957.685 1051.65 962.125 1054.01 C 963.475 1055.62 963.102 1054.67 963.146 1056.87 C 945.804 1056.79 913.449 1030.73 921.531 1012.98 z"/>
<path transform="translate(0,0)" fill="rgb(199,160,146)" d="M 921.531 1012.98 C 930.09 1025.32 936.125 1034.63 947.665 1044.75 L 945.722 1045.1 C 936.771 1039.5 925.235 1023.05 921.531 1012.98 z"/>
<path transform="translate(0,0)" fill="rgb(226,186,156)" d="M 995.777 1016.77 C 998.408 1021.46 1000.53 1027.02 1004.36 1030.14 C 1010.57 1031.57 1010.93 1035.28 1011.97 1041.28 L 1009.16 1043.78 C 1003.95 1041.46 1000.8 1039.68 995.023 1039.32 C 992.377 1037.54 992.043 1037.54 990.148 1034.87 C 990.47 1031.27 990.782 1032.01 993.578 1028.6 L 995.327 1026.78 C 996.766 1022.53 996.306 1021.4 995.777 1016.77 z"/>
<path transform="translate(0,0)" fill="rgb(235,210,195)" d="M 995.777 1016.77 C 998.408 1021.46 1000.53 1027.02 1004.36 1030.14 C 1005.94 1033.3 1007.12 1034.42 1005.43 1037.47 C 1000.65 1037.73 996.414 1031.94 993.578 1028.6 L 995.327 1026.78 C 996.766 1022.53 996.306 1021.4 995.777 1016.77 z"/>
<path transform="translate(0,0)" fill="rgb(235,210,195)" d="M 995.023 1039.32 C 1000.8 1039.68 1003.95 1041.46 1009.16 1043.78 L 1009.63 1046.1 C 1006.02 1049.14 990.372 1052.2 985.101 1053.3 C 989.488 1049.58 997.823 1048.22 1000.18 1042.55 C 998.63 1041.3 998.052 1041.54 996.071 1041.13 L 995.023 1039.32 z"/>
<path transform="translate(0,0)" fill="rgb(242,237,214)" d="M 1052.94 1032.23 C 1055.8 1029 1055.18 1030.78 1055.4 1026.93 L 1054.19 1026.62 L 1047.64 1032.63 L 1046.84 1032.36 C 1047.77 1026.17 1047.87 1025.15 1050.81 1019.68 C 1050.11 1014.73 1048.04 1011.82 1051.07 1007.36 C 1059.44 995.006 1092.97 970.322 1107.92 973.416 C 1112.14 976.956 1110.59 978.378 1109.06 983.609 L 1109.85 985.515 C 1112.93 986.077 1114.11 985.666 1117.15 985.129 L 1118.77 986.174 C 1118.92 990.928 1115.71 997.211 1114.17 1001.84 C 1107.76 1021.06 1098.5 1034.12 1080.46 1043.86 C 1073.67 1043.38 1067.9 1043.11 1061.1 1043.03 C 1054.81 1044.39 1046.12 1044.11 1039.49 1044.13 C 1044.97 1038.31 1046.36 1036.73 1052.94 1032.23 z"/>
<path transform="translate(0,0)" fill="rgb(236,183,175)" d="M 1039.49 1044.13 C 1044.97 1038.31 1046.36 1036.73 1052.94 1032.23 L 1050.44 1036.63 C 1052.66 1040.85 1056.03 1041.35 1061.1 1043.03 C 1054.81 1044.39 1046.12 1044.11 1039.49 1044.13 z"/>
<path transform="translate(0,0)" fill="url(#Gradient5)" d="M 1121.99 988.09 C 1124.08 991.361 1122.31 998.729 1121.63 1002.64 C 1118 1023.69 1109.52 1029.4 1093.52 1040.5 L 1092.51 1039.06 C 1114.47 1017.08 1109.69 1015.15 1121.99 988.09 z"/>
<path transform="translate(0,0)" fill="rgb(195,155,131)" d="M 320.872 1001.94 C 319.462 1000.08 318.115 998.167 316.833 996.214 C 307.189 981.239 306.713 941.438 322.574 931.688 C 325.586 931.858 331.452 936.646 334.484 938.509 C 338.182 933.933 335.384 927.528 341.318 924.805 C 344.241 925.083 347.269 926.713 349.789 928.296 C 373.999 943.499 377.564 948.003 384.681 973.823 L 385.863 973.898 C 386.594 972.672 387.375 971.476 388.203 970.313 C 393.933 962.15 419.144 934.781 430.038 942.893 C 430.518 946.232 430.414 947.835 430.329 951.139 C 433.253 952.264 447.73 934.657 448.084 970.51 C 448.289 991.272 439.975 1000.01 426.692 1013.82 C 433.389 1014.13 439.112 1013.83 445.024 1016.94 C 448.104 1020.33 447.823 1022.95 447.734 1027.31 C 447.313 1047.69 433.752 1062.78 415.444 1069.93 C 405.6 1073.78 399.588 1073.39 389.31 1073 C 395.144 1084.83 400.821 1097.82 409.198 1107.97 C 413.866 1113.18 419.298 1117.92 424.273 1123.42 C 422.83 1128.14 421.076 1133.46 417.422 1136.74 C 415.575 1137.21 413.522 1137.95 411.913 1136.26 C 398.008 1121.64 398.463 1110.25 377.977 1102.29 C 353.417 1115.24 341.712 1095.2 318.518 1095.41 C 310.4 1095.49 302.224 1086.52 297.55 1080.76 C 300.973 1069.8 302.166 1068.49 310.272 1060.27 C 284.577 1059.23 264.049 1052.75 255.092 1024.2 C 253.143 1017.99 260.686 1018.51 263.6 1015.1 C 261.397 1012.1 259.073 1009.89 259.123 1006.36 C 269.851 990.472 305.575 997.073 320.872 1001.94 z"/>
<path transform="translate(0,0)" fill="url(#Gradient4)" d="M 389.382 1024.61 C 398.381 1021.57 434.363 1012.89 442.117 1018.09 C 434.582 1024.27 436.519 1023.67 437.367 1031.9 C 438.196 1039.94 427.115 1036.05 425.258 1038.31 C 419.7 1045.07 420.412 1053.13 413.79 1059.88 C 403.682 1062.76 396.273 1065.38 385.74 1066.29 C 382.55 1065.03 380.767 1063.69 377.854 1061.89 L 377.791 1061.35 C 373.664 1032.14 364.762 1050.46 389.382 1024.61 z"/>
<path transform="translate(0,0)" fill="rgb(235,210,195)" d="M 320.289 1083.93 C 307.016 1069.2 310.731 1078.76 301.983 1075.84 C 302.153 1066.16 330.907 1048.22 339.103 1044.71 C 342.873 1043.1 352.252 1049.06 355.873 1051.04 L 356.855 1050.7 L 357.387 1048.93 L 356.46 1048.23 C 355.637 1049.58 355.992 1048.81 355.434 1050.58 C 350.539 1045.66 344.758 1044.51 344.032 1043.76 C 352.842 1036.43 352.825 1044.84 361.241 1043.27 C 363.948 1040.42 364.243 1035.64 365.453 1031.36 C 369.101 1033.93 369.579 1034.36 372.247 1037.93 L 371.625 1038.51 L 368.061 1036.21 L 366.964 1036.98 C 368.616 1046.41 373.542 1049.61 374.915 1061.1 L 375.226 1063.93 L 369.867 1070.1 L 361.738 1075.94 C 340.297 1082.07 337.464 1066.56 320.289 1083.93 z"/>
<path transform="translate(0,0)" fill="rgb(173,135,106)" d="M 377.791 1061.35 L 377.854 1061.89 C 380.767 1063.69 382.55 1065.03 385.74 1066.29 L 386.345 1067.47 L 387.865 1069.79 L 389.31 1073 C 395.144 1084.83 400.821 1097.82 409.198 1107.97 C 413.866 1113.18 419.298 1117.92 424.273 1123.42 C 422.83 1128.14 421.076 1133.46 417.422 1136.74 C 415.575 1137.21 413.522 1137.95 411.913 1136.26 C 398.008 1121.64 398.463 1110.25 377.977 1102.29 C 377.15 1099.12 381.179 1095.77 383.251 1093.23 L 383.525 1091.8 C 381.375 1091.4 372.091 1084.58 368.208 1082.47 C 372.024 1078.72 372.902 1078.03 375.179 1073.25 L 374.549 1071.62 C 375.503 1067.98 375.828 1067.72 375.226 1063.93 L 374.915 1061.1 L 377.791 1061.35 z"/>
<path transform="translate(0,0)" fill="rgb(170,126,100)" d="M 386.427 1079.99 C 385.346 1076.51 383.397 1071.67 383.82 1068.24 L 386.345 1067.47 L 387.865 1069.79 L 389.31 1073 C 395.144 1084.83 400.821 1097.82 409.198 1107.97 L 409.314 1110.83 L 407.786 1111.1 C 397.337 1105.6 392.514 1090.04 386.427 1079.99 z"/>
<path transform="translate(0,0)" fill="rgb(242,237,214)" d="M 375.179 1073.25 L 383.525 1091.8 C 381.375 1091.4 372.091 1084.58 368.208 1082.47 C 372.024 1078.72 372.902 1078.03 375.179 1073.25 z"/>
<path transform="translate(0,0)" fill="rgb(209,173,146)" d="M 377.854 1061.89 C 380.767 1063.69 382.55 1065.03 385.74 1066.29 L 386.345 1067.47 L 383.82 1068.24 C 383.397 1071.67 385.346 1076.51 386.427 1079.99 L 385.156 1080.35 C 376.809 1074.94 380.249 1068.58 377.854 1061.89 z"/>
<path transform="translate(0,0)" fill="rgb(235,210,195)" d="M 369.867 1070.1 L 375.226 1063.93 C 375.828 1067.72 375.503 1067.98 374.549 1071.62 L 375.179 1073.25 C 372.902 1078.03 372.024 1078.72 368.208 1082.47 L 364.629 1082.54 L 364.144 1082.76 C 349.474 1090.15 320.939 1101.9 308.477 1085.76 C 305.961 1084.94 306.754 1085.33 304.479 1083.8 C 304.117 1080.47 304.079 1080.7 305.243 1077.56 C 311.33 1075.34 315.516 1085.3 321.09 1086.37 C 326.885 1081.53 330.07 1078.94 337.889 1078.81 C 344.192 1078.7 358.684 1083.44 361.738 1075.94 L 369.867 1070.1 z"/>
<path transform="translate(0,0)" fill="rgb(195,155,131)" d="M 369.867 1070.1 L 375.226 1063.93 C 375.828 1067.72 375.503 1067.98 374.549 1071.62 L 375.179 1073.25 C 372.902 1078.03 372.024 1078.72 368.208 1082.47 L 364.629 1082.54 C 368.499 1078.12 372.609 1075.71 369.867 1070.1 z"/>
<path transform="translate(0,0)" fill="rgb(235,210,195)" d="M 440.332 1035.19 L 443.274 1035.63 C 438.327 1063.56 412.415 1070.84 387.865 1069.79 L 386.345 1067.47 L 385.74 1066.29 C 396.273 1065.38 403.682 1062.76 413.79 1059.88 C 415.241 1060.55 414.525 1060.28 416.696 1059.7 C 420.033 1056.38 424.788 1044.34 427.021 1039.41 C 434.615 1040.09 436.7 1042.02 440.332 1035.19 z"/>
<path transform="translate(0,0)" fill="rgb(196,196,144)" d="M 364.629 1082.54 L 368.208 1082.47 C 372.091 1084.58 381.375 1091.4 383.525 1091.8 L 383.251 1093.23 C 379.058 1095.82 375.712 1097.42 372.332 1101.01 C 366.337 1100.4 366.94 1098.78 363.013 1098.02 L 360.971 1094.1 C 363.815 1094.54 366.366 1095.1 368.438 1092.95 C 365.658 1090.27 365.192 1091.06 360.401 1090.37 C 363.434 1086.68 364.05 1086.72 364.144 1082.76 L 364.629 1082.54 z"/>
<path transform="translate(0,0)" fill="rgb(196,196,144)" d="M 363.013 1098.02 C 362.619 1099.53 362.965 1099.84 363.352 1101.33 C 358.093 1103.55 343.273 1100.28 338.365 1096.92 L 338.414 1095.64 C 343.987 1093.46 350.278 1091.51 356.008 1089.6 L 357.181 1090.81 L 360.401 1090.37 C 365.192 1091.06 365.658 1090.27 368.438 1092.95 C 366.366 1095.1 363.815 1094.54 360.971 1094.1 L 363.013 1098.02 z"/>
<path transform="translate(0,0)" fill="rgb(166,154,107)" d="M 360.401 1090.37 C 365.192 1091.06 365.658 1090.27 368.438 1092.95 C 366.366 1095.1 363.815 1094.54 360.971 1094.1 C 357.588 1094.33 359.273 1093.96 355.936 1096.36 C 353.046 1096.42 351.253 1097.07 349.63 1095.65 L 350.255 1095.8 L 350.84 1093.9 C 353.795 1091.74 353.847 1091.86 357.181 1090.81 L 360.401 1090.37 z"/>
<path transform="translate(0,0)" fill="rgb(235,210,195)" d="M 440.332 1035.19 C 439.348 1030.76 438.598 1029.42 440.077 1025.4 L 441.68 1023.91 C 445.643 1026.35 443.859 1031.4 443.274 1035.63 L 440.332 1035.19 z"/>
<path transform="translate(0,0)" fill="rgb(235,210,195)" d="M 340.782 926.029 C 354.927 933.348 372.871 944.89 378.494 960.22 C 384.363 976.22 381.013 982.95 374.839 997.113 L 373.804 1005.41 C 368.626 1007.62 373.499 1004.45 368.661 1005.27 C 368.038 1008.4 367.82 1009.58 366.765 1012.67 L 364.97 1012.85 C 362.112 1008.01 365.005 1001.46 361.988 997.563 C 358.319 997.615 360.161 997.308 356.42 999.72 C 356.279 1004.37 354.022 1003.99 354.165 1008.84 C 353.746 1010.55 354.137 1009.74 352.895 1011.21 L 350.735 1010.18 C 348.702 1006.74 349.221 1008.68 350.154 1003.94 L 349.316 1003.44 L 347.703 1007.39 L 346.118 1007.8 C 340.904 1005.09 343.804 1001.91 337.871 999.897 C 337.541 1003.94 337.635 1002.66 339.994 1006.85 C 340.275 1014.62 345.497 1009.54 342.809 1018.53 C 340.261 1009.88 335.311 1011.24 328.616 1006.65 C 306.303 991.332 310.506 953.662 322.66 933.803 C 327.717 936.882 331.716 941.838 337.217 939.049 C 339.736 935.283 340.012 930.638 340.782 926.029 z"/>
<path transform="translate(0,0)" fill="rgb(226,186,156)" d="M 360.918 992.837 C 361.265 988.382 360.36 990.027 362.684 987.205 C 367.319 987.544 371.558 993.44 374.839 997.113 L 373.804 1005.41 C 368.626 1007.62 373.499 1004.45 368.661 1005.27 C 368.038 1008.4 367.82 1009.58 366.765 1012.67 L 364.97 1012.85 C 362.112 1008.01 365.005 1001.46 361.988 997.563 C 358.319 997.615 360.161 997.308 356.42 999.72 C 356.279 1004.37 354.022 1003.99 354.165 1008.84 C 353.746 1010.55 354.137 1009.74 352.895 1011.21 L 350.735 1010.18 C 348.702 1006.74 349.221 1008.68 350.154 1003.94 L 349.316 1003.44 L 347.703 1007.39 L 346.118 1007.8 C 340.904 1005.09 343.804 1001.91 337.871 999.897 C 340.149 998.107 339.187 998.54 342.099 998.179 C 344.694 999.19 345.86 999.565 348.557 1000.26 L 347.161 997.636 L 348.523 999.082 C 345.251 996.212 345.269 997.072 344.029 993.506 L 345.247 991.489 C 348.716 989.871 347.002 990.016 350.536 990.754 C 353.302 993.601 353.309 994.892 354.305 998.702 C 358.452 996.102 359.992 996.357 360.918 992.837 z"/>
<path transform="translate(0,0)" fill="rgb(235,210,195)" d="M 282.632 999.341 C 297.544 998.13 319.693 999.515 331.183 1011.34 C 338.895 1019.28 329.914 1023.09 329.589 1028.6 C 334.507 1033.5 341.75 1030.84 350.906 1034.22 L 350.887 1034.86 C 337.306 1039.22 337.209 1042.47 325.762 1049.99 C 301.08 1060.52 272.506 1040.79 258.574 1021.16 C 261.994 1019.97 266.013 1018.86 269.523 1017.8 L 261.346 1007.18 C 269.974 1002.23 273.019 1000.92 282.632 999.341 z"/>
<path transform="translate(0,0)" fill="rgb(235,210,195)" d="M 424.871 942.982 C 426.828 944.132 426.163 943.681 427.652 945.544 C 427.783 949.245 427.146 953.213 430.858 954.696 L 435.641 952.216 L 437.066 952.803 C 444.055 971.67 430.405 1000.76 417.891 1015.22 C 413.538 1016.16 401.468 1019.41 398.03 1017.86 L 397.139 1014.82 L 395.787 1014.51 L 395.807 1018.74 L 394.67 1019.81 C 391.847 1019.05 392.956 1019.81 391.25 1017.41 C 390.288 1009.48 388.827 1006.6 392.639 1000.46 C 391.098 996.899 390.327 994.228 388.371 990.352 C 389.066 993.67 389.504 992.629 388.503 994.992 L 385.303 995.599 C 385.4 1001.7 384.653 1005.07 383.607 1010.98 L 382.181 1011.87 C 380.27 1008.19 380.834 1009.45 381.59 1004.5 C 380.193 1001.27 381.319 1002.52 377.768 1000.95 L 377.454 999.382 L 380.093 996.896 C 382.891 971.598 403.49 953.784 424.871 942.982 z"/>
<path transform="translate(0,0)" fill="rgb(209,173,146)" d="M 337.871 999.897 C 343.804 1001.91 340.904 1005.09 346.118 1007.8 L 347.703 1007.39 L 349.316 1003.44 L 350.154 1003.94 C 349.221 1008.68 348.702 1006.74 350.735 1010.18 L 352.895 1011.21 C 354.137 1009.74 353.746 1010.55 354.165 1008.84 C 356.686 1012.79 357.112 1013.44 361.064 1015.91 L 361.145 1017.63 L 358.353 1020.29 L 359.814 1023.47 C 356.45 1026.65 355.2 1023.85 351.959 1027.08 C 354.297 1030.05 358.056 1027.36 357.168 1029.93 C 356.838 1030.89 357.876 1032.49 358.476 1033.5 C 355.347 1033.59 344.093 1031.41 341.068 1030.34 L 341.669 1028.96 C 345.017 1029.03 345.61 1029.14 348.757 1029.74 L 350.034 1028.68 C 348.192 1025.95 346.433 1025.87 342.93 1024.2 L 342.098 1023.38 C 342.39 1021.69 342.602 1020.23 342.809 1018.53 C 345.497 1009.54 340.275 1014.62 339.994 1006.85 C 337.635 1002.66 337.541 1003.94 337.871 999.897 z"/>
<path transform="translate(0,0)" fill="rgb(226,186,156)" d="M 339.994 1006.85 C 342.474 1008.49 343.832 1009.29 346.027 1011.38 C 345.914 1016.02 345.396 1013.88 347.81 1018 L 351.889 1020.37 L 351.247 1022.06 C 346.007 1024.1 348.554 1023.06 343.325 1022.6 L 342.93 1024.2 L 342.098 1023.38 C 342.39 1021.69 342.602 1020.23 342.809 1018.53 C 345.497 1009.54 340.275 1014.62 339.994 1006.85 z"/>
<path transform="translate(0,0)" fill="rgb(235,210,195)" d="M 263.95 1034.9 C 267.637 1035.16 284.329 1046.66 289.615 1049.1 C 294.536 1051.37 299.617 1053.69 304.924 1055.84 C 287.345 1054.91 272.528 1052.05 263.95 1034.9 z"/>
<path transform="translate(0,0)" fill="rgb(209,173,146)" d="M 370.908 1014.07 C 373.296 1018.08 372.508 1022.64 370.584 1026.83 C 370.009 1028.09 366.75 1028.44 365.262 1028.82 C 363.584 1027.59 364.338 1028.31 363.446 1026.05 C 366.056 1021.13 367.317 1018.47 370.908 1014.07 z"/>
<path transform="translate(0,0)" fill="rgb(226,186,156)" d="M 376.255 1000.55 C 376.926 1001.36 377.843 1001.74 378.755 1002.24 C 381.168 1006.67 380.194 1009.05 379.248 1014 C 377.776 1012.87 376.312 1011.74 374.858 1010.59 C 373.771 1006.1 374.814 1005.39 376.255 1000.55 z"/>
<path transform="translate(0,0)" fill="rgb(199,160,146)" d="M 699.615 917.92 L 702.918 919.215 C 706.35 915.028 703.143 904.849 707.507 896.335 C 714.284 883.112 719.941 873.345 733.518 865.68 C 736.681 869.936 738.995 872.835 741.427 877.622 C 743.78 874.64 747.194 869.482 750.41 868.134 C 754.828 869.232 757.296 872.394 759.396 876.486 C 769.52 896.208 772.38 903.38 767.479 924.761 C 776.788 919.459 806.59 904.902 815.14 915.14 C 815.116 918.589 814.427 919.915 813.301 923.122 C 818.152 925.997 821.147 920.457 824.15 926.832 C 821.58 954.109 809.927 964.126 784.909 971.423 C 795.976 976.667 807.577 980.425 797.246 994.497 C 783.026 1013.87 754.116 1022.07 735.13 1004.78 C 733.148 1029.58 734.073 1036.66 742.872 1060.24 C 738.147 1064.21 734.473 1067.36 729.328 1070.78 C 727.479 1064.34 726.537 1059.57 725.658 1052.94 C 724.089 1041.11 725.754 1034.81 715.487 1027.53 C 711.183 1024.41 705.505 1027.08 696.173 1021.35 L 693.722 1019.97 C 685.457 1015.56 685.957 1012.05 680.391 1006.84 C 672.11 999.092 650.323 988.151 662.203 974.123 C 664.78 971.08 671.602 968.117 675.346 966.069 C 661.319 958.731 647.799 950.913 645.504 933.093 C 644.789 927.542 643.857 916.534 647.095 912.022 C 650.899 910.648 650.217 911.319 655.077 912.795 L 655.922 911.708 C 654.546 906.789 653.204 905.361 656.673 901.504 C 668.167 897.327 692.574 907.695 699.343 917.444 L 699.615 917.92 z"/>
<path transform="translate(0,0)" fill="rgb(242,237,214)" d="M 656.44 903.507 C 678.32 904.303 680.98 907.206 699.343 917.444 L 699.615 917.92 C 703.333 922.709 710.31 929.939 710.106 935.471 L 708.354 938.386 C 709.64 942.85 711.173 940.332 712.212 944.604 C 706.462 947.16 709.802 942.48 704.555 946.65 C 703.513 951.552 704.749 951.545 708.449 954.941 C 708.499 965.817 682.606 965.642 674.678 959.121 C 672.836 956.919 672.106 956.461 669.939 954.628 C 660.688 944.473 659.427 941.431 653.544 928.678 C 652.988 926.41 652.257 925.631 651.04 923.588 C 649.258 920.045 649.379 919.92 648.694 915.908 C 651.025 912.062 651.181 916.828 657.675 913.411 C 658.71 909.406 657.579 907.901 656.44 903.507 z"/>
<path transform="translate(0,0)" fill="url(#Gradient3)" d="M 715.449 964.42 C 723.813 962.83 733.807 961.401 741.776 965.326 L 740.32 966.653 C 741.487 969.864 741.72 968.537 740.773 970.977 C 736.728 971.673 733.573 974.827 732.253 978.664 L 731.175 985.352 C 730.424 987.83 729.615 991.031 728.529 993.291 C 725.404 997.361 724.771 997.857 723.167 1002.58 C 723.645 1005.3 723.873 1005.09 723.309 1007.74 C 722.923 1005.59 723.098 1006.36 721.812 1004.4 L 718.786 1003.41 C 719.784 1001 719.619 999.778 719.844 997.118 L 715.542 999.597 C 702.033 997.629 703.678 997.319 691.931 989.561 C 687.892 986.945 684.456 985.776 679.878 987.565 C 672.37 990.498 673.923 985.468 671.62 980.732 C 670.127 977.665 665.07 979.144 662.298 976.806 C 667.732 966.782 705.969 962.388 715.449 964.42 z"/>
<path transform="translate(0,0)" fill="rgb(236,183,175)" d="M 715.449 964.42 C 723.813 962.83 733.807 961.401 741.776 965.326 L 740.32 966.653 C 741.487 969.864 741.72 968.537 740.773 970.977 C 736.728 971.673 733.573 974.827 732.253 978.664 C 732.134 976.011 732.417 974.061 730.818 972.057 C 729.262 975.821 729.642 976.958 729.881 981.182 C 729.48 978.385 729.485 976.452 727.917 974.116 C 722.009 972.326 721.371 973.979 715.036 970.685 L 715.453 970.077 L 720.084 970.305 L 721.396 968.672 C 718.589 964.139 720.412 969.409 715.449 964.42 z"/>
<path transform="translate(0,0)" fill="rgb(199,160,146)" d="M 729.881 981.182 C 729.642 976.958 729.262 975.821 730.818 972.057 C 732.417 974.061 732.134 976.011 732.253 978.664 L 731.175 985.352 C 730.424 987.83 729.615 991.031 728.529 993.291 C 725.404 997.361 724.771 997.857 723.167 1002.58 C 723.645 1005.3 723.873 1005.09 723.309 1007.74 C 722.923 1005.59 723.098 1006.36 721.812 1004.4 L 718.786 1003.41 C 719.784 1001 719.619 999.778 719.844 997.118 C 728.402 997.232 728.85 987.482 729.881 981.182 z"/>
<path transform="translate(0,0)" fill="rgb(242,237,214)" d="M 741.776 965.326 C 744.416 965.758 750.946 967.236 753.054 967.059 L 760.45 969.053 C 775.375 969.934 783.717 973.574 796.953 979.864 C 793.27 982.567 790.8 983.826 789.498 988.248 C 788.833 990.506 787.473 992.804 785.317 993.897 C 781.522 993.525 779.12 991.717 775.765 989.812 C 767.564 998.825 764.841 1004.52 751.758 1003.84 C 750.343 1002.79 738.422 1000.97 735.613 1000.46 L 732.759 999.809 L 728.529 993.291 C 729.615 991.031 730.424 987.83 731.175 985.352 L 732.253 978.664 C 733.573 974.827 736.728 971.673 740.773 970.977 C 741.72 968.537 741.487 969.864 740.32 966.653 L 741.776 965.326 z"/>
<path transform="translate(0,0)" fill="rgb(235,210,195)" d="M 741.776 965.326 C 744.416 965.758 750.946 967.236 753.054 967.059 L 760.45 969.053 C 746.599 973.638 745.174 979.212 734.363 981.887 L 731.175 985.352 L 732.253 978.664 C 733.573 974.827 736.728 971.673 740.773 970.977 C 741.72 968.537 741.487 969.864 740.32 966.653 L 741.776 965.326 z"/>
<path transform="translate(0,0)" fill="rgb(236,183,175)" d="M 741.776 965.326 C 744.416 965.758 750.946 967.236 753.054 967.059 C 750.151 969.75 747.804 972.581 744.009 973.348 C 741.747 972.389 742.454 972.892 740.773 970.977 C 741.72 968.537 741.487 969.864 740.32 966.653 L 741.776 965.326 z"/>
<path transform="translate(0,0)" fill="rgb(173,135,106)" d="M 728.529 993.291 L 732.759 999.809 L 735.13 1004.78 C 733.148 1029.58 734.073 1036.66 742.872 1060.24 C 738.147 1064.21 734.473 1067.36 729.328 1070.78 C 727.479 1064.34 726.537 1059.57 725.658 1052.94 C 724.089 1041.11 725.754 1034.81 715.487 1027.53 L 715.839 1023.07 C 717.826 1020.58 717.137 1021.41 720.098 1019.7 L 722.139 1020.18 C 723.777 1017.08 723.304 1011.5 723.309 1007.74 C 723.873 1005.09 723.645 1005.3 723.167 1002.58 C 724.771 997.857 725.404 997.361 728.529 993.291 z"/>
<path transform="translate(0,0)" fill="rgb(209,173,146)" d="M 733.177 1051.76 C 736.28 1057.02 736.415 1060.8 733.003 1065.77 C 731.44 1063.56 731.174 1063.41 730.306 1060.89 C 732.038 1057.22 732.172 1056.79 732.986 1052.74 L 733.177 1051.76 z"/>
<path transform="translate(0,0)" fill="rgb(235,210,195)" d="M 668.436 996.512 C 666.275 991.685 661.133 983.871 665.509 979.642 C 672.236 982.151 668.938 987.383 673.529 991.519 C 674.724 991.425 676.517 991.358 677.548 990.769 C 689.553 983.911 704.82 1007.37 715.542 999.597 L 719.844 997.118 C 719.619 999.778 719.784 1001 718.786 1003.41 C 713.799 1004.09 705.739 1004.94 701.034 1005.93 C 688.126 1002.05 682.771 1004.87 668.436 996.512 z"/>
<path transform="translate(0,0)" fill="rgb(196,196,144)" d="M 701.034 1005.93 C 705.739 1004.94 713.799 1004.09 718.786 1003.41 L 721.812 1004.4 C 723.098 1006.36 722.923 1005.59 723.309 1007.74 C 723.304 1011.5 723.777 1017.08 722.139 1020.18 L 720.098 1019.7 C 717.137 1021.41 717.826 1020.58 715.839 1023.07 L 715.487 1027.53 C 711.183 1024.41 705.505 1027.08 696.173 1021.35 L 693.722 1019.97 C 694.66 1017.54 694.393 1018.55 693.991 1015.67 C 692.668 1014.68 693.288 1015.34 692.329 1013.53 C 697.853 1012.05 700.415 1013.22 703.876 1010.39 L 704.012 1007.78 L 701.37 1007.22 L 701.034 1005.93 z"/>
<path transform="translate(0,0)" fill="rgb(242,237,214)" d="M 721.812 1004.4 C 723.098 1006.36 722.923 1005.59 723.309 1007.74 C 723.304 1011.5 723.777 1017.08 722.139 1020.18 L 720.098 1019.7 L 710.732 1007.83 L 721.812 1004.4 z"/>
<path transform="translate(0,0)" fill="rgb(166,154,107)" d="M 696.173 1021.35 C 701.99 1019.8 702.41 1023.56 711.2 1022.38 C 713.282 1022.8 713.732 1022.97 715.839 1023.07 L 715.487 1027.53 C 711.183 1024.41 705.505 1027.08 696.173 1021.35 z"/>
<path transform="translate(0,0)" fill="rgb(235,210,195)" d="M 774.806 994.684 C 780.145 995.849 785.702 997.286 791.035 998.586 C 777.93 1009.07 759.666 1015.21 743.04 1007.29 C 740.352 1006 740.872 1005.38 740.176 1002.66 L 735.613 1000.46 C 738.422 1000.97 750.343 1002.79 751.758 1003.84 L 750.923 1004.15 L 750.672 1005.09 C 761.703 1008.8 768.339 1001.94 774.806 994.684 z"/>
<path transform="translate(0,0)" fill="rgb(235,210,195)" d="M 674.678 959.121 C 676.185 961.163 676.405 961.798 677.493 964.125 L 676.809 964.792 C 673.991 962.854 671.469 961.986 668.684 960.214 C 657.897 953.349 649.755 941.81 647.181 929.255 C 646.559 926.222 647.1 925.868 648.459 923.774 L 651.04 923.588 C 652.257 925.631 652.988 926.41 653.544 928.678 C 659.427 941.431 660.688 944.473 669.939 954.628 C 672.106 956.461 672.836 956.919 674.678 959.121 z"/>
<path transform="translate(0,0)" fill="rgb(199,160,146)" d="M 669.939 954.628 C 662.965 953.812 652.401 935.942 653.544 928.678 C 659.427 941.431 660.688 944.473 669.939 954.628 z"/>
<path transform="translate(0,0)" fill="rgb(242,237,214)" d="M 717.497 937.239 C 695.756 914.445 710.449 883.384 733.088 868.446 C 735.679 872.162 738.372 876.939 740.74 880.886 C 744.081 877.503 747.431 873.276 750.516 869.595 C 763.589 882.914 778.215 920.427 756.966 933.698 C 749.053 938.64 752.414 928.277 743.967 925.287 C 741.39 926.341 740.096 930.214 738.463 933.256 C 737.547 936.334 736.944 936.48 734.587 938.662 C 734.355 942.577 735.02 944.019 733.023 946.416 C 730.517 944.719 726.812 941.546 724.329 941.541 C 723.741 947.117 726.378 945.151 724.903 951.008 C 717.606 949.731 719.953 944.977 713.779 947.155 L 714.501 946.758 L 713.341 946.352 L 713.939 947.096 L 713.763 945.377 C 715.327 942.69 717.138 940.246 717.497 937.239 z"/>
<path transform="translate(0,0)" fill="rgb(235,210,195)" d="M 717.497 937.239 C 722.446 934.371 732.835 931.321 738.463 933.256 C 737.547 936.334 736.944 936.48 734.587 938.662 C 734.355 942.577 735.02 944.019 733.023 946.416 C 730.517 944.719 726.812 941.546 724.329 941.541 C 723.741 947.117 726.378 945.151 724.903 951.008 C 717.606 949.731 719.953 944.977 713.779 947.155 L 714.501 946.758 L 713.341 946.352 L 713.939 947.096 L 713.763 945.377 C 715.327 942.69 717.138 940.246 717.497 937.239 z"/>
<path transform="translate(0,0)" fill="url(#Gradient2)" d="M 798.745 915.372 C 802.92 914.988 809.12 915.084 813.465 915.013 C 811.991 918.842 810.089 921.925 811.98 925.667 L 816.233 926.948 C 820.187 942.176 791.556 963.868 779.403 969.967 L 762.44 966.114 C 761.528 965.819 757.022 965.383 754.518 964.672 C 755.012 962.598 754.859 962.722 755.812 960.849 C 758.044 956.46 755.082 960.967 753.766 956.149 C 755.179 952.723 762.04 947.492 765.198 944.753 L 764.737 944.178 C 761.267 945.169 761.079 945.407 757.365 945.238 L 755.758 943.455 C 753.265 927.994 786.754 917.403 798.745 915.372 z"/>
<path transform="translate(0,0)" fill="rgb(151,169,166)" d="M 582.478 1061.33 C 592.303 1063.48 597.676 1081.94 600.993 1090.63 C 609.545 1089.85 624.817 1087.88 631.625 1093.08 C 636.069 1102.68 616.634 1115.62 609.655 1121.4 C 612.757 1129.07 621.566 1150.51 613.189 1156.15 C 605.606 1156.35 595.968 1147.33 589.86 1142.28 C 589.122 1141.62 584.607 1137.32 583.604 1137.98 C 575.409 1143.39 564.917 1153.97 555.075 1155.46 C 553.528 1154.84 552.634 1154.9 552.209 1153.61 C 550.192 1147.48 556.18 1128.25 558.173 1122.44 C 551.139 1117.97 532.08 1108.28 537.914 1098.58 C 545.792 1093.35 559.983 1094.18 569.598 1094.03 C 573.06 1081.66 575.744 1072.28 582.478 1061.33 z"/>
<path transform="translate(0,0)" fill="rgb(188,211,203)" d="M 583.381 1064.32 C 590.521 1068.25 595.241 1086.07 598.087 1094.12 C 605.14 1093.16 628.955 1088.93 629.835 1098.48 C 626.232 1106.82 614.135 1114.57 606.532 1119.17 C 608.95 1126.24 617.879 1148.38 610.195 1152.42 C 602.336 1151.68 591.759 1139.64 586.654 1133.91 C 586.062 1133.14 586.517 1133.6 584.94 1133 C 574.226 1142.45 566.713 1147.49 553.646 1152.89 C 555.576 1140.1 556.819 1133.92 561.223 1121.81 C 555.272 1118.04 536.569 1108.45 539.925 1100.28 C 546.633 1095.6 563.061 1096.58 571.468 1096.7 C 574.96 1083.58 576.487 1076.11 583.381 1064.32 z"/>
<path transform="translate(0,0)" fill="rgb(151,169,166)" d="M 1445.93 909.859 C 1450.15 902.978 1460.75 884.726 1469.61 886.558 C 1475.59 892.351 1475.05 908.622 1475.42 917.356 C 1484.04 918.754 1497.61 921.904 1502.96 928.964 C 1505.51 940.539 1482.51 945.856 1473.81 948.685 C 1473.66 956.495 1473.99 978.984 1467.45 983.13 C 1454.93 981.894 1449.06 958.54 1443.9 954.981 C 1434.16 958.316 1421.72 963.085 1411.5 960.739 C 1409.15 958.69 1409.79 959.937 1409.43 956.924 C 1412.46 948.469 1419.64 939.33 1425 931.871 C 1419.13 924.36 1411.16 915.556 1411.27 905.896 C 1416.47 895.665 1438.75 905.575 1445.93 909.859 z"/>
<path transform="translate(0,0)" fill="rgb(188,211,203)" d="M 1447.09 912.756 C 1453.51 900.831 1458.59 894.213 1469.15 885.938 C 1472.17 897.614 1471.97 908.075 1472.29 920.037 C 1479.19 921.283 1500.45 924.195 1499.74 933.117 C 1495.16 939.259 1478.38 944.289 1471.1 945.59 C 1471.05 953.028 1472.57 974.972 1464.41 977.69 C 1455.27 974.172 1451.09 957.443 1445.86 951.238 L 1442.95 951.26 C 1436.99 954.093 1418.14 958.892 1411.28 957.382 C 1416.03 946.16 1421.24 941.219 1429.41 932.123 C 1419.96 921.185 1416.09 917.387 1412.53 903.261 C 1424.43 904.757 1436.46 907.184 1447.09 912.756 z"/>
<path transform="translate(0,0)" fill="rgb(188,211,203)" d="M 1400.63 1103.88 C 1399.58 1095.9 1396.89 1073.82 1402.2 1068.35 C 1410.86 1068.75 1419.51 1083.53 1428.94 1086.96 L 1432.86 1084.63 L 1433.9 1084.08 C 1440.02 1080.56 1449.87 1074.24 1456.57 1075.78 C 1464.26 1082.88 1452.31 1102.53 1448.38 1110.74 C 1454.87 1117.25 1467.67 1128.04 1467.67 1137.02 C 1462.25 1146.7 1440.78 1138.28 1432 1135.7 C 1429.25 1144.1 1422.08 1165.12 1411 1162.18 C 1406.63 1158.43 1406.21 1153.78 1405.01 1148.14 C 1404.26 1143.5 1403.87 1137.76 1403.41 1133.01 C 1393.73 1132.17 1381.48 1132.32 1374.45 1125.36 C 1370.36 1114.29 1392.47 1106.46 1400.63 1103.88 z"/>
<path transform="translate(0,0)" fill="rgb(151,169,166)" d="M 1400.63 1103.88 C 1399.58 1095.9 1396.89 1073.82 1402.2 1068.35 C 1410.86 1068.75 1419.51 1083.53 1428.94 1086.96 L 1432.86 1084.63 C 1430.65 1088.33 1431.66 1087.87 1428.37 1089.52 C 1418.87 1086.59 1412.22 1071.4 1404.41 1071.79 C 1399.44 1076.97 1402.66 1098.19 1403.34 1105.87 C 1396.08 1107.93 1380.32 1114.15 1376.46 1120.65 C 1376.43 1129.13 1398.46 1130.29 1405.67 1130.98 C 1406.07 1137.08 1406.36 1142.01 1407.36 1148.05 L 1405.01 1148.14 C 1404.26 1143.5 1403.87 1137.76 1403.41 1133.01 C 1393.73 1132.17 1381.48 1132.32 1374.45 1125.36 C 1370.36 1114.29 1392.47 1106.46 1400.63 1103.88 z"/>
<path transform="translate(0,0)" fill="rgb(151,169,166)" d="M 1433.9 1084.08 C 1440.02 1080.56 1449.87 1074.24 1456.57 1075.78 C 1464.26 1082.88 1452.31 1102.53 1448.38 1110.74 C 1454.87 1117.25 1467.67 1128.04 1467.67 1137.02 C 1462.25 1146.7 1440.78 1138.28 1432 1135.7 C 1431.56 1135.35 1429.64 1132.71 1429.17 1132.09 C 1431.07 1131.29 1431.02 1131.45 1433.16 1132.21 C 1445.87 1136.75 1453.65 1138.97 1467.06 1138.37 C 1461.23 1127.95 1454.61 1119.36 1445.62 1111.54 C 1448.24 1104.86 1459.82 1084.77 1456.79 1079.83 C 1448.87 1077.84 1442.7 1082.24 1434.97 1083.87 L 1433.9 1084.08 z"/>
<path transform="translate(0,0)" fill="rgb(171,187,176)" d="M 1407.36 1148.05 C 1408.67 1152.47 1409.38 1154.76 1412.91 1157.15 L 1415.5 1156.56 C 1421.56 1151.71 1427.91 1139.28 1429.17 1132.09 C 1429.64 1132.71 1431.56 1135.35 1432 1135.7 C 1429.25 1144.1 1422.08 1165.12 1411 1162.18 C 1406.63 1158.43 1406.21 1153.78 1405.01 1148.14 L 1407.36 1148.05 z"/>
<path transform="translate(0,0)" fill="rgb(188,211,203)" d="M 536.217 885.974 C 538.289 881.413 538.818 877.542 544.142 877.394 C 547.494 879.524 547.723 880.527 549.597 883.97 L 554.928 897.155 C 562.734 896.767 572.681 895.168 578.848 899.489 C 581.153 906.561 567.489 916.108 562.532 920.993 C 565.666 929.406 569.161 935.362 567.424 943.905 C 561.446 950.933 548.2 939.178 543.31 934.236 C 537.627 938.974 531.489 944.522 524.5 946.907 L 521.818 946.557 C 516.985 938.76 524.701 928.123 523.013 921.727 L 521.533 920.227 C 516.315 919.35 511.928 915.41 508.123 911.982 L 507.103 908.46 C 509.777 899.282 523.626 900.826 531.47 901.175 L 536.217 885.974 z"/>
<path transform="translate(0,0)" fill="rgb(151,169,166)" d="M 549.597 883.97 L 554.928 897.155 C 562.734 896.767 572.681 895.168 578.848 899.489 C 581.153 906.561 567.489 916.108 562.532 920.993 C 565.666 929.406 569.161 935.362 567.424 943.905 C 561.446 950.933 548.2 939.178 543.31 934.236 C 537.627 938.974 531.489 944.522 524.5 946.907 L 521.818 946.557 C 516.985 938.76 524.701 928.123 523.013 921.727 L 521.533 920.227 L 524.389 920.509 C 527.505 924.927 523.638 937.654 522.466 944.461 C 530.781 941.223 538.009 936.566 543.172 929.195 C 547.348 934.004 555.894 942.921 562.254 943.668 L 563.619 942.298 C 563.935 935.008 559.845 928.366 559.427 921.739 C 558.988 914.77 578.457 908.391 577.509 900.495 C 572.205 897.353 559.576 899.883 552.658 900.566 C 552.569 900.149 552.481 899.731 552.393 899.313 L 551.957 897.461 C 550.72 892.065 549.566 890.412 546.956 885.592 L 549.597 883.97 z"/>
<path transform="translate(0,0)" fill="rgb(171,187,176)" d="M 531.47 901.175 L 536.217 885.974 L 538.001 887.941 C 531.966 920.779 517.119 892.718 508.123 911.982 L 507.103 908.46 C 509.777 899.282 523.626 900.826 531.47 901.175 z"/>
<path transform="translate(0,0)" fill="rgb(171,187,176)" d="M 536.217 885.974 C 538.289 881.413 538.818 877.542 544.142 877.394 C 547.494 879.524 547.723 880.527 549.597 883.97 L 546.956 885.592 C 543.771 883.58 545.403 883.849 541.964 884.401 C 540.781 885.446 539.067 886.864 538.001 887.941 L 536.217 885.974 z"/>
<path transform="translate(0,0)" fill="rgb(188,211,203)" d="M 1213.57 1088.97 C 1214.58 1082.53 1217.17 1066.58 1225.22 1067.02 C 1231.98 1071.65 1233.71 1078.5 1237.04 1086.27 C 1245.71 1085.33 1252.16 1083.26 1259.16 1087.63 C 1263.28 1095.84 1250.6 1103.94 1244.55 1108.45 C 1247.73 1116.41 1251.8 1123.75 1250.11 1132.02 C 1243.95 1139.14 1231.04 1125.71 1226.25 1120.8 C 1220.09 1125.52 1213.09 1132.32 1205.71 1132.41 C 1199.46 1127.93 1204.12 1117.05 1206 1110.69 C 1204.24 1109.45 1200.33 1106.83 1198.85 1105.56 C 1197.69 1105.42 1196.76 1104.56 1195.59 1103.81 C 1191.71 1101.69 1189.57 1100.54 1187.44 1096.8 C 1188.14 1087.59 1206.86 1088.86 1213.57 1088.97 z"/>
<path transform="translate(0,0)" fill="rgb(151,169,166)" d="M 1213.57 1088.97 C 1214.58 1082.53 1217.17 1066.58 1225.22 1067.02 C 1231.98 1071.65 1233.71 1078.5 1237.04 1086.27 C 1245.71 1085.33 1252.16 1083.26 1259.16 1087.63 C 1263.28 1095.84 1250.6 1103.94 1244.55 1108.45 C 1247.73 1116.41 1251.8 1123.75 1250.11 1132.02 C 1243.95 1139.14 1231.04 1125.71 1226.25 1120.8 C 1220.09 1125.52 1213.09 1132.32 1205.71 1132.41 C 1199.46 1127.93 1204.12 1117.05 1206 1110.69 C 1204.24 1109.45 1200.33 1106.83 1198.85 1105.56 C 1204.03 1106.95 1204.46 1107.46 1209.03 1110.54 C 1205.53 1118.65 1204.73 1123.69 1203.14 1132.41 C 1213.61 1127.59 1217.3 1124.33 1225.96 1116.61 C 1230.06 1120.8 1240.64 1133.29 1246.5 1128.61 C 1248.07 1121.25 1244.06 1114.5 1241.05 1107.39 C 1245.25 1104.5 1256.68 1093.92 1257.59 1089.32 C 1254.18 1085.39 1242.3 1089.48 1234.19 1088.58 C 1232.9 1087 1228.45 1073.75 1224.83 1067.55 C 1219.3 1075.01 1217.44 1082.62 1214.28 1091.31 L 1213.57 1088.97 z"/>
<path transform="translate(0,0)" fill="rgb(151,169,166)" d="M 1195.59 1103.81 C 1191.71 1101.69 1189.57 1100.54 1187.44 1096.8 C 1188.14 1087.59 1206.86 1088.86 1213.57 1088.97 L 1214.28 1091.31 C 1208.28 1091.87 1196.1 1092 1191.77 1095.26 C 1191.39 1098.45 1194.36 1099.99 1195.59 1103.81 z"/>
<path transform="translate(0,0)" fill="rgb(189,192,131)" d="M 1734.32 868.487 C 1738.44 867.546 1755.32 865.697 1758.73 867.512 C 1758.04 870.169 1757.93 870.286 1756.63 872.73 C 1752.97 890.368 1750.81 902.476 1734.13 912.66 C 1718.79 919.89 1708.2 919.353 1691.83 918.23 C 1706.53 898.012 1697.97 875.956 1734.32 868.487 z"/>
<path transform="translate(0,0)" fill="rgb(166,154,107)" d="M 1734.32 868.487 L 1734.58 870.363 C 1714.78 876.315 1718.2 877.124 1706.18 890.729 C 1703.94 896.359 1700.32 905.125 1700 911.042 L 1701.88 910.703 C 1701.73 911.74 1700.84 913.421 1700.36 914.486 C 1705.67 918.456 1727.15 914.095 1732.49 909.267 L 1734.13 912.66 C 1718.79 919.89 1708.2 919.353 1691.83 918.23 C 1706.53 898.012 1697.97 875.956 1734.32 868.487 z"/>
<path transform="translate(0,0)" fill="rgb(175,172,120)" d="M 1751.32 875.934 C 1752.53 873.515 1752.35 873.483 1754.47 871.882 L 1756.63 872.73 C 1752.97 890.368 1750.81 902.476 1734.13 912.66 L 1732.49 909.267 C 1734.08 906.009 1734.98 905.395 1737.51 902.907 C 1746.52 895.589 1751.13 887.45 1751.32 875.934 z"/>
<path transform="translate(0,0)" fill="rgb(196,196,144)" d="M 1706.18 890.729 C 1712.43 895.176 1713.1 893.687 1715.21 900.271 C 1711.86 902.915 1708.05 905.775 1704.88 908.554 C 1702.74 909.602 1703.31 909.013 1701.88 910.703 L 1700 911.042 C 1700.32 905.125 1703.94 896.359 1706.18 890.729 z"/>
<path transform="translate(0,0)" fill="rgb(166,154,107)" d="M 1715.21 900.271 C 1718.56 897.902 1720.75 895.984 1724.65 894.806 C 1722.25 898.875 1709.5 908.733 1704.88 908.554 C 1708.05 905.775 1711.86 902.915 1715.21 900.271 z"/>
<path transform="translate(0,0)" fill="rgb(189,192,131)" d="M 1150.55 944.399 C 1168.94 934.217 1197.32 943.383 1205.74 962.783 C 1208.08 965.537 1208.23 966.396 1209.49 969.689 L 1213.52 980.02 L 1212.81 981.486 C 1204.6 982.198 1189.68 984.619 1182.44 983.797 C 1162.44 981.202 1149.87 965.58 1142.34 947.858 C 1141.34 945.485 1141.57 945.363 1142.62 943.356 L 1146.41 942.784 L 1150.55 944.399 z"/>
<path transform="translate(0,0)" fill="url(#Gradient1)" d="M 1182.44 983.797 C 1162.44 981.202 1149.87 965.58 1142.34 947.858 C 1141.34 945.485 1141.57 945.363 1142.62 943.356 L 1146.41 942.784 C 1149.08 948.815 1154.27 951.095 1160.53 954.042 L 1159.98 955.649 C 1164.19 958.141 1169.07 961.701 1172.99 963.917 C 1180.11 963.792 1183.59 966.256 1186.58 972.666 C 1188.23 974.75 1190.44 978.268 1192.67 979.268 L 1193.57 980.271 L 1194.13 981.504 C 1191.36 983.759 1186.63 982.965 1182.44 983.797 z"/>
<path transform="translate(0,0)" fill="rgb(166,154,107)" d="M 1187.46 967.24 L 1186.89 966.022 C 1193.48 969.252 1200.72 974.024 1206.98 975.84 L 1208.85 975.201 C 1209.84 972.42 1209.81 972.627 1209.49 969.689 L 1213.52 980.02 L 1212.81 981.486 C 1204.6 982.198 1189.68 984.619 1182.44 983.797 C 1186.63 982.965 1191.36 983.759 1194.13 981.504 L 1193.57 980.271 L 1192.67 979.268 C 1190.44 978.268 1188.23 974.75 1186.58 972.666 L 1187.46 967.24 z"/>
<path transform="translate(0,0)" fill="rgb(175,172,120)" d="M 1187.46 967.24 C 1190.73 970.675 1191.95 971.033 1196.26 973.309 C 1195.17 975.037 1193.5 977.503 1192.67 979.268 C 1190.44 978.268 1188.23 974.75 1186.58 972.666 L 1187.46 967.24 z"/>
<path transform="translate(0,0)" fill="rgb(196,196,144)" d="M 1196.26 973.309 C 1199.97 975.233 1201.21 974.999 1202.71 977.995 C 1200.75 980.007 1196.48 980.077 1193.57 980.271 L 1192.67 979.268 C 1193.5 977.503 1195.17 975.037 1196.26 973.309 z"/>
<path transform="translate(0,0)" fill="rgb(166,154,107)" d="M 1150.55 944.399 C 1168.94 934.217 1197.32 943.383 1205.74 962.783 L 1202.86 962.485 C 1186.78 942.011 1176.91 941.388 1151.6 945.539 L 1150.55 944.399 z"/>
<path transform="translate(0,0)" fill="rgb(166,154,107)" d="M 1160.53 954.042 L 1161.08 952.979 L 1160.94 951.1 L 1162.19 949.994 C 1164.41 952.643 1164.23 952.468 1164.92 955.879 L 1166.12 956.945 L 1169.06 957.895 L 1174.81 960.716 L 1174.97 962.036 L 1172.99 963.917 C 1169.07 961.701 1164.19 958.141 1159.98 955.649 L 1160.53 954.042 z"/>
<path transform="translate(0,0)" fill="rgb(175,172,120)" d="M 1166.12 956.945 C 1172.94 948.79 1165.53 949.103 1171.12 948.58 C 1174.1 950.632 1173.11 949.29 1174.2 952.734 C 1172.83 956.223 1172.84 955.335 1169.06 957.895 L 1166.12 956.945 z"/>
<path transform="translate(0,0)" fill="rgb(188,141,126)" d="M 884.308 896.965 C 906.891 896.466 939.273 910.596 931.91 937.47 C 927.201 939.375 925.306 936.227 919.162 937.36 L 918.408 939.246 C 918.711 942.783 919.508 945.845 917.798 948.741 C 899.977 962.432 865.476 918.97 884.308 896.965 z"/>
<path transform="translate(0,0)" fill="rgb(235,210,195)" d="M 883.525 899.022 C 903.147 899.498 921.217 902.723 928.615 924.093 C 929.758 927.395 930.948 932.129 929.354 935.41 C 926.157 936.382 919.08 934.515 914.952 933.961 C 915.159 938.183 916.448 945.04 915.166 948.185 C 907.368 951.325 894.285 941.989 889.703 936.041 C 881.036 924.79 881.936 912.245 883.525 899.022 z"/>
<path transform="translate(0,0)" fill="rgb(175,172,120)" d="M 1528.28 1167.33 C 1521.65 1135.78 1544.12 1124.66 1566.96 1112.42 L 1567.77 1124.92 C 1569.55 1133.59 1570.68 1139.03 1569.23 1147.89 L 1568.99 1149.44 C 1568.94 1149.74 1568.88 1150.05 1568.83 1150.36 C 1567.1 1161.33 1565.31 1164.37 1555.93 1171.81 C 1551.33 1175.46 1534.69 1183.16 1529.22 1182.28 C 1528.14 1179.73 1528.72 1178.01 1529.14 1175.23 L 1528.28 1167.33 z"/>
<path transform="translate(0,0)" fill="rgb(166,154,107)" d="M 1568.83 1150.36 C 1567.51 1143.1 1564.37 1130.94 1567.77 1124.92 C 1569.55 1133.59 1570.68 1139.03 1569.23 1147.89 L 1568.99 1149.44 C 1568.94 1149.74 1568.88 1150.05 1568.83 1150.36 z"/>
<path transform="translate(0,0)" fill="rgb(166,154,107)" d="M 1528.28 1167.33 L 1529.38 1163.53 L 1530.5 1163.52 C 1532.2 1166.78 1531.8 1168.74 1531.74 1172.42 C 1530.39 1174.7 1531.27 1173.77 1529.14 1175.23 L 1528.28 1167.33 z"/>
<path transform="translate(0,0)" fill="rgb(166,154,107)" d="M 1547.64 1151.85 C 1547.99 1158.18 1540.02 1165.2 1535.96 1173.85 C 1535.71 1173 1535.59 1171.51 1535.47 1170.57 C 1538.41 1163.14 1541.4 1157.14 1547.64 1151.85 z"/>
<path transform="translate(0,0)" fill="rgb(166,154,107)" d="M 1561.77 1124.03 C 1561.49 1127.44 1552.55 1144.21 1550.49 1148.29 C 1549.23 1142.55 1557.71 1128.29 1561.77 1124.03 z"/>
<path transform="translate(0,0)" fill="rgb(166,154,107)" d="M 915.555 1119.44 C 915.573 1115.68 915.023 1117.27 916.776 1114.37 C 919.307 1114.15 924.686 1117.05 928.877 1117.65 C 939.197 1117.77 951.856 1122.8 958.763 1130.49 C 970.339 1143.39 969.952 1157.34 969.813 1173.18 C 950.625 1165.84 930.555 1166.73 920.791 1144.56 C 917.229 1136.47 916.492 1128.14 915.555 1119.44 z"/>
<path transform="translate(0,0)" fill="rgb(173,135,106)" d="M 915.555 1119.44 C 915.573 1115.68 915.023 1117.27 916.776 1114.37 C 919.307 1114.15 924.686 1117.05 928.877 1117.65 C 926.093 1120.21 924.844 1119.99 920.238 1119.77 C 918.676 1119.68 917.115 1119.57 915.555 1119.44 z"/>
<path transform="translate(0,0)" fill="rgb(196,196,144)" d="M 924.534 1121.48 C 950.582 1115.62 977.714 1150.99 963.265 1168.49 C 948.11 1161.22 932.51 1164.02 923.552 1144.34 C 920.945 1138.6 919.763 1128.59 921.75 1122.72 L 923.714 1123.25 L 924.534 1121.48 z"/>
<path transform="translate(0,0)" fill="rgb(189,192,131)" d="M 929.185 1127.22 L 929.951 1125.88 C 938.351 1124.18 945.987 1132.97 942.401 1141.15 L 942.64 1141.93 L 943.511 1142.69 C 946.874 1145.67 954.372 1151.59 954.645 1155.69 L 953.012 1155.86 C 952.269 1155.32 928.639 1130.09 928.238 1129.48 L 929.185 1127.22 z"/>
<path transform="translate(0,0)" fill="rgb(166,154,107)" d="M 942.401 1141.15 L 942.64 1141.93 L 943.511 1142.69 C 946.874 1145.67 954.372 1151.59 954.645 1155.69 L 953.012 1155.86 C 952.269 1155.32 928.639 1130.09 928.238 1129.48 L 929.185 1127.22 C 933.88 1132.9 937.034 1136.03 942.401 1141.15 z"/>
<path transform="translate(0,0)" fill="rgb(188,141,126)" d="M 1265.33 908.298 C 1312.49 904.349 1292.72 944.427 1264.25 953.999 C 1259.35 954.725 1248.88 957.819 1246.94 952.433 C 1248.1 948.493 1249.93 945.49 1246.91 942.387 C 1242.59 942.523 1236.77 943.569 1236.43 937.94 C 1235.54 922.872 1253.29 911.585 1265.33 908.298 z"/>
<path transform="translate(0,0)" fill="rgb(235,210,195)" d="M 1262.09 911.297 C 1310.33 905.642 1291.45 941.015 1264.65 951.438 C 1260.04 952.105 1253.26 952.462 1248.46 952.845 C 1249.38 948.658 1250.84 944.168 1252.08 940.029 C 1247 940.121 1241.8 941.191 1238.17 937.55 C 1236.72 927.68 1253.54 914.284 1262.09 911.297 z"/>
<path transform="translate(0,0)" fill="rgb(188,211,203)" d="M 230.457 1121.08 C 242.418 1126.57 245.163 1112.27 255.084 1111.45 L 256.724 1113.02 C 258.327 1119.08 256.895 1126.57 256.142 1133 C 262.274 1135.44 271.815 1137.63 272.346 1144.99 C 268.265 1150.66 257.231 1151.29 250.174 1152.51 C 249.523 1159.38 249.506 1169.19 242.114 1171.51 C 234.736 1169.08 233.413 1159.24 231.877 1152.56 C 226.607 1153.46 212.477 1157.42 210.192 1151.26 C 212.04 1144.9 217.231 1140.8 222.015 1135.97 C 219.408 1129.07 213.307 1121.53 217.283 1115.07 C 221.978 1116.46 227 1117.54 230.457 1121.08 z"/>
<path transform="translate(0,0)" fill="rgb(151,169,166)" d="M 230.457 1121.08 C 242.418 1126.57 245.163 1112.27 255.084 1111.45 L 256.724 1113.02 C 258.327 1119.08 256.895 1126.57 256.142 1133 C 262.274 1135.44 271.815 1137.63 272.346 1144.99 C 268.265 1150.66 257.231 1151.29 250.174 1152.51 C 249.523 1159.38 249.506 1169.19 242.114 1171.51 C 234.736 1169.08 233.413 1159.24 231.877 1152.56 C 226.607 1153.46 212.477 1157.42 210.192 1151.26 C 212.04 1144.9 217.231 1140.8 222.015 1135.97 C 219.408 1129.07 213.307 1121.53 217.283 1115.07 C 218.681 1119.6 223.764 1131.74 223.273 1135.41 C 222.463 1141.47 214.712 1146.61 211.198 1151.96 C 219.656 1151.86 224.873 1151.32 233.32 1150.27 C 234.724 1155.54 236.691 1166.2 241.188 1168.93 C 247.195 1166.59 245.876 1155.32 250.553 1150.16 C 259.412 1146.53 265.967 1150.35 269.534 1143.33 C 265.16 1133.53 249.361 1140.55 254.516 1125.88 C 255.357 1123.49 255.43 1115.03 255.432 1111.99 C 249.527 1117.52 243.735 1123.18 238.06 1128.95 C 235.855 1126.78 232.204 1123.45 230.457 1121.08 z"/>
<path transform="translate(0,0)" fill="rgb(188,141,126)" d="M 787.469 1098.52 C 800.183 1095.13 827.772 1112.92 823.733 1128.01 C 822.582 1132.31 815.756 1129.52 811.952 1131.64 C 811.567 1137.04 814.173 1135.46 814.986 1141.92 C 812.736 1145.15 814.183 1143.75 809.761 1145.41 C 800.079 1146.45 792.604 1144.89 784.39 1138.43 C 776.869 1132.51 761.608 1112.76 769.885 1102.82 C 772.706 1099.44 782.847 1098.93 787.469 1098.52 z"/>
<path transform="translate(0,0)" fill="rgb(235,210,195)" d="M 783.703 1100.26 C 796.534 1096.09 828.422 1115.22 820.514 1127.2 C 817.822 1128.87 811.537 1128.2 808.001 1128.13 C 810.1 1133.77 811.04 1136.86 812.534 1142.63 C 805.662 1143.04 795.962 1143.72 789.813 1140.31 C 780.952 1135.39 765.517 1114.75 771.27 1104.3 C 775.021 1101.54 779.037 1101.22 783.703 1100.26 z"/>
<path transform="translate(0,0)" fill="rgb(189,192,131)" d="M 1058.31 878.867 C 1073.19 855.734 1095.69 860.843 1118.38 867.39 C 1108.11 882.739 1101.72 897.698 1081.36 902.451 C 1068.09 905.551 1058.8 899.802 1046.57 895.879 L 1045.78 894.546 C 1048.45 890.183 1050.4 892.77 1053.74 886.09 C 1055.17 883.45 1056.64 881.338 1058.31 878.867 z"/>
<path transform="translate(0,0)" fill="rgb(166,154,107)" d="M 1058.31 878.867 C 1073.19 855.734 1095.69 860.843 1118.38 867.39 C 1108.11 882.739 1101.72 897.698 1081.36 902.451 C 1068.09 905.551 1058.8 899.802 1046.57 895.879 L 1045.78 894.546 C 1048.45 890.183 1050.4 892.77 1053.74 886.09 C 1054.23 887.757 1054.58 888.86 1055.22 890.475 C 1063.29 889.696 1068.43 885.002 1077.12 883.686 L 1077.64 884.465 C 1076.52 885.367 1056.64 893.623 1052.48 895.547 C 1086.52 904.096 1091.69 899.937 1112.61 871.636 C 1105.68 874.642 1097.38 878.555 1089.77 878.929 C 1097.56 875.867 1105.44 873.047 1113.39 870.473 C 1099.51 864.356 1079.8 860.339 1068.04 871.595 C 1064.05 875.413 1062.81 878.047 1058.31 878.867 z"/>
</svg>