<svg version="1.1" xmlns="http://www.w3.org/2000/svg" style="display: block;" viewBox="0 0 2048 2048" width="1024" height="1024" preserveAspectRatio="none">
<defs>
	<linearGradient id="Gradient1" gradientUnits="userSpaceOnUse" x1="1743.86" y1="900.893" x2="1716.11" y2="879.404">
		<stop class="stop0" offset="0" stop-opacity="1" stop-color="rgb(184,171,132)"/>
		<stop class="stop1" offset="1" stop-opacity="1" stop-color="rgb(199,209,140)"/>
	</linearGradient>
	<linearGradient id="Gradient2" gradientUnits="userSpaceOnUse" x1="662.792" y1="942.156" x2="655.996" y2="946.995">
		<stop class="stop0" offset="0" stop-opacity="1" stop-color="rgb(217,185,181)"/>
		<stop class="stop1" offset="1" stop-opacity="1" stop-color="rgb(249,229,220)"/>
	</linearGradient>
	<linearGradient id="Gradient3" gradientUnits="userSpaceOnUse" x1="804.344" y1="946.171" x2="811.028" y2="950.961">
		<stop class="stop0" offset="0" stop-opacity="1" stop-color="rgb(214,185,182)"/>
		<stop class="stop1" offset="1" stop-opacity="1" stop-color="rgb(253,228,217)"/>
	</linearGradient>
	<linearGradient id="Gradient4" gradientUnits="userSpaceOnUse" x1="712.3" y1="964.819" x2="683.765" y2="994.807">
		<stop class="stop0" offset="0" stop-opacity="1" stop-color="rgb(243,215,214)"/>
		<stop class="stop1" offset="1" stop-opacity="1" stop-color="rgb(251,250,243)"/>
	</linearGradient>
	<linearGradient id="Gradient5" gradientUnits="userSpaceOnUse" x1="753.898" y1="968.628" x2="766.702" y2="999.571">
		<stop class="stop0" offset="0" stop-opacity="1" stop-color="rgb(246,219,218)"/>
		<stop class="stop1" offset="1" stop-opacity="1" stop-color="rgb(248,246,244)"/>
	</linearGradient>
	<linearGradient id="Gradient6" gradientUnits="userSpaceOnUse" x1="756.889" y1="943.256" x2="815.52" y2="940.889">
		<stop class="stop0" offset="0" stop-opacity="1" stop-color="rgb(247,223,222)"/>
		<stop class="stop1" offset="1" stop-opacity="1" stop-color="rgb(249,244,243)"/>
	</linearGradient>
	<linearGradient id="Gradient7" gradientUnits="userSpaceOnUse" x1="344.351" y1="1020.51" x2="261.898" y2="1029.89">
		<stop class="stop0" offset="0" stop-opacity="1" stop-color="rgb(243,216,214)"/>
		<stop class="stop1" offset="1" stop-opacity="1" stop-color="rgb(250,250,248)"/>
	</linearGradient>
	<linearGradient id="Gradient8" gradientUnits="userSpaceOnUse" x1="428.514" y1="1009.56" x2="425.501" y2="1006.46">
		<stop class="stop0" offset="0" stop-opacity="1" stop-color="rgb(199,165,152)"/>
		<stop class="stop1" offset="1" stop-opacity="1" stop-color="rgb(236,201,186)"/>
	</linearGradient>
	<linearGradient id="Gradient9" gradientUnits="userSpaceOnUse" x1="377.97" y1="1026.9" x2="395.541" y2="1041.09">
		<stop class="stop0" offset="0" stop-opacity="1" stop-color="rgb(245,191,188)"/>
		<stop class="stop1" offset="1" stop-opacity="1" stop-color="rgb(248,226,225)"/>
	</linearGradient>
	<linearGradient id="Gradient10" gradientUnits="userSpaceOnUse" x1="373.538" y1="1088.74" x2="426.469" y2="1116.79">
		<stop class="stop0" offset="0" stop-opacity="1" stop-color="rgb(160,110,83)"/>
		<stop class="stop1" offset="1" stop-opacity="1" stop-color="rgb(187,146,122)"/>
	</linearGradient>
	<linearGradient id="Gradient11" gradientUnits="userSpaceOnUse" x1="359.142" y1="1076.93" x2="361.581" y2="1081.62">
		<stop class="stop0" offset="0" stop-opacity="1" stop-color="rgb(213,186,182)"/>
		<stop class="stop1" offset="1" stop-opacity="1" stop-color="rgb(255,224,219)"/>
	</linearGradient>
	<linearGradient id="Gradient12" gradientUnits="userSpaceOnUse" x1="1594.3" y1="1070.76" x2="1590.01" y2="1078.16">
		<stop class="stop0" offset="0" stop-opacity="1" stop-color="rgb(229,197,190)"/>
		<stop class="stop1" offset="1" stop-opacity="1" stop-color="rgb(249,233,229)"/>
	</linearGradient>
	<linearGradient id="Gradient13" gradientUnits="userSpaceOnUse" x1="1651.37" y1="1056.29" x2="1571.16" y2="1049.96">
		<stop class="stop0" offset="0" stop-opacity="1" stop-color="rgb(245,218,215)"/>
		<stop class="stop1" offset="1" stop-opacity="1" stop-color="rgb(251,250,248)"/>
	</linearGradient>
	<linearGradient id="Gradient14" gradientUnits="userSpaceOnUse" x1="1675.29" y1="1099.28" x2="1678.88" y2="1104.38">
		<stop class="stop0" offset="0" stop-opacity="1" stop-color="rgb(201,175,172)"/>
		<stop class="stop1" offset="1" stop-opacity="1" stop-color="rgb(241,208,199)"/>
	</linearGradient>
	<linearGradient id="Gradient15" gradientUnits="userSpaceOnUse" x1="1742.28" y1="997.722" x2="1751.04" y2="998.619">
		<stop class="stop0" offset="0" stop-opacity="1" stop-color="rgb(233,205,199)"/>
		<stop class="stop1" offset="1" stop-opacity="1" stop-color="rgb(248,238,227)"/>
	</linearGradient>
	<linearGradient id="Gradient16" gradientUnits="userSpaceOnUse" x1="1697.08" y1="1111.66" x2="1740.65" y2="1149.5">
		<stop class="stop0" offset="0" stop-opacity="1" stop-color="rgb(166,117,89)"/>
		<stop class="stop1" offset="1" stop-opacity="1" stop-color="rgb(186,147,121)"/>
	</linearGradient>
	<linearGradient id="Gradient17" gradientUnits="userSpaceOnUse" x1="1656.14" y1="1062" x2="1649.82" y2="1110.08">
		<stop class="stop0" offset="0" stop-opacity="1" stop-color="rgb(242,206,204)"/>
		<stop class="stop1" offset="1" stop-opacity="1" stop-color="rgb(250,250,247)"/>
	</linearGradient>
	<linearGradient id="Gradient18" gradientUnits="userSpaceOnUse" x1="1696.11" y1="1049.55" x2="1739.97" y2="1070.67">
		<stop class="stop0" offset="0" stop-opacity="1" stop-color="rgb(244,209,208)"/>
		<stop class="stop1" offset="1" stop-opacity="1" stop-color="rgb(251,255,255)"/>
	</linearGradient>
	<linearGradient id="Gradient19" gradientUnits="userSpaceOnUse" x1="1104.1" y1="1012.2" x2="1114.68" y2="1016.94">
		<stop class="stop0" offset="0" stop-opacity="1" stop-color="rgb(234,184,179)"/>
		<stop class="stop1" offset="1" stop-opacity="1" stop-color="rgb(247,232,221)"/>
	</linearGradient>
	<linearGradient id="Gradient20" gradientUnits="userSpaceOnUse" x1="1003.16" y1="1030.97" x2="920.711" y2="1016.19">
		<stop class="stop0" offset="0" stop-opacity="1" stop-color="rgb(245,219,218)"/>
		<stop class="stop1" offset="1" stop-opacity="1" stop-color="rgb(249,247,246)"/>
	</linearGradient>
	<linearGradient id="Gradient21" gradientUnits="userSpaceOnUse" x1="1011.54" y1="1110.44" x2="1016.01" y2="1104.5">
		<stop class="stop0" offset="0" stop-opacity="1" stop-color="rgb(203,207,137)"/>
		<stop class="stop1" offset="1" stop-opacity="1" stop-color="rgb(180,177,126)"/>
	</linearGradient>
	<linearGradient id="Gradient22" gradientUnits="userSpaceOnUse" x1="998.898" y1="1045.8" x2="982.858" y2="1090.98">
		<stop class="stop0" offset="0" stop-opacity="1" stop-color="rgb(245,204,202)"/>
		<stop class="stop1" offset="1" stop-opacity="1" stop-color="rgb(251,255,252)"/>
	</linearGradient>
	<linearGradient id="Gradient23" gradientUnits="userSpaceOnUse" x1="1044.49" y1="1046.38" x2="1082.5" y2="1081.46">
		<stop class="stop0" offset="0" stop-opacity="1" stop-color="rgb(246,212,210)"/>
		<stop class="stop1" offset="1" stop-opacity="1" stop-color="rgb(253,253,250)"/>
	</linearGradient>
	<linearGradient id="Gradient24" gradientUnits="userSpaceOnUse" x1="1914.82" y1="1139.82" x2="1855.4" y2="1161.79">
		<stop class="stop0" offset="0" stop-opacity="1" stop-color="rgb(240,222,220)"/>
		<stop class="stop1" offset="1" stop-opacity="1" stop-color="rgb(244,245,242)"/>
	</linearGradient>
</defs>
<path transform="translate(0,0)" fill="rgb(247,246,236)" d="M 120.535 881.561 C 104.644 864.074 105.774 863.839 107.25 841.529 C 110.445 838.461 146.384 839.918 154.639 840.091 C 212.154 841.298 269.842 839.976 327.285 840.253 L 661.288 840.367 L 1449.21 841.641 L 1639.46 842.79 C 1668.31 843.028 1691.29 838.39 1720.52 847.445 C 1734.67 849.663 1755.62 846.08 1769.24 843.794 C 1792.47 839.892 1820.76 838.475 1844.01 840.425 C 1870.49 842.647 1862.43 885.224 1857.98 900.371 C 1865.01 910.28 1873.4 920.689 1880.57 930.52 C 1881.72 932.098 1881.85 936.601 1881.41 938.433 C 1879.66 945.331 1874.97 957.763 1881.89 963.995 C 1896.3 976.978 1894.75 983.899 1885.65 1003.32 C 1888.03 1006.86 1890.27 1010.34 1893.39 1013.26 C 1903.01 1022.27 1919.92 1030.07 1916.5 1045.89 C 1913.97 1057.61 1910.12 1061.69 1911 1074.2 L 1913.5 1077.45 C 1919.81 1083.53 1927.53 1089.92 1933.29 1095.65 C 1935.92 1098.7 1937.51 1100.49 1939.72 1103.83 C 1936.23 1111 1928.52 1131.36 1925.23 1136.61 L 1923.49 1142.93 C 1927.19 1150.92 1928.86 1152.66 1935.82 1158.12 C 1939.03 1162.13 1945.7 1169.88 1947.55 1173.97 C 1953.59 1186.25 1939.83 1189.36 1933.93 1196.64 C 1932.35 1198.6 1928.98 1207.07 1927.68 1209.93 C 1884.69 1210.9 1839.92 1209.41 1796.84 1209.08 L 1582 1208.93 L 779.322 1209.79 L 415.906 1209.09 L 293.084 1209.93 C 276.559 1209.94 246.966 1210.69 231.646 1208.8 C 225.524 1188.33 226.586 1176.14 227.362 1154.65 C 224.901 1150.77 220.789 1141.76 218.596 1137.28 C 203.755 1117.03 182.844 1118.55 192.955 1083.27 C 176.969 1050.35 173.15 1064.84 179.899 1024.26 C 173.738 1020.16 169.453 1018.24 163.126 1013.35 C 158.143 1009.47 155.807 1007.24 151.378 1002.84 C 149.54 1000.75 147.202 1000.18 144.558 999.123 C 147.163 989.526 153.157 975.402 156.853 965.652 L 156.783 963.292 C 150.623 946.426 137.079 944.391 127.377 928.208 C 132.293 914.01 132.876 910.487 133.298 895.429 C 130.376 890.22 124.965 885.719 120.535 881.561 z M 153.789 913.015 C 153.223 907.471 151.957 904.76 149.302 899.97 C 145.91 905.256 145.146 912.2 147.96 917.915 L 149.898 918.76 C 152.436 917.146 152.635 915.815 153.789 913.015 z"/>
<path transform="translate(0,0)" fill="rgb(247,233,230)" d="M 127.423 876.69 C 132.083 876.703 138.347 882.225 141.385 885.684 C 152.206 898.004 157.033 907.698 157.173 924.001 C 165.667 917.473 188.03 899.528 198.688 906.391 C 199.299 909.999 198.831 912.554 200.647 914.609 C 205.1 913.913 204.351 913.367 208.002 914.761 C 217.478 928.076 205.452 950.643 194.148 959.666 L 189.517 958.027 L 189.636 954.355 C 187.462 956.403 182.478 960.834 180.729 962.884 C 172.247 966.452 165.472 964.836 156.783 963.292 C 150.623 946.426 137.079 944.391 127.377 928.208 C 132.293 914.01 132.876 910.487 133.298 895.429 C 130.376 890.22 124.965 885.719 120.535 881.561 C 123.676 880.793 125.049 878.958 127.423 876.69 z M 153.789 913.015 C 153.223 907.471 151.957 904.76 149.302 899.97 C 145.91 905.256 145.146 912.2 147.96 917.915 L 149.898 918.76 C 152.436 917.146 152.635 915.815 153.789 913.015 z"/>
<path transform="translate(0,0)" fill="rgb(247,246,236)" fill-opacity="0.87451" d="M 149.302 899.97 C 151.957 904.76 153.223 907.471 153.789 913.015 C 152.635 915.815 152.436 917.146 149.898 918.76 L 147.96 917.915 C 145.146 912.2 145.91 905.256 149.302 899.97 z"/>
<path transform="translate(0,0)" fill="rgb(204,187,182)" d="M 127.423 876.69 C 132.083 876.703 138.347 882.225 141.385 885.684 C 152.206 898.004 157.033 907.698 157.173 924.001 C 165.667 917.473 188.03 899.528 198.688 906.391 C 199.299 909.999 198.831 912.554 200.647 914.609 C 205.1 913.913 204.351 913.367 208.002 914.761 C 217.478 928.076 205.452 950.643 194.148 959.666 L 189.517 958.027 L 189.636 954.355 C 193.654 949.482 196.881 944.007 199.198 938.131 C 200.755 934.11 206.209 920.121 204.595 916.444 C 202.55 916.977 200.51 917.526 198.473 918.089 C 196.104 915.203 198.598 913.006 195.985 907.845 C 187.111 904.412 171.152 916.379 163.968 921.283 C 160.208 923.851 149.021 937.967 147.946 941.261 C 148.33 940.769 148.713 940.276 149.097 939.784 C 148.378 937.964 153.395 928.733 153.846 925.61 C 154.435 921.528 154.024 917.07 153.789 913.015 C 153.223 907.471 151.957 904.76 149.302 899.97 C 144.399 891.247 135.564 882.437 127.423 876.69 z"/>
<path transform="translate(0,0)" fill="rgb(247,233,230)" d="M 1860.76 1070.62 C 1863.74 1070.03 1866.74 1069.57 1869.76 1069.26 C 1889.76 1067.07 1896.71 1070.62 1911.55 1082.45 L 1913.5 1077.45 C 1919.81 1083.53 1927.53 1089.92 1933.29 1095.65 C 1935.92 1098.7 1937.51 1100.49 1939.72 1103.83 C 1936.23 1111 1928.52 1131.36 1925.23 1136.61 C 1924.28 1136 1923.8 1136.09 1922.56 1135.87 L 1919.42 1143.46 L 1916.81 1140.86 C 1912.64 1132.39 1909.51 1130.65 1900.96 1128.71 L 1903.89 1125.86 C 1900.03 1126.41 1896.17 1127 1892.33 1127.62 C 1869.77 1126.96 1858.68 1104.29 1853.29 1085.63 C 1856.9 1084.79 1862.23 1084.02 1866.02 1083.35 L 1860.76 1070.62 z"/>
<path transform="translate(0,0)" fill="rgb(236,183,177)" d="M 1913.5 1077.45 C 1919.81 1083.53 1927.53 1089.92 1933.29 1095.65 C 1935.92 1098.7 1937.51 1100.49 1939.72 1103.83 C 1936.23 1111 1928.52 1131.36 1925.23 1136.61 C 1924.28 1136 1923.8 1136.09 1922.56 1135.87 L 1919.42 1143.46 L 1916.81 1140.86 C 1912.64 1132.39 1909.51 1130.65 1900.96 1128.71 L 1903.89 1125.86 L 1905.31 1125.28 C 1905.24 1122.82 1905.16 1121.87 1905.6 1119.42 L 1905.91 1117.81 L 1905.98 1114.39 C 1906.34 1112.66 1905.06 1104.14 1904.82 1101.77 C 1909.07 1095.86 1905.63 1097.82 1914.94 1094.09 C 1915.39 1093.83 1915.83 1093.58 1916.27 1093.32 C 1913.88 1089.75 1911.52 1086.62 1911.55 1082.45 L 1913.5 1077.45 z"/>
<path transform="translate(0,0)" fill="rgb(244,212,209)" d="M 1913.5 1077.45 C 1919.81 1083.53 1927.53 1089.92 1933.29 1095.65 C 1928.25 1102.05 1931.76 1102.74 1927.79 1109.25 C 1922.57 1106.63 1921.14 1103.94 1918.38 1098.79 C 1918.55 1096.07 1918.54 1096.7 1918.12 1094.02 L 1916.27 1093.32 C 1913.88 1089.75 1911.52 1086.62 1911.55 1082.45 L 1913.5 1077.45 z"/>
<path transform="translate(0,0)" fill="rgb(244,212,209)" d="M 1916.27 1093.32 L 1918.12 1094.02 C 1918.54 1096.7 1918.55 1096.07 1918.38 1098.79 L 1916.44 1099.22 L 1913.58 1105.63 L 1910.15 1106.16 C 1911.99 1110.93 1913.33 1105.97 1912.55 1110.65 L 1905.98 1114.39 C 1906.34 1112.66 1905.06 1104.14 1904.82 1101.77 C 1909.07 1095.86 1905.63 1097.82 1914.94 1094.09 C 1915.39 1093.83 1915.83 1093.58 1916.27 1093.32 z"/>
<path transform="translate(0,0)" fill="rgb(221,194,189)" d="M 1905.91 1117.81 L 1913.75 1120.92 C 1910.59 1122.41 1908.61 1122.93 1906.71 1125.84 L 1907.4 1127.31 C 1912.9 1129.2 1919.78 1130.69 1922.56 1135.87 L 1919.42 1143.46 L 1916.81 1140.86 C 1912.64 1132.39 1909.51 1130.65 1900.96 1128.71 L 1903.89 1125.86 L 1905.31 1125.28 C 1905.24 1122.82 1905.16 1121.87 1905.6 1119.42 L 1905.91 1117.81 z"/>
<path transform="translate(0,0)" fill="rgb(242,208,192)" d="M 1912.55 1110.65 C 1913.33 1105.97 1911.99 1110.93 1910.15 1106.16 L 1913.58 1105.63 L 1916.44 1099.22 L 1918.38 1098.79 C 1921.14 1103.94 1922.57 1106.63 1927.79 1109.25 L 1926.4 1111.11 C 1923.92 1110.02 1924.84 1110.5 1922.95 1108.14 C 1918.42 1108.11 1920.44 1111.46 1914.97 1112.81 L 1912.55 1110.65 z"/>
<path transform="translate(0,0)" fill="rgb(242,208,192)" d="M 1912.55 1110.65 L 1914.97 1112.81 L 1913.07 1114.38 L 1913.3 1115.32 C 1914.01 1118.41 1914.21 1117.89 1913.75 1120.92 L 1905.91 1117.81 L 1905.98 1114.39 L 1912.55 1110.65 z"/>
<path transform="translate(0,0)" fill="rgb(244,212,209)" d="M 1892.33 1127.62 C 1890.54 1120.38 1893.43 1125.34 1895.41 1118.06 L 1894.51 1116.74 C 1892 1116.61 1892.05 1116.72 1889.76 1115.75 L 1890.08 1113.44 C 1893.17 1109.55 1898.45 1105.85 1903.43 1107.93 C 1903.07 1104.82 1903.38 1104.63 1904.82 1101.77 C 1905.06 1104.14 1906.34 1112.66 1905.98 1114.39 L 1905.91 1117.81 L 1905.6 1119.42 C 1905.16 1121.87 1905.24 1122.82 1905.31 1125.28 L 1903.89 1125.86 C 1900.03 1126.41 1896.17 1127 1892.33 1127.62 z"/>
<path transform="translate(0,0)" fill="url(#Gradient24)" d="M 1898.86 1128.88 L 1900.96 1128.71 C 1909.51 1130.65 1912.64 1132.39 1916.81 1140.86 L 1919.42 1143.46 C 1916.69 1151.24 1915.46 1157.13 1909.8 1163.09 C 1892.94 1170.89 1875.61 1173.9 1857.17 1170.36 C 1859.04 1167.48 1860.14 1165.62 1861.78 1162.59 C 1859.88 1160.36 1857.81 1161.31 1853.46 1159.94 C 1851.92 1154.71 1856.75 1148.09 1860.39 1144.75 C 1871.71 1134.33 1883.26 1128.84 1898.86 1128.88 z"/>
<path transform="translate(0,0)" fill="rgb(244,212,209)" d="M 1898.86 1128.88 L 1900.96 1128.71 C 1909.51 1130.65 1912.64 1132.39 1916.81 1140.86 C 1905.97 1141.74 1899.92 1142.38 1898.86 1128.88 z"/>
<path transform="translate(0,0)" fill="rgb(204,187,182)" d="M 1858.43 1069.7 C 1864.52 1067.59 1868.12 1066.97 1874.33 1066.55 C 1887.07 1065.7 1898.72 1068.11 1908.05 1077.22 C 1909.3 1078.44 1908.67 1078.18 1910.4 1078.14 L 1911 1074.2 L 1913.5 1077.45 L 1911.55 1082.45 C 1896.71 1070.62 1889.76 1067.07 1869.76 1069.26 C 1866.74 1069.57 1863.74 1070.03 1860.76 1070.62 L 1866.02 1083.35 C 1862.23 1084.02 1856.9 1084.79 1853.29 1085.63 C 1858.68 1104.29 1869.77 1126.96 1892.33 1127.62 C 1896.17 1127 1900.03 1126.41 1903.89 1125.86 L 1900.96 1128.71 L 1898.86 1128.88 C 1883.26 1128.84 1871.71 1134.33 1860.39 1144.75 C 1856.75 1148.09 1851.92 1154.71 1853.46 1159.94 C 1857.81 1161.31 1859.88 1160.36 1861.78 1162.59 C 1860.14 1165.62 1859.04 1167.48 1857.17 1170.36 C 1875.61 1173.9 1892.94 1170.89 1909.8 1163.09 C 1915.46 1157.13 1916.69 1151.24 1919.42 1143.46 L 1922.56 1135.87 C 1923.8 1136.09 1924.28 1136 1925.23 1136.61 L 1923.49 1142.93 C 1927.19 1150.92 1928.86 1152.66 1935.82 1158.12 C 1939.03 1162.13 1945.7 1169.88 1947.55 1173.97 C 1942.52 1180.97 1937.14 1187.58 1927.71 1187.49 L 1924.71 1187.95 C 1900.92 1191.8 1912.11 1173.57 1909.58 1169.68 C 1905.95 1171.55 1902.88 1173.98 1899.43 1176.05 C 1890.2 1181.6 1860.06 1184.28 1855.71 1171.28 C 1861.03 1159.53 1855.18 1166.17 1850.63 1160.12 C 1850.44 1157.77 1850.39 1156.14 1851.57 1153.89 C 1856.77 1144 1868.24 1134.31 1878.68 1130.38 C 1881.22 1129.42 1881.15 1129.81 1883.41 1127.94 C 1882.52 1127.1 1876.79 1123.93 1875.32 1123.64 C 1866.31 1121.92 1848.61 1093.49 1852.7 1085.2 C 1856.93 1083.01 1857.71 1084.41 1860.91 1080.68 C 1861.73 1077.01 1859.79 1073.36 1858.43 1069.7 z"/>
<path transform="translate(0,0)" fill="rgb(244,212,209)" d="M 1935.82 1158.12 C 1939.03 1162.13 1945.7 1169.88 1947.55 1173.97 C 1942.52 1180.97 1937.14 1187.58 1927.71 1187.49 C 1922.03 1184.98 1919.23 1188.19 1914.41 1184.93 C 1914.41 1181.4 1913.95 1183.15 1916.95 1179.85 L 1918.84 1180.11 C 1922.53 1179.37 1922 1178.63 1923.18 1175.41 L 1926.56 1173.55 C 1927.8 1169.67 1933.35 1161.81 1935.82 1158.12 z"/>
<path transform="translate(0,0)" fill="rgb(221,194,189)" d="M 1926.56 1173.55 C 1930 1174.45 1930.12 1174.24 1932.62 1176.94 C 1933.12 1184.26 1923.17 1184.35 1918.84 1180.11 C 1922.53 1179.37 1922 1178.63 1923.18 1175.41 L 1926.56 1173.55 z"/>
<path transform="translate(0,0)" fill="rgb(247,246,236)" d="M 1923.18 1175.41 C 1918.96 1176.11 1917.54 1176.74 1913.47 1178.26 C 1909.15 1173.9 1918.73 1147.58 1923.49 1142.93 C 1927.19 1150.92 1928.86 1152.66 1935.82 1158.12 C 1933.35 1161.81 1927.8 1169.67 1926.56 1173.55 L 1923.18 1175.41 z"/>
<path transform="translate(0,0)" fill="rgb(244,212,209)" d="M 1857.17 1170.36 C 1875.61 1173.9 1892.94 1170.89 1909.8 1163.09 C 1900.77 1180.19 1870.82 1184.43 1857.17 1170.36 z"/>
<path transform="translate(0,0)" fill="rgb(247,233,230)" d="M 156.783 963.292 C 165.472 964.836 172.247 966.452 180.729 962.884 L 182.503 968.389 C 185.836 969.06 192.055 969.934 194.642 971.652 C 194.944 974.982 194.675 974.985 192.098 977.624 C 189.24 980.551 191.574 985.661 188.233 987.612 L 187.059 987.272 C 184.555 986.571 181.6 985.403 179.61 986.9 C 164.725 998.102 172.835 1002.72 151.378 1002.84 C 149.54 1000.75 147.202 1000.18 144.558 999.123 C 147.163 989.526 153.157 975.402 156.853 965.652 L 156.783 963.292 z"/>
<path transform="translate(0,0)" fill="rgb(204,187,182)" d="M 156.783 963.292 C 165.472 964.836 172.247 966.452 180.729 962.884 L 182.503 968.389 C 173.583 966.851 166.093 967.424 156.853 965.652 L 156.783 963.292 z"/>
<path transform="translate(0,0)" fill="rgb(147,172,175)" d="M 237.395 1124.69 C 242.068 1120.11 248.123 1112.59 254.408 1112.5 C 259.65 1116.83 257.074 1127.08 256.425 1133.47 C 262.705 1135.78 269.583 1137.18 272.421 1143.13 C 271.376 1151.27 257.248 1151.52 250.546 1152.25 C 249.349 1158.18 248.14 1168.92 243.802 1172.65 C 236.384 1173.29 229.08 1157.88 230.882 1150.76 L 232.694 1149.73 C 237.672 1152.53 237.866 1159.54 238.653 1164.87 L 240.457 1166.95 L 242.324 1166.92 C 246.705 1161.72 244.249 1153.17 247.408 1149.65 C 250.896 1145.76 265.278 1148.61 267.389 1142.54 C 259.812 1135.91 253.619 1142.23 252.489 1131.64 C 252.052 1127.55 255.473 1121.36 253.958 1117.77 C 247.35 1117.67 243.783 1126.57 237.848 1129.22 C 230.878 1125.02 230.613 1121.5 221.547 1121.14 C 222.571 1132.74 230.775 1126.35 223.766 1141.38 C 224.666 1147.74 229.613 1150.36 227.362 1154.65 C 224.901 1150.77 220.789 1141.76 218.596 1137.28 C 219.55 1130.72 215.064 1121.81 218.659 1117.3 C 224.382 1116.13 232.443 1121.5 237.395 1124.69 z"/>
<path transform="translate(0,0)" fill="rgb(221,194,189)" d="M 189.636 954.355 L 189.517 958.027 L 194.148 959.666 C 190.564 962.667 190.125 961.992 189.268 965.594 C 192.454 969.7 198.711 968.804 200.519 974.978 C 202.585 982.034 198.094 988.2 195.595 994.046 C 190.77 1005.34 168.263 1008.08 163.126 1013.35 C 158.143 1009.47 155.807 1007.24 151.378 1002.84 C 172.835 1002.72 164.725 998.102 179.61 986.9 C 181.6 985.403 184.555 986.571 187.059 987.272 L 188.233 987.612 C 191.574 985.661 189.24 980.551 192.098 977.624 C 194.675 974.985 194.944 974.982 194.642 971.652 C 192.055 969.934 185.836 969.06 182.503 968.389 L 180.729 962.884 C 182.478 960.834 187.462 956.403 189.636 954.355 z"/>
<path transform="translate(0,0)" fill="rgb(244,212,209)" d="M 181.531 988.824 C 186.202 989.146 190.263 988.608 191.17 993.686 C 187.507 1000.88 177.45 1005.28 170.039 1007.73 C 166.694 1008.08 164.105 1008.84 161.265 1007.3 C 163.981 1003.31 172.266 1000.07 176.534 995.001 C 178.226 992.963 179.892 990.904 181.531 988.824 z"/>
<path transform="translate(0,0)" fill="rgb(194,149,137)" d="M 1018.29 945.111 C 1020.89 941.286 1025.11 933.755 1029.35 932.904 C 1039 935.825 1050.47 954.997 1055.42 963.597 C 1061.32 973.842 1060.55 984.314 1058.82 995.448 C 1067.7 987.524 1100.63 964.632 1112.05 973.06 C 1113.66 977.147 1112.83 977.389 1112.19 982.44 L 1113.42 983.129 C 1116.53 981.808 1117.63 981.105 1121.06 980.98 C 1129.06 985.376 1124.82 1003.59 1122.77 1011.1 C 1117.9 1028.89 1104.78 1036.98 1089.64 1045.21 C 1114.82 1047.89 1113.35 1059.25 1101.74 1077.23 C 1092.65 1091.33 1075.64 1099.14 1059.12 1098.95 C 1053.65 1098.89 1046.14 1094.57 1040.5 1095.44 L 1039.55 1097.93 L 1042.45 1114.88 C 1047.7 1133.34 1051.39 1139.14 1060.38 1155.87 C 1056.15 1161.31 1053 1165.24 1047.13 1169.26 C 1038.25 1155.26 1037.53 1144.09 1031.13 1130.06 C 1026.22 1126.36 1023.58 1123.96 1017.74 1121.78 C 1008 1130.5 982.196 1111.96 975.051 1104.48 C 963.196 1102.35 944.441 1093.07 946.883 1077.84 C 948.177 1069.77 958.161 1064.29 964.733 1060.44 C 948.724 1056.78 936.635 1052.55 925.885 1038.62 C 920.162 1031.21 915.709 1015.01 917.115 1005.85 C 919.934 1003.68 922.96 1004.26 927.158 1003.95 L 927.925 1002.64 C 924.042 994.17 922.722 989.785 934.615 988.444 C 954.515 986.199 971.929 993.305 987.931 1004.65 C 984.723 995.841 982.637 989.11 983.703 979.639 C 984.918 968.846 995.975 932.401 1009.54 934.608 C 1013.58 937.443 1015.48 940.993 1018.29 945.111 z"/>
<path transform="translate(0,0)" fill="url(#Gradient23)" d="M 1029.88 1079.54 L 1030.15 1077.67 C 1030.83 1072.82 1030.45 1065.02 1031.62 1061.17 C 1045.26 1057.42 1040.24 1055.63 1048.19 1048.99 C 1058.25 1040.59 1096.36 1048.54 1106.28 1052.84 C 1103.32 1054.76 1100.23 1056.85 1097.2 1058.61 L 1096.25 1071.89 C 1069.09 1062.53 1084.14 1086.68 1059.35 1088.07 C 1053.45 1087.83 1044.3 1087.25 1038.64 1088.26 C 1036.42 1087.87 1036.32 1087.49 1034.21 1086.33 C 1031.71 1083.22 1031.54 1083.11 1029.88 1079.54 z"/>
<path transform="translate(0,0)" fill="url(#Gradient22)" d="M 965.604 1088.59 L 964.302 1085.93 C 958.996 1074.92 960.536 1078 949.564 1077.52 L 949.61 1074.75 C 956.757 1061.91 992.49 1054.22 1006.06 1050.35 C 1008.23 1052.3 1015.86 1057.07 1018.56 1057.13 C 1020.98 1054.47 1021.1 1053.03 1024.96 1053.41 C 1026.82 1062.05 1029.44 1071.18 1027.89 1079.85 C 1025.59 1083.56 1024.82 1085.12 1021.78 1088.15 C 1006.62 1096.46 997.786 1089.28 983.492 1084.55 C 975.966 1082.05 971.854 1085.03 965.604 1088.59 z"/>
<path transform="translate(0,0)" fill="rgb(175,130,103)" d="M 1027.89 1079.85 L 1029.88 1079.54 C 1031.54 1083.11 1031.71 1083.22 1034.21 1086.33 C 1036.32 1087.49 1036.42 1087.87 1038.64 1088.26 L 1040.05 1091.05 L 1038.78 1097.61 L 1039.55 1097.93 L 1042.45 1114.88 C 1047.7 1133.34 1051.39 1139.14 1060.38 1155.87 C 1056.15 1161.31 1053 1165.24 1047.13 1169.26 C 1038.25 1155.26 1037.53 1144.09 1031.13 1130.06 C 1026.22 1126.36 1023.58 1123.96 1017.74 1121.78 L 1019.1 1118.42 C 1022.37 1116.68 1024.52 1116.62 1028.15 1116.06 L 1024.35 1111.19 C 1020.96 1106.59 1018.38 1104.15 1013.16 1101.85 C 1014.05 1099.43 1018.58 1097.58 1022.07 1094.26 L 1020.61 1092.22 L 1021.78 1088.15 C 1024.82 1085.12 1025.59 1083.56 1027.89 1079.85 z"/>
<path transform="translate(0,0)" fill="rgb(247,246,236)" d="M 1022.07 1094.26 L 1024.54 1093.14 C 1027.55 1095.94 1029.28 1113.11 1028.15 1116.06 L 1024.35 1111.19 C 1020.96 1106.59 1018.38 1104.15 1013.16 1101.85 C 1014.05 1099.43 1018.58 1097.58 1022.07 1094.26 z"/>
<path transform="translate(0,0)" fill="rgb(176,125,114)" d="M 1034.21 1086.33 C 1036.32 1087.49 1036.42 1087.87 1038.64 1088.26 L 1040.05 1091.05 L 1038.78 1097.61 L 1039.55 1097.93 L 1042.45 1114.88 C 1041.32 1115.44 1039.67 1116.14 1038.74 1116.86 C 1036.21 1111.18 1038.51 1109.09 1034.6 1101.77 C 1034.05 1099.46 1035.35 1092.05 1034.21 1086.33 z"/>
<path transform="translate(0,0)" fill="rgb(244,212,209)" d="M 1083.37 1069.74 C 1088.41 1071.12 1093.69 1072.68 1098.78 1073.79 C 1099.67 1082.21 1091.19 1085.33 1084.69 1088.85 C 1071.93 1095.75 1052.95 1099 1040.05 1091.05 L 1038.64 1088.26 C 1044.3 1087.25 1053.45 1087.83 1059.35 1088.07 C 1056.64 1088.99 1056.57 1089.32 1053.86 1088.74 L 1052.64 1089.92 C 1073.88 1090.3 1073.12 1087.88 1083.37 1069.74 z"/>
<path transform="translate(0,0)" fill="rgb(197,202,147)" d="M 1000.31 1103.9 C 1003.07 1103.29 1012.13 1102.27 1013.16 1101.85 C 1018.38 1104.15 1020.96 1106.59 1024.35 1111.19 L 1028.15 1116.06 C 1024.52 1116.62 1022.37 1116.68 1019.1 1118.42 C 1010.84 1120.52 992.095 1119.1 987.259 1111.77 C 987.976 1109.31 987.909 1108.86 987.393 1106.35 C 988.728 1105.59 997.719 1104.5 1000.31 1103.9 z"/>
<path transform="translate(0,0)" fill="url(#Gradient21)" d="M 1000.31 1103.9 C 1003.07 1103.29 1012.13 1102.27 1013.16 1101.85 C 1018.38 1104.15 1020.96 1106.59 1024.35 1111.19 C 1024.27 1113.85 1024.54 1112.91 1023.4 1115.29 C 1016.27 1116.61 1009.22 1108.8 1002.01 1105.95 L 1000.31 1103.9 z"/>
<path transform="translate(0,0)" fill="rgb(170,156,114)" d="M 1002.01 1105.95 C 1009.22 1108.8 1016.27 1116.61 1023.4 1115.29 C 1024.54 1112.91 1024.27 1113.85 1024.35 1111.19 L 1028.15 1116.06 C 1024.52 1116.62 1022.37 1116.68 1019.1 1118.42 C 1016.92 1118.05 1012.47 1117.5 1011.3 1115.86 C 1007.4 1110.35 995.962 1113.11 992.385 1108.91 C 1000.71 1104.78 993.258 1111.59 1002.01 1105.95 z"/>
<path transform="translate(0,0)" fill="rgb(236,183,177)" d="M 1006.06 1050.35 C 1013.41 1048.07 1039.48 1040.14 1045.77 1046.92 C 1043.77 1047.39 1043.37 1047.46 1041.41 1047.72 C 1039.08 1051.28 1036.59 1055.44 1033.79 1058.56 C 1027.27 1058.81 1028.56 1055.66 1024.96 1053.41 C 1021.1 1053.03 1020.98 1054.47 1018.56 1057.13 C 1015.86 1057.07 1008.23 1052.3 1006.06 1050.35 z"/>
<path transform="translate(0,0)" fill="rgb(247,233,230)" d="M 1028.35 934.224 C 1048.65 951.269 1060.49 969.711 1056.57 997.192 C 1053.26 1001.5 1049.57 1006.96 1045.35 1010.14 L 1043.46 1010.05 C 1040.88 1004.42 1040.52 1002.6 1035.32 999.485 C 1032.26 999.703 1033.69 999.178 1031.24 1001.96 C 1030.65 1006.1 1031.54 1006.77 1033.71 1010.97 C 1030.55 1011.69 1026.01 1010.67 1022.84 1009.83 C 1019.85 1006.55 1020.57 1005.46 1020.63 1000.37 C 1018.08 999.074 1018.23 999.799 1014.47 1001 C 1014.27 1002.02 1015.9 1008.16 1015.37 1012.86 C 1012.41 1017.08 1011.92 1015.09 1008.91 1019.04 C 1007.46 1017.91 1007.92 1018.51 1007.28 1017.46 C 1003.62 1016.61 1003.53 1016.89 1000.01 1017.86 C 989.027 1004.16 985.082 998.217 986.559 979.498 C 987.306 970.039 997.271 936.56 1008.39 937.092 C 1012.14 940.578 1015.61 945.997 1019.11 947.315 C 1023.61 945.495 1026.02 938.875 1028.35 934.224 z"/>
<path transform="translate(0,0)" fill="url(#Gradient20)" d="M 926.76 993.813 C 952.819 985.486 983.135 997.226 998.038 1019.95 L 998.29 1021.2 C 996.493 1024.53 996.002 1025.39 994.9 1028.96 C 991.953 1032.12 991.602 1031.46 991.053 1034.95 C 995.161 1041.47 1004.04 1036.94 1002.88 1045.35 C 997.635 1052.17 981.832 1054.82 973.554 1055.82 C 969.772 1056.32 965.929 1055.68 962.515 1053.98 L 963.592 1056.48 L 962.957 1057.43 C 948.948 1056.9 936.201 1047.38 928.242 1036.26 C 924.503 1031.03 918.574 1020.87 920.681 1014.62 L 923.283 1015.56 C 921.778 1012.58 920.65 1011.26 921.324 1008.05 C 926.697 1004.81 926.706 1008.78 930.919 1004.86 C 931.348 1000.96 928.754 997.412 926.76 993.813 z"/>
<path transform="translate(0,0)" fill="rgb(244,212,209)" d="M 962.515 1053.98 L 963.592 1056.48 L 962.957 1057.43 C 948.948 1056.9 936.201 1047.38 928.242 1036.26 C 924.503 1031.03 918.574 1020.87 920.681 1014.62 L 923.283 1015.56 C 925.01 1017.53 926.991 1020.26 927.44 1022.89 C 931.506 1027.76 945.76 1042.79 948.26 1046.2 C 953.062 1048.14 958.147 1051.18 962.515 1053.98 z"/>
<path transform="translate(0,0)" fill="rgb(194,149,137)" d="M 927.44 1022.89 C 931.506 1027.76 945.76 1042.79 948.26 1046.2 C 940.85 1044.01 929.747 1030.45 927.44 1022.89 z"/>
<path transform="translate(0,0)" fill="rgb(247,233,230)" d="M 1082.76 1043.6 C 1076.59 1044.83 1052.46 1044.08 1048.72 1038.54 C 1050.43 1033.33 1050.43 1033 1053.76 1028.79 L 1054.97 1027.28 C 1053.26 1027.47 1047.45 1031.26 1045.54 1032.4 L 1045.11 1032.03 C 1042.55 1025.08 1044.97 1022.5 1050.46 1019.41 L 1050.83 1017.8 L 1047.16 1013.96 C 1051.73 998.684 1096.06 967.386 1110.07 975.017 C 1111.4 978.658 1108.82 980.196 1109.34 985.313 C 1113.23 987.228 1112.9 983.93 1118.29 985.126 C 1118.68 1003.7 1103.25 1026.47 1089.77 1038.46 C 1086.08 1040.49 1085.62 1040.63 1082.76 1043.6 z"/>
<path transform="translate(0,0)" fill="rgb(244,212,209)" d="M 951.19 1078.87 C 964.948 1079.3 956.528 1085.47 964.558 1090.97 C 968.629 1091.42 972.805 1087.08 976.16 1086.25 C 988.35 1083.23 999.562 1100 1012.42 1092.65 C 1014.33 1091.56 1015.56 1091.28 1017.8 1091.52 L 1018.91 1092.95 L 1017.76 1095.02 C 998.957 1105.49 959.634 1108.3 949.872 1082.61 C 949.294 1081.09 950.267 1080.51 951.19 1078.87 z"/>
<path transform="translate(0,0)" fill="url(#Gradient19)" d="M 1089.77 1038.46 L 1091.1 1039.2 C 1116.04 1019.64 1110.61 1007.23 1123.1 983.709 C 1122.24 1000.65 1120.96 1018.77 1107.27 1030.79 C 1102.46 1035.02 1089.18 1045.15 1082.76 1043.6 C 1085.62 1040.63 1086.08 1040.49 1089.77 1038.46 z"/>
<path transform="translate(0,0)" fill="rgb(242,208,192)" d="M 1000.01 1017.86 C 1003.53 1016.89 1003.62 1016.61 1007.28 1017.46 L 1002.58 1027.97 C 1005.8 1030.77 1009.5 1034.41 1006.11 1038.11 C 999.417 1038.86 996.988 1034.66 994.9 1028.96 C 996.002 1025.39 996.493 1024.53 998.29 1021.2 L 998.038 1019.95 L 1000.01 1017.86 z"/>
<path transform="translate(0,0)" fill="rgb(202,154,129)" d="M 1000.01 1017.86 C 1003.53 1016.89 1003.62 1016.61 1007.28 1017.46 L 1002.58 1027.97 C 1000.92 1025.99 999.626 1023.48 998.29 1021.2 L 998.038 1019.95 L 1000.01 1017.86 z"/>
<path transform="translate(0,0)" fill="rgb(247,233,230)" d="M 1103.41 1057.41 C 1104.83 1058.05 1104.09 1057.57 1105.45 1059.12 C 1105.21 1063.76 1103.08 1068.11 1101.35 1072.52 C 1097.08 1067.22 1098.86 1061.72 1103.41 1057.41 z"/>
<path transform="translate(0,0)" fill="rgb(194,149,137)" d="M 1640.31 964.916 C 1640.84 958.85 1640.29 952.475 1645.76 949.105 C 1656.95 949.288 1680.5 968.167 1686.33 977.951 C 1688.27 981.219 1691.59 992.727 1692.82 996.795 C 1698.22 987.016 1722.1 954.869 1734.71 959.535 C 1736.85 962.236 1737.09 966.126 1737.69 969.658 C 1741.57 966.879 1742.28 966.272 1746.6 964.488 C 1753.45 966.205 1754.69 976.877 1755.6 982.862 C 1759.16 1006.21 1752.42 1015.38 1738.86 1033.21 C 1742.99 1033.37 1753.79 1033.28 1756.11 1036.07 C 1767.05 1049.28 1754.6 1073.49 1743.97 1082.61 C 1729.87 1094.69 1721.05 1095.64 1704.37 1094.75 L 1709.49 1104.84 C 1722.88 1130.37 1725.82 1125.85 1742.94 1143.39 C 1740.58 1150.24 1739.6 1158.77 1731.04 1157.68 C 1725.35 1154.02 1714.33 1137.07 1707.43 1129.62 C 1702.82 1128.31 1698.22 1126.96 1693.63 1125.57 C 1682.16 1137.25 1658.9 1129 1646.28 1122.99 C 1645.43 1123.18 1644.57 1123.36 1643.7 1123.53 C 1634.7 1125.19 1624.95 1120.24 1617.42 1115.71 C 1605.83 1108.74 1617.6 1094.81 1622.77 1087.97 C 1592.22 1088.28 1575.48 1081.89 1564.21 1051.65 C 1567.86 1049.65 1571.24 1048.44 1575.09 1046.92 L 1565.98 1037.61 C 1569.03 1035.34 1572.23 1033.29 1575.57 1031.47 C 1592.92 1021.93 1611.04 1023.38 1629.27 1028.73 C 1614.31 1010.88 1614.13 991.369 1618.38 969.351 C 1619.35 964.28 1621.17 961.239 1625.5 958.57 C 1628.87 958.146 1636.73 963.002 1640.31 964.916 z"/>
<path transform="translate(0,0)" fill="rgb(247,233,230)" d="M 1695.78 1038.56 C 1697.78 1035.1 1698.39 1031.27 1698.74 1027.38 L 1697.12 1025.67 L 1695.79 1026.03 C 1694.73 1028.3 1694.66 1028.63 1693.14 1030.58 L 1691.65 1029.62 C 1691.87 1023.01 1690.03 1022.87 1689.39 1017.34 C 1688.08 1006.08 1697.39 992.046 1704.23 983.376 C 1708.81 977.564 1722.6 963.049 1730.56 962.384 C 1732.23 962.244 1732.14 962.878 1733.51 964.409 C 1734.02 967.809 1733.89 971.518 1737.01 973.11 C 1739.54 972.025 1741.04 970.977 1743.63 971.674 C 1750.58 980.479 1743.19 1009.74 1739.78 1019.63 C 1734.47 1028.21 1732.27 1035.1 1722.91 1037.66 C 1715.66 1039.43 1707.85 1041.35 1701.12 1044.7 C 1700.14 1042.19 1700.58 1040.79 1698.89 1038.43 L 1695.78 1038.56 z"/>
<path transform="translate(0,0)" fill="url(#Gradient18)" d="M 1730.02 1037.28 C 1735.04 1036.53 1743.74 1034.72 1748.04 1036.52 C 1749.27 1038.8 1748.95 1050.68 1750.64 1056.97 L 1737.54 1057.03 C 1729.53 1077.03 1734.91 1080.16 1711.69 1087.18 C 1707.16 1087.15 1702.39 1088.33 1697.9 1089.21 C 1693.95 1087.35 1693.38 1086.43 1691.17 1082.94 C 1690.25 1077.64 1690.02 1074.85 1687.5 1069.98 C 1690.77 1062.15 1692.06 1056.97 1696 1049.21 C 1700.28 1046.35 1718.31 1040.87 1724.12 1039.04 C 1725.3 1038.55 1728.63 1037.68 1730.02 1037.28 z"/>
<path transform="translate(0,0)" fill="url(#Gradient17)" d="M 1678.93 1061.72 L 1678.19 1060.14 L 1679.49 1059.92 C 1683.71 1063.98 1684.38 1064.99 1687.5 1069.98 C 1690.02 1074.85 1690.25 1077.64 1691.17 1082.94 L 1689.46 1083.01 C 1688.63 1087.34 1688.55 1088.63 1686.71 1092.54 C 1680.24 1097.78 1672.61 1100.59 1668.34 1103.94 C 1651.24 1104.96 1649.22 1093.34 1634.66 1112.19 C 1626.51 1102.53 1627.75 1103 1615.68 1105.98 L 1615.21 1104.67 C 1617.27 1093 1652.93 1065.26 1662.29 1066.35 C 1664.99 1068.51 1666.78 1070.51 1670.31 1070.99 C 1675.2 1068.22 1675.99 1066.48 1678.93 1061.72 z"/>
<path transform="translate(0,0)" fill="rgb(194,149,137)" d="M 1678.93 1061.72 L 1678.19 1060.14 L 1679.49 1059.92 C 1683.71 1063.98 1684.38 1064.99 1687.5 1069.98 C 1690.02 1074.85 1690.25 1077.64 1691.17 1082.94 L 1689.46 1083.01 C 1686.94 1073.16 1684.5 1069.89 1678.93 1061.72 z"/>
<path transform="translate(0,0)" fill="url(#Gradient16)" d="M 1689.46 1083.01 L 1691.17 1082.94 C 1693.38 1086.43 1693.95 1087.35 1697.9 1089.21 L 1698.95 1089.91 C 1701.51 1090.64 1701.6 1090.12 1702.69 1091.58 L 1704.37 1094.75 L 1709.49 1104.84 C 1722.88 1130.37 1725.82 1125.85 1742.94 1143.39 C 1740.58 1150.24 1739.6 1158.77 1731.04 1157.68 C 1725.35 1154.02 1714.33 1137.07 1707.43 1129.62 C 1702.82 1128.31 1698.22 1126.96 1693.63 1125.57 L 1693.58 1124.09 C 1695.17 1120.56 1697.54 1119.59 1700.85 1117.45 C 1700.74 1117.01 1699.78 1115.33 1699.53 1114.85 L 1695.19 1105.07 L 1696.3 1099.72 C 1695.44 1096.71 1693.38 1094.56 1690.62 1093.32 L 1688.41 1094.74 L 1686.71 1092.54 C 1688.55 1088.63 1688.63 1087.34 1689.46 1083.01 z"/>
<path transform="translate(0,0)" fill="rgb(202,154,129)" d="M 1689.46 1083.01 L 1691.17 1082.94 C 1693.38 1086.43 1693.95 1087.35 1697.9 1089.21 L 1698.95 1089.91 C 1701.51 1090.64 1701.6 1090.12 1702.69 1091.58 L 1704.37 1094.75 L 1709.49 1104.84 L 1707.83 1106.5 L 1706.23 1106.31 L 1707.1 1107.46 L 1705.04 1109.48 C 1705.33 1106.95 1705.58 1108.13 1704.3 1105.94 L 1701.78 1105.6 L 1701.43 1104.83 L 1696.3 1099.72 C 1695.44 1096.71 1693.38 1094.56 1690.62 1093.32 L 1688.41 1094.74 L 1686.71 1092.54 C 1688.55 1088.63 1688.63 1087.34 1689.46 1083.01 z"/>
<path transform="translate(0,0)" fill="rgb(175,130,103)" d="M 1698.95 1089.91 C 1701.51 1090.64 1701.6 1090.12 1702.69 1091.58 L 1704.37 1094.75 L 1709.49 1104.84 L 1707.83 1106.5 L 1706.23 1106.31 L 1707.1 1107.46 L 1705.04 1109.48 C 1705.33 1106.95 1705.58 1108.13 1704.3 1105.94 L 1701.78 1105.6 L 1701.43 1104.83 C 1703.35 1097.32 1697.68 1096.46 1698.95 1089.91 z"/>
<path transform="translate(0,0)" fill="rgb(176,125,114)" d="M 1695.19 1105.07 L 1696.3 1099.72 L 1701.43 1104.83 L 1701.78 1105.6 C 1703.02 1109.36 1705.57 1114.28 1704.71 1117.19 C 1703.35 1117.32 1702.21 1117.49 1700.85 1117.45 C 1700.74 1117.01 1699.78 1115.33 1699.53 1114.85 L 1695.19 1105.07 z"/>
<path transform="translate(0,0)" fill="rgb(244,212,209)" d="M 1670.68 1104.95 L 1673.09 1104.21 C 1675.17 1106.73 1673.77 1106.84 1675 1109.83 C 1661.36 1120.44 1635 1124.89 1620.53 1114.25 C 1618.3 1112.61 1618.24 1111.74 1618.08 1109.33 C 1620.07 1106.45 1620.74 1106.52 1623.95 1105.11 C 1627.28 1105.93 1631.9 1112.05 1635.46 1115.43 C 1650.57 1094.2 1656.06 1112.57 1670.68 1104.95 z"/>
<path transform="translate(0,0)" fill="rgb(244,212,209)" d="M 1752.57 1059.88 L 1754.52 1061.28 C 1744.77 1083.37 1727.37 1095.75 1702.69 1091.58 C 1701.6 1090.12 1701.51 1090.64 1698.95 1089.91 L 1697.9 1089.21 C 1702.39 1088.33 1707.16 1087.15 1711.69 1087.18 C 1730.15 1090.41 1734.85 1073.56 1738.88 1059.94 L 1752.57 1059.88 z"/>
<path transform="translate(0,0)" fill="url(#Gradient15)" d="M 1739.78 1019.63 C 1749.25 1014.12 1747.9 981.077 1747.6 971.431 C 1750.36 973.064 1750.74 977.059 1751.7 980.072 C 1758.27 1000.73 1746.55 1024.44 1730.02 1037.28 C 1728.63 1037.68 1725.3 1038.55 1724.12 1039.04 L 1722.91 1037.66 C 1732.27 1035.1 1734.47 1028.21 1739.78 1019.63 z"/>
<path transform="translate(0,0)" fill="rgb(236,183,177)" d="M 1670.31 1070.99 C 1669.46 1066.81 1668.78 1061.64 1668.09 1057.34 C 1673.38 1053.37 1688.94 1050.97 1696 1049.21 C 1692.06 1056.97 1690.77 1062.15 1687.5 1069.98 C 1684.38 1064.99 1683.71 1063.98 1679.49 1059.92 L 1678.19 1060.14 L 1678.93 1061.72 C 1675.99 1066.48 1675.2 1068.22 1670.31 1070.99 z"/>
<path transform="translate(0,0)" fill="rgb(247,246,236)" d="M 1690.74 1097.1 C 1692.23 1099.65 1693.74 1102.47 1695.19 1105.07 L 1699.53 1114.85 C 1695.7 1114.39 1689.08 1109.19 1683.07 1107.03 L 1690.74 1097.1 z"/>
<path transform="translate(0,0)" fill="url(#Gradient14)" d="M 1668.34 1103.94 C 1672.61 1100.59 1680.24 1097.78 1686.71 1092.54 L 1688.41 1094.74 C 1685.75 1100.24 1680.07 1106.47 1675 1109.83 C 1673.77 1106.84 1675.17 1106.73 1673.09 1104.21 L 1670.68 1104.95 L 1668.34 1103.94 z"/>
<path transform="translate(0,0)" fill="rgb(236,183,177)" d="M 1701.12 1044.7 C 1697.06 1046.54 1692.74 1049.46 1688.65 1047.18 C 1689.15 1043.37 1691.98 1040.83 1694.63 1037.43 L 1695.78 1038.56 L 1698.89 1038.43 C 1700.58 1040.79 1700.14 1042.19 1701.12 1044.7 z"/>
<path transform="translate(0,0)" fill="rgb(244,212,209)" d="M 1752.57 1059.88 C 1752.52 1055.95 1750.46 1045.94 1750.91 1043.81 C 1754.14 1042.66 1753.19 1043.71 1754.48 1041.23 C 1756.1 1050.29 1756.18 1051.85 1754.52 1061.28 L 1752.57 1059.88 z"/>
<path transform="translate(0,0)" fill="rgb(247,233,230)" d="M 1645.77 951.188 C 1647.44 951.677 1648.07 951.925 1649.63 952.675 C 1675.96 965.385 1682.14 971.943 1691.75 998.632 C 1680.34 1029.47 1681.56 1009.82 1668.62 1010.75 L 1667.8 1011.88 L 1668.66 1015.72 L 1667.69 1017.12 L 1663.58 1015.42 C 1663.04 1021.33 1665.11 1014.3 1665.76 1020.98 L 1663.72 1023.18 C 1661.12 1021.59 1660.86 1018.75 1659.09 1015.1 C 1655.48 1013.13 1657.39 1013.54 1653.14 1014.04 C 1653.23 1020.89 1656.7 1021.15 1657.18 1029.49 C 1655.82 1030.76 1651.97 1034.47 1650.46 1035.24 C 1638.88 1041.12 1624.4 1020.39 1621.79 1012.18 C 1616.17 994.56 1618.2 976.03 1626.12 959.667 C 1630.5 962.347 1635.69 966.808 1640.7 965.243 C 1643.67 961.704 1644.11 956.359 1645.77 951.188 z"/>
<path transform="translate(0,0)" fill="url(#Gradient13)" d="M 1569.62 1038.08 C 1571.75 1036.72 1575.66 1034.12 1578.45 1032.82 C 1595.68 1024.76 1631.14 1023.68 1643.13 1040.81 C 1644.84 1043.24 1642.84 1046.04 1641.61 1048.6 L 1640.37 1051.35 C 1643.24 1060.48 1645.83 1054.95 1654.36 1057.77 C 1658.22 1057.63 1658.67 1057.59 1662.43 1058.21 L 1663.58 1059.62 C 1660.5 1063.44 1654.7 1065.93 1650.14 1068.53 C 1641.18 1075.05 1636.47 1079.7 1625.64 1081.61 C 1618.58 1095.38 1568.02 1076.03 1569.51 1054.02 L 1569.06 1052.73 C 1571.58 1050.01 1576.38 1048.96 1580.27 1047.58 C 1576.93 1044.42 1573.09 1041.16 1569.62 1038.08 z"/>
<path transform="translate(0,0)" fill="url(#Gradient12)" d="M 1569.51 1054.02 C 1572.7 1056.93 1586.43 1067.72 1587.15 1069.12 C 1595.86 1073.61 1601.53 1076.39 1610.98 1079.29 C 1615.52 1080.17 1621.06 1081.47 1625.64 1081.61 C 1618.58 1095.38 1568.02 1076.03 1569.51 1054.02 z"/>
<path transform="translate(0,0)" fill="rgb(194,149,137)" d="M 1587.15 1069.12 C 1595.86 1073.61 1601.53 1076.39 1610.98 1079.29 L 1610.52 1080.32 C 1603.65 1081.54 1591.49 1074.34 1587.15 1069.12 z"/>
<path transform="translate(0,0)" fill="rgb(244,212,209)" d="M 1654.36 1057.77 C 1658.22 1057.63 1658.67 1057.59 1662.43 1058.21 L 1663.58 1059.62 C 1660.5 1063.44 1654.7 1065.93 1650.14 1068.53 C 1650.45 1063.47 1653.24 1064.62 1654.36 1057.77 z"/>
<path transform="translate(0,0)" fill="rgb(242,208,192)" d="M 1641.61 1048.6 C 1644.17 1045.64 1647.11 1044.35 1650.98 1045.03 L 1651.55 1046.9 C 1654.88 1048.85 1657.56 1049.8 1659.04 1053.22 L 1658.37 1054.98 C 1655.38 1056.04 1651.76 1055.76 1648.69 1055.06 C 1644.8 1053.16 1645.36 1051.55 1640.37 1051.35 L 1641.61 1048.6 z"/>
<path transform="translate(0,0)" fill="rgb(244,212,209)" d="M 1651.55 1046.9 C 1654.88 1048.85 1657.56 1049.8 1659.04 1053.22 L 1658.37 1054.98 C 1655.38 1056.04 1651.76 1055.76 1648.69 1055.06 L 1650.62 1053.89 C 1650.31 1050.15 1650.23 1050.4 1651.55 1046.9 z"/>
<path transform="translate(0,0)" fill="rgb(242,208,192)" d="M 1676.49 1016.19 C 1680.88 1015.6 1682.94 1017.9 1684.89 1021.26 C 1683.43 1023 1683.61 1022.52 1681.31 1023.63 L 1680.26 1023.48 L 1679.2 1024.4 L 1678.38 1027.3 C 1675.81 1029.85 1677.26 1029.34 1674.06 1029.35 L 1672.75 1027.38 C 1672.4 1021.6 1673.25 1021.38 1676.49 1016.19 z"/>
<path transform="translate(0,0)" fill="rgb(194,149,137)" d="M 335.229 939.986 C 336.281 935.109 336.864 929.16 340.629 926.101 C 350.383 924.948 374.922 946.417 379.149 955.442 C 380.949 959.286 383.275 969.663 384.383 974.456 C 386.935 974.86 414.926 933.683 428.737 942.774 C 430.833 945.644 430.337 948.432 430.369 952.127 C 432.602 950.849 434.847 949.594 437.105 948.36 C 439.231 948.372 441.97 948.321 443.25 950.267 C 454.566 967.469 445.048 995.576 432.678 1007.07 L 427.793 1012.78 C 435.078 1016 441.537 1013.01 446.381 1018.83 C 447.508 1023.06 447.359 1027.82 446.777 1032.14 C 442.572 1063.34 416.007 1073.86 389.288 1073.02 C 396.406 1087.8 403.249 1104.56 416.195 1114.97 C 428.562 1124.91 423.083 1130 415.339 1140.87 C 399.625 1122.31 399.527 1112.06 377.691 1101.62 C 366.152 1109.63 350.9 1106.05 339.151 1100.38 L 336.844 1099.11 C 325.289 1091.78 277.074 1097.47 310.083 1060.31 C 286.433 1058.84 271.236 1054.94 258.239 1033.04 C 255.834 1028.99 255.486 1025.07 256.841 1020.63 C 259.006 1017.59 261.605 1017.23 265.23 1015.99 C 262.545 1012.95 259.789 1009.46 257.187 1006.31 C 261.102 1003.99 265.212 1002.02 269.471 1000.42 C 286.792 993.795 304.72 995.645 321.435 1002.97 C 318.17 998.076 312.922 990.252 311.418 984.677 C 308.469 973.748 310.419 936.008 323.016 932.645 C 327.867 933.972 331.13 936.948 335.229 939.986 z"/>
<path transform="translate(0,0)" fill="rgb(247,233,230)" d="M 427.308 942.08 C 427.713 946.45 428.049 951.178 428.641 955.494 L 437.814 950.815 C 438.219 968.381 437.019 994.592 423.797 1008.14 L 418.363 1014.72 C 411.744 1017.81 405.127 1017.04 398.651 1019.42 C 396.044 1019.12 396.16 1018.71 393.692 1017.06 L 391.737 1016.16 C 390.983 1011.17 391.758 1009.97 388.292 1006.11 C 391.323 1002.9 393.822 999.177 391.628 994.952 C 386.721 992.282 387.316 992.745 381.808 992.663 L 380.282 989.932 C 391.543 965.209 402.748 953.528 427.308 942.08 z"/>
<path transform="translate(0,0)" fill="rgb(247,233,230)" d="M 304.837 1076.95 L 302.662 1077.52 L 301.413 1076.55 C 303.51 1063.82 345.573 1036.8 356.998 1040.79 L 357.595 1043.05 C 361.296 1043.27 365.001 1043.4 368.708 1043.42 C 372.602 1046.56 374.076 1055.98 375.459 1061.38 L 373.563 1066.91 L 373.41 1071.63 C 370.112 1076.2 369.174 1077.62 364.959 1081.28 C 352.841 1092.65 334.088 1093.7 318.496 1093.96 C 314.467 1091.57 307.575 1087.95 304.783 1084.21 C 302.789 1081.54 303.904 1080.33 304.837 1076.95 z"/>
<path transform="translate(0,0)" fill="rgb(244,212,209)" d="M 304.837 1076.95 L 306.933 1076.07 C 320.442 1079.62 313.226 1094.16 329.285 1078.46 C 341.448 1078.59 348.129 1082.33 359.132 1079.33 L 359.638 1080.06 C 357.198 1082.38 357.49 1081.29 356.672 1083.93 C 359.558 1083.08 362.114 1082.25 364.959 1081.28 C 352.841 1092.65 334.088 1093.7 318.496 1093.96 C 314.467 1091.57 307.575 1087.95 304.783 1084.21 C 302.789 1081.54 303.904 1080.33 304.837 1076.95 z"/>
<path transform="translate(0,0)" fill="rgb(194,149,137)" d="M 320.225 1084.36 C 336.727 1067.06 339.379 1082.06 358.34 1077.4 L 359.132 1079.33 C 348.129 1082.33 341.448 1078.59 329.285 1078.46 C 313.226 1094.16 320.442 1079.62 306.933 1076.07 C 314.736 1075.82 315.332 1078.67 320.225 1084.36 z"/>
<path transform="translate(0,0)" fill="url(#Gradient11)" d="M 358.34 1077.4 C 366.088 1074.61 367.996 1072.59 373.563 1066.91 L 373.41 1071.63 C 370.112 1076.2 369.174 1077.62 364.959 1081.28 C 362.114 1082.25 359.558 1083.08 356.672 1083.93 C 357.49 1081.29 357.198 1082.38 359.638 1080.06 L 359.132 1079.33 L 358.34 1077.4 z"/>
<path transform="translate(0,0)" fill="rgb(247,233,230)" d="M 402.922 1020.89 C 419.789 1017.29 427.604 1015.91 445.092 1017.32 C 424.077 1027.89 450.289 1038.42 424.377 1037.87 C 415.247 1056.57 421.706 1056.67 401.295 1064.81 C 395.862 1064.93 391.926 1065.98 386.678 1067.13 C 382.675 1066.21 380.732 1064.39 377.266 1061.98 L 376.365 1052.85 L 378.545 1051.15 C 391.786 1052.31 396.971 1044.89 402.976 1034.76 C 403.254 1029.44 403.222 1026.22 402.922 1020.89 z"/>
<path transform="translate(0,0)" fill="url(#Gradient10)" d="M 386.779 1078.92 C 385.097 1074.64 383.081 1072.19 383.776 1068.53 L 386.706 1067.91 L 387.374 1069.8 L 389.288 1073.02 C 396.406 1087.8 403.249 1104.56 416.195 1114.97 C 428.562 1124.91 423.083 1130 415.339 1140.87 C 399.625 1122.31 399.527 1112.06 377.691 1101.62 L 377.596 1100.11 C 379.949 1095.99 380.153 1094.71 384.248 1093.04 L 382.739 1088.3 L 381.447 1086.47 C 381.56 1083.93 382.592 1082.84 383.95 1080.62 L 386.779 1078.92 z"/>
<path transform="translate(0,0)" fill="rgb(175,130,103)" d="M 386.779 1078.92 C 386.639 1084.2 393.617 1086.73 391.102 1091.64 C 388.806 1090.62 384.955 1089.38 383.19 1088.08 L 382.739 1088.3 L 381.447 1086.47 C 381.56 1083.93 382.592 1082.84 383.95 1080.62 L 386.779 1078.92 z"/>
<path transform="translate(0,0)" fill="url(#Gradient9)" d="M 386.352 1025.62 C 387.934 1024.77 400.358 1021.58 402.922 1020.89 C 403.222 1026.22 403.254 1029.44 402.976 1034.76 C 396.971 1044.89 391.786 1052.31 378.545 1051.15 L 376.365 1052.85 C 374.19 1048.85 368.12 1038.83 368.198 1034.97 L 369.9 1035.06 L 371.658 1037.46 L 372.932 1036.79 L 371.873 1037.14 L 373.32 1036.16 L 373.818 1034.54 C 376.496 1036.35 375.365 1036.02 378.359 1036.51 C 382.357 1031.27 383.624 1032.05 386.352 1025.62 z"/>
<path transform="translate(0,0)" fill="rgb(244,212,209)" d="M 441.089 1035.73 L 443.216 1036.56 C 434.652 1064.71 414.097 1071.67 387.374 1069.8 L 386.706 1067.91 L 386.678 1067.13 C 391.926 1065.98 395.862 1064.93 401.295 1064.81 L 402.604 1065.34 C 408.875 1063.87 413.067 1061.44 418.796 1058.55 L 426.411 1040.06 C 433.595 1040.27 437.616 1042.21 441.089 1035.73 z"/>
<path transform="translate(0,0)" fill="rgb(197,202,147)" d="M 336.844 1099.11 C 338.539 1094.21 349.793 1091.48 354.523 1091.63 C 353.305 1093.58 353.327 1093.07 350.957 1094.41 L 350.416 1095.65 C 355.968 1095.99 363.443 1092.15 371.481 1095.35 L 372.98 1094.08 C 376.649 1094.19 375.143 1093.58 377.826 1095.43 L 377.817 1096.97 C 377.552 1097.16 362.133 1102.54 360.726 1102.82 C 355.505 1103.88 343.817 1098.29 339.151 1100.38 L 336.844 1099.11 z"/>
<path transform="translate(0,0)" fill="rgb(242,208,192)" d="M 380.282 989.932 L 381.808 992.663 C 387.316 992.745 386.721 992.282 391.628 994.952 C 393.822 999.177 391.323 1002.9 388.292 1006.11 C 388.529 1001.38 390.198 1001.61 390.343 997.615 C 387.411 995.857 383.824 1002.21 377.403 1002.74 L 376.472 1001.14 C 376.806 996.765 378.469 993.949 380.282 989.932 z"/>
<path transform="translate(0,0)" fill="rgb(236,183,177)" d="M 377.906 1025.32 C 383.55 1018.53 383.055 1014.65 387.724 1009.03 L 389.07 1009.3 C 389.71 1011.78 389.633 1017.18 390.192 1017.97 L 393.692 1017.06 C 396.16 1018.71 396.044 1019.12 398.651 1019.42 C 395.553 1020.86 381.732 1024.42 377.906 1025.32 z"/>
<path transform="translate(0,0)" fill="rgb(247,246,236)" d="M 367.795 1083.48 C 371.19 1079.72 372.676 1077.64 375.533 1073.43 C 377.568 1078.59 378.819 1081.46 381.447 1086.47 L 382.739 1088.3 L 384.248 1093.04 C 382.554 1092.55 372.095 1085.58 367.795 1083.48 z"/>
<path transform="translate(0,0)" fill="rgb(202,154,129)" d="M 375.459 1061.38 L 377.266 1061.98 C 380.732 1064.39 382.675 1066.21 386.678 1067.13 L 386.706 1067.91 L 383.776 1068.53 C 383.081 1072.19 385.097 1074.64 386.779 1078.92 L 383.95 1080.62 C 378.585 1075.01 379.034 1072.04 377.811 1065.26 C 375.255 1067.69 376.249 1069.24 373.41 1071.63 L 373.563 1066.91 L 375.459 1061.38 z"/>
<path transform="translate(0,0)" fill="rgb(236,183,177)" d="M 373.818 1034.54 C 373.131 1030 371.601 1033.26 373.216 1028.34 C 376.017 1026.36 381.11 1027.7 386.352 1025.62 C 383.624 1032.05 382.357 1031.27 378.359 1036.51 C 375.365 1036.02 376.496 1036.35 373.818 1034.54 z"/>
<path transform="translate(0,0)" fill="url(#Gradient8)" d="M 423.797 1008.14 L 424.697 1008.04 C 425.975 1006.91 426.895 1006.15 428.258 1005.12 L 432.678 1007.07 L 427.793 1012.78 C 423.986 1015.21 423.601 1014.4 418.363 1014.72 L 423.797 1008.14 z"/>
<path transform="translate(0,0)" fill="rgb(242,208,192)" d="M 441.089 1035.73 C 439.58 1031.15 438.431 1029.45 439.833 1025.15 L 441.387 1023.34 C 445.932 1025.43 443.938 1032.19 443.216 1036.56 L 441.089 1035.73 z"/>
<path transform="translate(0,0)" fill="rgb(247,233,230)" d="M 340.833 927.019 C 342.06 927.582 343.275 928.169 344.479 928.781 C 369.942 941.775 375.679 951.679 384.071 977.496 L 377.156 990.837 C 375.785 993.944 376.135 994.817 373.853 995.735 L 372.857 994.164 C 369.769 989.342 366.715 984.525 361.183 989.875 C 361.651 993.205 360.952 991.828 363.302 994.173 L 366.477 994.471 L 367.126 996.747 L 366.108 998.046 L 364.872 997.945 C 345.987 996.583 357.148 1010 352.481 1011.47 L 351.465 1010.22 C 350.001 1008.45 350.615 1009.13 348.964 1007.53 L 348.349 1008.55 L 349.404 1011.46 C 343.15 1014.49 335.275 1011.47 329.919 1007.99 C 307.008 989.532 308.846 957.548 322.457 934.178 C 327.02 937.36 331.452 942.061 336.846 939.979 C 339.515 936.344 339.928 931.601 340.833 927.019 z"/>
<path transform="translate(0,0)" fill="rgb(244,212,209)" d="M 337.317 987.054 C 347.14 979.721 349.774 978.891 361.527 977.972 C 370.69 982.895 370.826 988.233 377.156 990.837 C 375.785 993.944 376.135 994.817 373.853 995.735 L 372.857 994.164 C 369.769 989.342 366.715 984.525 361.183 989.875 C 361.651 993.205 360.952 991.828 363.302 994.173 L 366.477 994.471 L 367.126 996.747 L 366.108 998.046 L 364.872 997.945 C 345.987 996.583 357.148 1010 352.481 1011.47 L 351.465 1010.22 C 350.001 1008.45 350.615 1009.13 348.964 1007.53 L 348.349 1008.55 L 349.404 1011.46 C 343.15 1014.49 335.275 1011.47 329.919 1007.99 C 334.316 1006.46 332.331 1006.28 336.117 1007.85 L 335.598 1008.41 L 339.319 1008.73 L 339.041 1007.26 C 329.687 1001.32 339.032 1000.54 337.317 987.054 z"/>
<path transform="translate(0,0)" fill="url(#Gradient7)" d="M 260.518 1007.28 C 269.801 1002.4 276.141 1000.23 286.656 999.158 C 300.458 997.75 332.389 1001.48 333.697 1018.78 C 333.099 1023.39 333.964 1022.32 331.16 1024.52 C 330.425 1026.76 330.429 1026.59 330.747 1028.92 C 335.586 1032.26 343.911 1028.2 347.943 1032.88 C 346.508 1042.51 316.68 1055.44 305.846 1053.1 C 285.489 1048.7 270.683 1037.09 258.193 1021.14 C 262.666 1019.99 265.187 1019.95 267.544 1016.44 C 266.953 1013.1 263.057 1009.9 260.518 1007.28 z"/>
<path transform="translate(0,0)" fill="rgb(247,233,230)" d="M 259.541 1027.61 C 264.401 1029.34 276.436 1042.78 281.359 1045.56 C 287.508 1049.04 295.72 1052.39 302.225 1055.32 L 301.454 1056.2 C 283.09 1057.96 266.651 1043.59 259.541 1027.61 z"/>
<path transform="translate(0,0)" fill="rgb(247,233,230)" d="M 440.859 950.648 C 446.653 957.067 446.757 988.108 439.916 993.226 L 438.84 992.729 C 440.175 988.182 441.096 988.834 441.6 983.452 L 440.648 982.399 L 439.67 983.504 C 438.024 988.848 437.332 991.982 434.184 996.718 C 434.231 992.166 438.516 982.078 439.133 977.058 C 440.215 968.25 439.712 959.471 440.859 950.648 z"/>
<path transform="translate(0,0)" fill="rgb(242,208,192)" d="M 333.697 1018.78 L 335.12 1019.57 C 339.185 1021.79 346.542 1023.05 348.994 1027.6 C 347.751 1029.72 348.607 1028.8 345.723 1029.78 C 341.685 1028.77 335.381 1027.69 333.031 1025.07 C 332.407 1024.88 331.783 1024.7 331.16 1024.52 C 333.964 1022.32 333.099 1023.39 333.697 1018.78 z"/>
<path transform="translate(0,0)" fill="rgb(194,149,137)" d="M 704.694 921.978 C 704.077 896.701 712.116 879.083 733.831 865.465 C 736.47 869.189 739.081 873.452 741.57 877.321 L 749.804 866.357 C 767.632 882.117 772.15 901.538 767.437 924.41 C 776.968 918.67 805.157 906.493 814.905 914.14 C 815.764 916.991 814.736 918.53 813.657 921.447 L 813.189 922.685 L 814.139 923.808 C 817.557 923.526 818.144 923.252 821.493 924.156 C 827.849 931.359 822.081 941.896 817.877 948.95 C 811.164 960.21 802.134 966.976 789.386 970.126 L 788.087 972.989 C 793.051 975.484 794.794 976.299 799.088 979.735 C 804.989 989.976 789.694 1003.58 781.652 1007.82 C 771.933 1012.95 761.618 1016.45 750.728 1013.04 C 744.493 1011.42 738.5 1007.05 734.927 1005.89 C 733.417 1031.97 733.908 1036.05 743.085 1060.84 C 738.122 1064.48 734.504 1067.14 729.189 1070.28 C 725.082 1057.96 724.468 1035.75 720.123 1030.77 L 712.848 1025.48 C 706.672 1027.83 698.379 1023.51 693.537 1019.71 C 684.421 1015.33 681.869 1006.07 679.429 1004.75 C 672.249 1001.14 665.347 997.626 661.346 989.974 C 653.962 975.854 666.175 970.447 675.78 965.879 L 674.003 965.043 C 654.605 955.738 635.858 934.798 647.19 912.505 C 650.523 911.132 650.352 911.87 654.712 912.85 L 655.722 911.891 C 654.743 908.687 653.72 906.749 654.678 903.601 C 667.115 892.483 695.552 912.516 704.694 921.978 z"/>
<path transform="translate(0,0)" fill="url(#Gradient6)" d="M 785.798 967.168 C 777.934 970.633 773.434 968.826 765.029 967.309 C 763.049 966.952 747.066 962.545 746.738 962.132 C 752.176 956.715 759.114 950.023 764.792 944.998 L 764.617 943.558 C 760.546 944.124 761.176 947.916 756.658 949.427 C 756.38 947.931 754.814 939.961 755.257 939.111 C 763.578 923.134 795.572 913.473 811.373 915.177 L 812.239 916.939 C 811.359 920.447 811.152 921.494 810.77 925.078 C 813.449 928.67 811.519 925.263 817.983 926.603 L 818.567 928.596 C 817.543 930.155 816.112 932.022 815.548 933.701 C 810.063 944.179 805.836 950.125 797.867 958.996 C 794.19 961.555 789.581 964.964 785.798 967.168 z"/>
<path transform="translate(0,0)" fill="url(#Gradient5)" d="M 752.805 967.426 C 773.779 970.594 778.146 971.283 797.445 980.193 C 787.793 986.008 789.655 985.505 786.98 995.874 C 765.215 983.717 773.53 1006.41 752.163 1003.82 C 749.156 1002.65 737.453 1000.65 733.614 999.914 L 732.328 999.94 C 727.922 992.052 729.818 990.015 732.018 980.73 L 731.999 974.395 C 737.572 972.056 744.318 970.959 750.352 971.015 L 752.805 967.426 z"/>
<path transform="translate(0,0)" fill="rgb(244,212,209)" d="M 731.999 974.395 C 737.572 972.056 744.318 970.959 750.352 971.015 C 739.88 976.488 744.268 977.645 732.018 980.73 L 731.999 974.395 z"/>
<path transform="translate(0,0)" fill="url(#Gradient4)" d="M 703.259 964.508 L 715.13 963.392 C 714.269 968.179 713.466 967.95 715.169 971.422 C 717.244 972.1 718.947 972.665 721.069 973.203 C 726.977 978.043 728.347 977.172 729.787 983.917 C 728.069 992.472 727.217 995.318 718.551 997.836 L 717.082 998.273 C 714.079 997.773 712.592 998.303 709.641 998.907 C 696.005 996.834 697.627 990.755 685.756 986.699 C 683.49 985.925 677.591 989.566 674.127 987.959 C 669.525 973.763 668.103 982.577 662.355 977.087 L 663.004 974.752 C 670.488 967.584 693.107 965.208 703.259 964.508 z"/>
<path transform="translate(0,0)" fill="rgb(244,212,209)" d="M 703.259 964.508 L 715.13 963.392 C 714.269 968.179 713.466 967.95 715.169 971.422 C 717.244 972.1 718.947 972.665 721.069 973.203 L 717.882 976.117 C 708.691 978.32 706.583 971.527 703.259 964.508 z"/>
<path transform="translate(0,0)" fill="rgb(175,130,103)" d="M 721.805 1000.8 C 723.665 999.664 723.23 999.799 725.277 999.125 L 729.067 1002.25 C 731.774 1001.55 730.637 1002.2 732.328 999.94 L 733.614 999.914 L 735.802 1003.55 L 734.927 1005.89 C 733.417 1031.97 733.908 1036.05 743.085 1060.84 C 738.122 1064.48 734.504 1067.14 729.189 1070.28 C 725.082 1057.96 724.468 1035.75 720.123 1030.77 L 712.848 1025.48 C 713.885 1022.67 716.357 1020.31 718.378 1017.98 C 716.261 1014.93 712.056 1010.99 711.449 1007.79 L 710.301 1005.61 C 713.804 1004.56 718.374 1002.34 721.805 1000.8 z"/>
<path transform="translate(0,0)" fill="rgb(247,246,236)" d="M 710.301 1005.61 C 713.804 1004.56 718.374 1002.34 721.805 1000.8 L 723.219 1002.68 C 723.117 1007.46 723.206 1017.56 722.139 1021.77 L 718.378 1017.98 C 716.261 1014.93 712.056 1010.99 711.449 1007.79 L 710.301 1005.61 z"/>
<path transform="translate(0,0)" fill="rgb(202,154,129)" d="M 710.301 1005.61 C 713.804 1004.56 718.374 1002.34 721.805 1000.8 L 723.219 1002.68 C 718.849 1004.85 716.116 1006.19 711.449 1007.79 L 710.301 1005.61 z"/>
<path transform="translate(0,0)" fill="rgb(202,154,129)" d="M 732.258 1051.59 C 736.213 1054.97 734.45 1059.68 732.843 1063.66 C 730.991 1062.57 731.798 1063.32 730.527 1061.32 C 731.621 1057.55 731.911 1056.41 732.199 1052.49 L 732.258 1051.59 z"/>
<path transform="translate(0,0)" fill="rgb(244,212,209)" d="M 799.088 979.735 C 804.989 989.976 789.694 1003.58 781.652 1007.82 C 771.933 1012.95 761.618 1016.45 750.728 1013.04 C 744.493 1011.42 738.5 1007.05 734.927 1005.89 L 735.802 1003.55 L 733.614 999.914 C 737.453 1000.65 749.156 1002.65 752.163 1003.82 L 751.708 1005.29 C 760.602 1010.47 770.959 998.295 775.95 992.82 C 780.057 994.957 787.009 996.891 789.014 1000.19 C 794.909 994.302 797.984 987.875 799.088 979.735 z"/>
<path transform="translate(0,0)" fill="rgb(176,125,114)" d="M 799.088 979.735 C 804.989 989.976 789.694 1003.58 781.652 1007.82 C 771.933 1012.95 761.618 1016.45 750.728 1013.04 C 744.493 1011.42 738.5 1007.05 734.927 1005.89 L 735.802 1003.55 C 753.704 1015.3 772.617 1013.6 789.014 1000.19 C 794.909 994.302 797.984 987.875 799.088 979.735 z"/>
<path transform="translate(0,0)" fill="rgb(244,212,209)" d="M 707.34 1006.05 C 704.81 1004.76 683.826 1004.22 677.195 1000.82 C 666.882 995.527 667.41 994.543 662.634 984.468 C 662.905 980.881 662.159 982.247 664.561 980.044 L 666.953 980.463 C 672.794 984.888 668.558 989.586 675.47 991.86 C 678.925 991.376 679.981 990.091 682.737 987.906 L 683.785 987.063 C 690.33 991.752 701.65 1001.86 709.641 998.907 C 712.592 998.303 714.079 997.773 717.082 998.273 L 721.805 1000.8 C 718.374 1002.34 713.804 1004.56 710.301 1005.61 L 707.34 1006.05 z"/>
<path transform="translate(0,0)" fill="rgb(197,202,147)" d="M 710.301 1005.61 L 711.449 1007.79 C 712.056 1010.99 716.261 1014.93 718.378 1017.98 C 716.357 1020.31 713.885 1022.67 712.848 1025.48 C 706.672 1027.83 698.379 1023.51 693.537 1019.71 C 692.725 1014.39 685.932 1012.05 684.785 1006.79 C 686.461 1006.27 701.645 1008.61 706.29 1008.01 L 707.34 1006.05 L 710.301 1005.61 z"/>
<path transform="translate(0,0)" fill="url(#Gradient3)" d="M 818.567 928.596 L 820.649 928.872 C 822.129 934.894 815.916 945.945 813.912 950.505 C 809.452 960.653 791.857 966.684 789.386 970.126 L 788.087 972.989 C 786.021 972.407 786.969 972.889 785.255 971.517 L 785.798 967.168 C 789.581 964.964 794.19 961.555 797.867 958.996 C 805.836 950.125 810.063 944.179 815.548 933.701 C 816.112 932.022 817.543 930.155 818.567 928.596 z"/>
<path transform="translate(0,0)" fill="rgb(204,187,182)" d="M 815.548 933.701 C 815.9 940.665 804.834 955.569 798.808 959.004 L 797.867 958.996 C 805.836 950.125 810.063 944.179 815.548 933.701 z"/>
<path transform="translate(0,0)" fill="rgb(236,183,177)" d="M 731.999 974.395 C 729.825 971.564 728.141 968.967 728.286 965.374 L 729.747 964.176 C 736.061 962.933 746.498 965.74 752.805 967.426 L 750.352 971.015 C 744.318 970.959 737.572 972.056 731.999 974.395 z"/>
<path transform="translate(0,0)" fill="rgb(236,183,177)" d="M 715.13 963.392 C 725.54 959.421 731.129 975.192 729.787 983.917 C 728.347 977.172 726.977 978.043 721.069 973.203 C 718.947 972.665 717.244 972.1 715.169 971.422 C 713.466 967.95 714.269 968.179 715.13 963.392 z"/>
<path transform="translate(0,0)" fill="rgb(247,233,230)" d="M 717.595 937.624 C 696.531 919.6 710.664 878.206 732.32 870.075 C 738.661 872.325 735.226 877.269 742.178 877.908 C 746.252 875.997 747.675 872.993 750.298 869.197 C 764.783 885.674 778.667 920.741 754.106 935.121 C 750.246 937.381 749.348 927.467 744.489 925.419 C 740.95 927.347 741.125 928.529 738.626 932.551 C 731.329 932.445 728.126 930.276 723.339 936.254 L 721.372 938.281 C 720.106 937.961 718.908 937.533 717.595 937.624 z"/>
<path transform="translate(0,0)" fill="rgb(247,233,230)" d="M 652.191 927.691 C 651.037 923.429 650.522 921.196 648.716 917.223 L 649.414 915.504 C 653.695 914.707 656.81 915.777 658.781 914.21 C 657.923 910.321 656.468 907.406 658.023 904.575 C 670.839 898.279 708.896 919.051 710.344 935.894 C 710.552 938.313 703.358 945.016 703.031 949.554 L 703.668 950.977 C 704.985 953.961 706.373 956.035 705.819 959.142 C 701.505 963.456 687.106 964.284 681.251 963.332 C 679.14 964.714 679.939 964.43 677.541 964.742 C 665.175 959.422 657.782 953.373 651.325 941.031 C 649.121 936.817 646.398 928.733 647.966 924.008 L 648.928 924.08 L 650.345 926.966 L 652.191 927.691 z"/>
<path transform="translate(0,0)" fill="url(#Gradient2)" d="M 681.251 963.332 C 679.14 964.714 679.939 964.43 677.541 964.742 C 665.175 959.422 657.782 953.373 651.325 941.031 C 649.121 936.817 646.398 928.733 647.966 924.008 L 648.928 924.08 L 650.345 926.966 L 652.191 927.691 L 652.716 928.337 C 656.355 935.441 661.745 945.478 666.75 951.782 C 671.393 955.882 676.013 960.03 681.251 963.332 z"/>
<path transform="translate(0,0)" fill="rgb(194,149,137)" d="M 666.75 951.782 C 660 949.629 652.112 935.084 652.716 928.337 C 656.355 935.441 661.745 945.478 666.75 951.782 z"/>
<path transform="translate(0,0)" fill="rgb(242,208,192)" d="M 717.595 937.624 C 718.908 937.533 720.106 937.961 721.372 938.281 L 723.339 936.254 L 723.373 937.32 C 723.642 944.085 726.736 948.839 723.734 953.164 L 721.719 952.362 C 720.507 948.883 721.042 948.274 718.641 947.028 L 718.002 949.527 C 714.187 949.161 715.639 949.954 713.208 947.718 C 713.092 943.614 715.84 941.272 717.595 937.624 z"/>
<path transform="translate(0,0)" fill="rgb(202,154,129)" d="M 738.505 934.602 L 739.775 936.114 C 739.372 938.906 739.14 941.61 738.878 944.413 C 739.476 945.63 739.088 946.095 738.907 947.918 L 735.392 950.758 C 733.574 950.207 734.166 950.354 732.601 948.957 C 733.016 941.891 733.35 939.101 738.505 934.602 z"/>
<path transform="translate(0,0)" fill="rgb(147,172,175)" d="M 582.437 1061.3 C 591.771 1063.39 597.525 1082.9 600.602 1091.18 C 608.767 1090.15 630.48 1086.25 632.835 1096.68 C 630.619 1105.93 617.033 1115.35 609.341 1121.57 C 612.984 1130.44 618.35 1142.75 616.411 1152.04 C 608.857 1161.95 592.439 1144.38 586.125 1138.65 C 585.949 1138.47 585.821 1138.23 585.596 1138.12 C 580.938 1135.96 564.428 1155.46 555.593 1155.31 C 553.98 1155.28 553.578 1154.34 552.504 1153.3 C 550.159 1145.25 555.325 1130.69 557.995 1122.74 C 550.522 1117.85 539.376 1111.59 536.216 1103.3 C 537.25 1092.46 561.038 1094.39 569.743 1094.12 C 572.538 1081.6 575.845 1072.24 582.437 1061.3 z"/>
<path transform="translate(0,0)" fill="rgb(187,216,216)" d="M 583.382 1064.37 C 589.744 1066.68 596.365 1088.45 598.599 1094.72 C 600.824 1094.26 603.068 1093.9 605.325 1093.64 C 612.068 1092.82 629.099 1089.19 629.661 1098.62 C 626.101 1107.13 613.846 1115.04 606.011 1119.47 C 608.494 1126.37 618.296 1147.82 611.232 1153.04 C 603.706 1153.01 593.174 1142.47 587.892 1137.23 L 584.405 1133.47 C 578.646 1138.78 563.224 1153.01 555.422 1151.42 L 554.315 1149.39 C 553.904 1141.41 558.585 1129.43 561.267 1121.51 C 554.111 1117.56 542.336 1111.39 538.887 1104.06 C 540.167 1094.8 563.575 1096.66 571.521 1096.57 C 574.121 1085.26 576.62 1073.96 583.382 1064.37 z"/>
<path transform="translate(0,0)" fill="rgb(187,216,216)" d="M 1446.13 909.942 C 1449.73 902.763 1458.39 889.043 1466.16 886.084 C 1476.26 887.449 1475.05 909.378 1475.13 917.458 C 1517.17 925.949 1507.94 939.108 1473.19 948.584 C 1473.19 957.98 1475.47 978.832 1464.69 981.758 C 1455.27 979.349 1448.19 962.599 1444.84 954.069 C 1435.3 957.676 1422.17 962.834 1411.95 960.747 C 1409.04 958.526 1409.87 959.924 1409.14 956.568 L 1410.32 952.77 C 1411.87 949.387 1411.73 949.284 1414.49 946.543 L 1425.35 931.978 C 1396.08 896.411 1414.58 897.003 1446.13 909.942 z"/>
<path transform="translate(0,0)" fill="rgb(147,172,175)" d="M 1446.13 909.942 C 1449.73 902.763 1458.39 889.043 1466.16 886.084 C 1476.26 887.449 1475.05 909.378 1475.13 917.458 C 1517.17 925.949 1507.94 939.108 1473.19 948.584 C 1473.19 957.98 1475.47 978.832 1464.69 981.758 C 1455.27 979.349 1448.19 962.599 1444.84 954.069 C 1435.3 957.676 1422.17 962.834 1411.95 960.747 C 1409.04 958.526 1409.87 959.924 1409.14 956.568 L 1410.32 952.77 C 1410.55 954.009 1410.53 956.244 1410.15 957.397 C 1411.99 956.725 1411.14 957.113 1412.62 955.27 L 1414.53 958.241 C 1422.34 958.474 1439.09 954.338 1445.69 950.494 C 1446.35 952.055 1447.03 953.611 1447.73 955.16 C 1450.52 961.368 1458.7 980.64 1467.02 976.365 C 1471.49 969.386 1470.8 954.244 1470.14 945.983 C 1477.39 944.406 1500 939.057 1499.3 930.33 C 1493.98 923.665 1479.92 921.541 1471.61 919.674 C 1472.28 906.408 1471.2 899.381 1469.04 886.124 C 1459.2 892.393 1452.49 902.727 1446.3 912.445 C 1438.04 909.429 1423.95 903.381 1415.6 905.042 C 1409.13 911.022 1424.96 926.848 1429.62 932.391 C 1424.93 936.852 1419.42 945.452 1414.49 946.543 L 1425.35 931.978 C 1396.08 896.411 1414.58 897.003 1446.13 909.942 z"/>
<path transform="translate(0,0)" fill="rgb(147,172,175)" d="M 1401.37 1067.89 C 1410.62 1071.08 1420.87 1081.25 1427.63 1088.08 C 1465.11 1061.8 1464.65 1079.04 1447.9 1110.3 C 1454.49 1117.09 1466.68 1127.77 1467.45 1136.69 C 1463.07 1145.89 1445.86 1139.43 1438.19 1137.43 C 1437.63 1137.19 1432.42 1135 1431.95 1135.83 C 1428.35 1142.24 1419.96 1167.01 1410.41 1162.91 C 1405.36 1156.37 1404.29 1141.48 1403.87 1133.3 C 1362.97 1128.5 1363.44 1117.13 1401.33 1103.64 C 1399.16 1093.94 1397.08 1076.89 1401.37 1067.89 z"/>
<path transform="translate(0,0)" fill="rgb(187,216,216)" d="M 1401.32 1071.25 C 1410.49 1072.42 1421.66 1083.87 1427.13 1090.97 C 1433.05 1086.67 1449.66 1074.02 1456.11 1080.11 C 1458.39 1088.56 1449.54 1103 1445.33 1111.14 C 1451.07 1115.53 1463.37 1127.34 1465.16 1134.45 C 1462.46 1143.23 1444.96 1136.7 1438.61 1134.88 C 1435.41 1133.5 1434.34 1133.17 1430.95 1132.23 C 1426.41 1138.74 1421.66 1159.55 1411.89 1160.3 C 1406.84 1155.87 1406.21 1138.05 1405.77 1131.42 C 1398.11 1130.44 1376.78 1129.73 1376.19 1120.73 C 1380.24 1113.62 1395.9 1108 1403.47 1105.07 C 1401.77 1093.88 1401.05 1082.56 1401.32 1071.25 z"/>
<path transform="translate(0,0)" fill="rgb(187,216,216)" d="M 534.274 896.823 C 532.958 892.61 537.105 876.313 545.582 878.747 C 548.462 881.613 548.941 883.812 550.495 887.692 L 554.957 898.305 C 561.952 897.324 577.307 893.049 578.449 902.921 C 575.217 911.04 568.748 915.12 561.921 920.84 C 565.25 928.946 568.902 934.991 567.704 943.464 C 565.566 946.548 566.988 945.563 563.216 946.4 C 555.66 944.651 549.012 938.833 543.311 933.525 C 537.941 938.145 530.892 944.397 524.214 946.896 L 522.004 946.602 C 516.996 938.49 524.674 927.861 523.184 922.297 L 521.687 920.348 C 516.156 919.227 509.118 914.252 506.747 908.964 C 507.08 905.623 506.419 907.076 509.143 904.63 C 516.988 900.809 520.785 902.202 529.079 901.317 C 532.42 900.96 532.528 899.536 534.274 896.823 z"/>
<path transform="translate(0,0)" fill="rgb(147,172,175)" d="M 559.304 919.336 C 564.265 915.47 575.519 906.746 576.622 900.778 C 568.827 893.295 547.62 911.368 550.495 887.692 L 554.957 898.305 C 561.952 897.324 577.307 893.049 578.449 902.921 C 575.217 911.04 568.748 915.12 561.921 920.84 C 565.25 928.946 568.902 934.991 567.704 943.464 C 565.566 946.548 566.988 945.563 563.216 946.4 C 555.66 944.651 549.012 938.833 543.311 933.525 C 537.941 938.145 530.892 944.397 524.214 946.896 L 522.004 946.602 C 516.996 938.49 524.674 927.861 523.184 922.297 L 521.687 920.348 L 524.536 920.98 C 530.241 928.156 516.005 938.596 523.747 943.782 C 530.69 943.686 535.948 934.794 543.128 930.58 C 550.02 932.272 554.245 946.033 564.495 943.344 C 565.744 940.201 560.598 924.474 559.304 919.336 z"/>
<path transform="translate(0,0)" fill="rgb(147,172,175)" d="M 534.274 896.823 C 535.128 900.323 535.262 898.686 534.058 901.918 C 529.741 905.026 516.45 904.913 510.766 905.452 L 509.143 904.63 C 516.988 900.809 520.785 902.202 529.079 901.317 C 532.42 900.96 532.528 899.536 534.274 896.823 z"/>
<path transform="translate(0,0)" fill="rgb(187,216,216)" d="M 1212.92 1089.63 C 1214.74 1083.34 1217.85 1064.64 1226.41 1067.6 C 1231.79 1073 1233.8 1079.27 1236.73 1086.3 C 1245 1085.53 1252.1 1083.71 1259.13 1087.59 C 1263.61 1095.06 1249.51 1104.21 1243.97 1108.56 C 1247.37 1116.8 1250.9 1122.64 1249.66 1131.32 C 1243.95 1138.85 1230.95 1125.51 1226.04 1120.85 C 1220.11 1125.51 1212.03 1132.82 1204.83 1133.94 C 1196.9 1131.35 1207.27 1115.63 1205.04 1110.15 C 1205.04 1110.15 1200.64 1107.15 1200.12 1106.8 C 1198.76 1106.42 1197.93 1105.6 1196.66 1104.72 C 1192.42 1102.19 1191.12 1101.78 1188.18 1098.01 L 1187.69 1095.24 C 1192.73 1088.08 1205.09 1088.98 1212.92 1089.63 z"/>
<path transform="translate(0,0)" fill="rgb(147,172,175)" d="M 1212.92 1089.63 C 1214.74 1083.34 1217.85 1064.64 1226.41 1067.6 C 1231.79 1073 1233.8 1079.27 1236.73 1086.3 C 1245 1085.53 1252.1 1083.71 1259.13 1087.59 C 1263.61 1095.06 1249.51 1104.21 1243.97 1108.56 C 1247.37 1116.8 1250.9 1122.64 1249.66 1131.32 C 1243.95 1138.85 1230.95 1125.51 1226.04 1120.85 C 1220.11 1125.51 1212.03 1132.82 1204.83 1133.94 C 1196.9 1131.35 1207.27 1115.63 1205.04 1110.15 C 1205.04 1110.15 1200.64 1107.15 1200.12 1106.8 L 1204.78 1107.65 C 1210.71 1113.07 1204.08 1119.43 1204.96 1129.23 L 1206.6 1130.21 C 1213.62 1128.69 1220.48 1122.06 1225.99 1117.41 C 1229.64 1121.38 1240.93 1133.41 1246.16 1129.04 C 1247.89 1121.9 1243.67 1114.35 1240.83 1107.39 C 1245.82 1103.88 1258.53 1096.21 1256.87 1089.69 C 1251.25 1086.15 1241.05 1088.55 1234.11 1089.47 C 1231.82 1079.69 1229.64 1075.57 1224.35 1067.38 C 1219.09 1075.9 1217.24 1082.41 1214.24 1091.88 C 1208.36 1091.74 1198.2 1091.73 1192.8 1093.91 L 1192.13 1095.63 C 1193.85 1101.26 1195.61 1099.11 1196.66 1104.72 C 1192.42 1102.19 1191.12 1101.78 1188.18 1098.01 L 1187.69 1095.24 C 1192.73 1088.08 1205.09 1088.98 1212.92 1089.63 z"/>
<path transform="translate(0,0)" fill="rgb(191,197,139)" d="M 266.28 857.197 L 272.458 852.237 L 276.337 863.834 C 276.655 864.436 278.14 867.055 278.31 867.801 C 286.123 885.908 287.07 901.499 274.286 917.779 C 269.882 923.412 261.069 931.633 255.731 936.915 C 253.919 927.964 249.822 921.582 246.549 912.858 C 239.886 892.358 243.22 875.821 260.759 862.182 C 261.989 860.2 264.316 858.746 266.28 857.197 z"/>
<path transform="translate(0,0)" fill="rgb(170,156,114)" d="M 266.28 857.197 L 272.458 852.237 L 276.337 863.834 C 275.227 863.033 272.944 860.136 271.527 858.83 C 266.403 870.499 262.055 914.011 258.907 919.84 C 256.814 910.202 266.604 873.308 268.61 862.102 C 269.083 859.463 268.112 859.225 266.28 857.197 z"/>
<path transform="translate(0,0)" fill="rgb(170,156,114)" d="M 246.549 912.858 C 239.886 892.358 243.22 875.821 260.759 862.182 C 260.386 868.06 250.363 875.591 247.263 884.119 C 243.675 893.989 249.201 907.076 246.549 912.858 z"/>
<path transform="translate(0,0)" fill="rgb(175,130,103)" d="M 278.31 867.801 C 286.123 885.908 287.07 901.499 274.286 917.779 C 273.101 912.92 279.223 905.42 281.07 898.188 C 283.849 887.306 276.458 875.082 278.31 867.801 z"/>
<path transform="translate(0,0)" fill="url(#Gradient1)" d="M 1691.99 918.036 C 1699.26 907.97 1701.5 889.551 1711.93 879.031 C 1723.65 867.207 1743.81 867.315 1759.28 866.781 C 1757.15 871.977 1756.34 875.645 1755.02 881.029 C 1752.42 894.24 1743.88 910.344 1730.12 914.558 C 1717.63 920.062 1705.21 918.999 1691.99 918.036 z"/>
<path transform="translate(0,0)" fill="rgb(170,156,114)" d="M 1691.99 918.036 C 1699.26 907.97 1701.5 889.551 1711.93 879.031 C 1723.65 867.207 1743.81 867.315 1759.28 866.781 C 1757.15 871.977 1756.34 875.645 1755.02 881.029 C 1754.76 877.423 1755.3 875.447 1755.94 871.94 L 1754.29 870.322 C 1745.11 867.882 1729.65 872.485 1720.76 875.221 C 1705.67 889.442 1704.87 893.553 1698.75 912.839 C 1709.33 905.64 1742.64 877.447 1749.7 874.244 C 1747.17 876.998 1745.4 878.8 1742.65 881.33 C 1741.33 887.635 1739.96 895.139 1738.42 901.291 L 1737.53 901.103 C 1733.68 908.389 1732.52 909.701 1725.07 913.19 L 1730.12 914.558 C 1717.63 920.062 1705.21 918.999 1691.99 918.036 z"/>
<path transform="translate(0,0)" fill="rgb(197,202,147)" d="M 1739.43 882.637 C 1738.7 887.984 1738.86 897.043 1737.53 901.103 C 1733.68 908.389 1732.52 909.701 1725.07 913.19 C 1714.46 915.999 1709.02 915.397 1698.16 914.964 C 1713.29 906.06 1727.17 895.19 1739.43 882.637 z"/>
<path transform="translate(0,0)" fill="rgb(197,202,147)" d="M 1749.7 874.244 L 1751.71 875.075 C 1753.59 881.849 1745.37 898.814 1738.42 901.291 C 1739.96 895.139 1741.33 887.635 1742.65 881.33 C 1745.4 878.8 1747.17 876.998 1749.7 874.244 z"/>
<path transform="translate(0,0)" fill="rgb(170,156,114)" d="M 1165.28 940.227 C 1191.67 941.393 1207.49 954.474 1213.02 980.874 C 1212.28 981.563 1194.23 983.486 1190.17 984.261 C 1162.65 984.06 1149.3 967.069 1140.68 943.248 C 1151.17 943.868 1155.17 942.616 1165.28 940.227 z"/>
<path transform="translate(0,0)" fill="rgb(191,197,139)" d="M 1159.74 944.335 C 1191.84 940.805 1199.57 954.798 1211.34 980.982 C 1207.05 977.146 1190.65 965.345 1185.34 966.285 L 1187.17 968.673 C 1187.03 970.082 1186.88 971.174 1186.67 972.567 L 1189.79 975.264 C 1190.38 973.029 1190.08 973.755 1191.4 971.696 C 1195.64 971.977 1201.78 973.254 1202.28 978.218 C 1202.02 978.425 1201.76 978.631 1201.51 978.838 C 1181.59 984.924 1165.08 979.285 1153.08 962.049 C 1149.42 956.792 1146.15 951.994 1147.98 947.466 C 1151.52 945.226 1155.5 945.025 1159.74 944.335 z"/>
<path transform="translate(0,0)" fill="rgb(170,156,114)" d="M 1149.74 948.801 C 1157.76 951.333 1168.74 956.639 1174.97 962.402 C 1168.99 961.891 1154.78 952.688 1149.74 948.801 z"/>
<path transform="translate(0,0)" fill="rgb(197,202,147)" d="M 929.578 1157.09 C 921.404 1149.36 910.125 1123.55 917.137 1113.87 C 923.272 1115.87 926.31 1117.01 932.81 1117.22 C 965.81 1127.49 970.528 1140.58 969.762 1173.7 C 953.403 1166.44 943.679 1169.97 929.578 1157.09 z"/>
<path transform="translate(0,0)" fill="rgb(170,156,114)" d="M 932.81 1117.22 C 965.81 1127.49 970.528 1140.58 969.762 1173.7 C 953.403 1166.44 943.679 1169.97 929.578 1157.09 L 930.739 1155.46 C 932.301 1156.45 941.656 1162.54 942.65 1162.84 C 948.286 1163.92 957.389 1167.14 961.225 1166.78 C 962.775 1165.09 962.218 1166.01 962.992 1164.07 L 965.972 1165.67 C 966.163 1164.32 966.319 1164.81 966.004 1164.11 C 966.157 1140.51 955.291 1121.75 929.671 1120.84 C 930.42 1117.87 929.63 1119.19 932.81 1117.22 z"/>
<path transform="translate(0,0)" fill="rgb(170,156,114)" d="M 929.578 1157.09 C 921.404 1149.36 910.125 1123.55 917.137 1113.87 C 923.272 1115.87 926.31 1117.01 932.81 1117.22 C 929.63 1119.19 930.42 1117.87 929.671 1120.84 C 928.571 1121.06 925.822 1121.5 924.971 1121.93 L 922.848 1124.18 L 921.309 1124.98 C 919.004 1135.36 924.217 1147.51 930.739 1155.46 L 929.578 1157.09 z"/>
<path transform="translate(0,0)" fill="rgb(191,197,139)" d="M 947.336 1149.93 C 950.238 1152.88 952.888 1156.45 956.921 1156.63 C 960.464 1159.2 962.888 1162.07 966.004 1164.11 C 966.319 1164.81 966.163 1164.32 965.972 1165.67 L 962.992 1164.07 C 962.218 1166.01 962.775 1165.09 961.225 1166.78 C 957.389 1167.14 948.286 1163.92 942.65 1162.84 C 944.72 1160.33 945.485 1160.88 947.212 1157.47 C 947.136 1154.63 947.2 1152.72 947.336 1149.93 z"/>
<path transform="translate(0,0)" fill="rgb(170,156,114)" d="M 924.971 1121.93 C 929.975 1127.9 928.275 1126.13 936.538 1128.67 C 935.656 1129.74 934.914 1130.77 934.156 1131.92 C 936.227 1136.83 940.514 1135.96 942.244 1140.51 L 941.389 1141.75 C 935.754 1141.01 928.319 1128.55 922.848 1124.18 L 924.971 1121.93 z"/>
<path transform="translate(0,0)" fill="rgb(191,197,139)" d="M 950.259 1148.57 C 954.489 1143.94 953.597 1146.2 953.756 1140.17 C 958.645 1142.52 960.104 1145.74 958.486 1150.72 C 956.474 1152.35 956.578 1152.52 954.105 1153.06 L 950.259 1148.57 z"/>
<path transform="translate(0,0)" fill="rgb(170,156,114)" d="M 947.336 1149.93 C 945.766 1147.48 945.673 1147.58 945.045 1144.78 C 947.473 1145.23 948.083 1146.54 950.259 1148.57 L 954.105 1153.06 L 956.921 1156.63 C 952.888 1156.45 950.238 1152.88 947.336 1149.93 z"/>
<path transform="translate(0,0)" fill="rgb(176,125,114)" d="M 884.246 897.137 C 904.559 896.308 921.014 903.089 931.36 921.89 C 934.277 927.191 933.494 932.296 931.397 937.729 C 928.172 939.287 924.406 937.565 919.502 936.999 L 917.94 938.146 C 918.261 941.482 919.328 947.348 917.982 950.044 C 903.088 962.071 864.367 920.621 884.246 897.137 z"/>
<path transform="translate(0,0)" fill="rgb(244,212,209)" d="M 884.16 898.74 C 888.685 899.161 893.145 899.685 897.659 900.153 C 914.447 901.892 932.324 916.857 929.414 935.179 C 927.06 936.144 919.629 934.816 915.619 935.126 C 915.773 939.885 915.879 944.645 915.937 949.406 L 914.224 949.155 C 885.624 944.687 879.501 924.64 884.16 898.74 z"/>
<path transform="translate(0,0)" fill="rgb(187,216,216)" d="M 1853.55 962.897 C 1863.74 970.77 1854.29 980.393 1859.08 987.751 C 1865.24 987.592 1871.99 991.283 1875.21 996.537 L 1874.97 998.561 L 1874.02 999.265 C 1866.74 1003.04 1861.44 1004.46 1853.32 1005.96 C 1852.65 1010.4 1851.71 1018.16 1850.5 1022.21 C 1849.28 1025.84 1850.27 1024.36 1847.51 1026.89 L 1845.02 1026.65 C 1840.13 1023.24 1838.86 1021.28 1837.06 1015.52 C 1836.31 1013.12 1835.87 1012.28 1834.75 1010.01 C 1827.7 1006.05 1818.64 1014.31 1812.74 1010.04 C 1812.26 1006.19 1812.77 1005.65 1814.33 1002.17 C 1817.54 998.423 1818.56 997.675 1822.57 994.733 C 1822.92 987.303 1813.17 980.763 1815.83 972.774 C 1820.68 970.807 1824.04 972.704 1829.26 974.472 L 1838.18 978.347 C 1843.87 971.191 1846.68 968.58 1853.55 962.897 z"/>
<path transform="translate(0,0)" fill="rgb(147,172,175)" d="M 1853.55 962.897 C 1863.74 970.77 1854.29 980.393 1859.08 987.751 C 1858.52 989.091 1858.98 988.434 1857.33 989.431 L 1855.13 988.585 C 1853.8 984.202 1853.86 968.899 1853.55 962.897 z"/>
<path transform="translate(0,0)" fill="rgb(147,172,175)" d="M 1822.57 994.733 C 1822.92 987.303 1813.17 980.763 1815.83 972.774 C 1820.68 970.807 1824.04 972.704 1829.26 974.472 C 1824.07 976.796 1823.03 974.578 1818.5 977.842 C 1817.28 980.194 1817.51 978.969 1818.22 981.643 C 1824.06 987.586 1823.38 985.339 1825.13 992.518 L 1824.47 994.691 L 1822.97 995.01 L 1822.57 994.733 z"/>
<path transform="translate(0,0)" fill="rgb(147,172,175)" d="M 1814.33 1002.17 C 1820.69 1014.15 1827.93 1003.68 1836.39 1007.27 C 1838.02 1010.47 1838.02 1011.68 1837.06 1015.52 C 1836.31 1013.12 1835.87 1012.28 1834.75 1010.01 C 1827.7 1006.05 1818.64 1014.31 1812.74 1010.04 C 1812.26 1006.19 1812.77 1005.65 1814.33 1002.17 z"/>
<path transform="translate(0,0)" fill="rgb(147,172,175)" d="M 1851.23 1003.41 C 1858.38 1002.35 1868.26 998.653 1874.02 999.265 C 1866.74 1003.04 1861.44 1004.46 1853.32 1005.96 C 1852.65 1010.4 1851.71 1018.16 1850.5 1022.21 C 1849.11 1014.93 1850.22 1010.71 1851.23 1003.41 z"/>
<path transform="translate(0,0)" fill="rgb(176,125,114)" d="M 1266.69 908.279 C 1312.36 904.228 1292.97 947.092 1259.79 954.831 C 1255.12 955.257 1248.98 957.065 1246.57 952.564 C 1247.65 949.525 1248.95 947.183 1248.27 944.15 C 1246.06 941.572 1243.55 942.454 1238.86 941.913 C 1226.39 930.277 1254.25 910.632 1266.69 908.279 z"/>
<path transform="translate(0,0)" fill="rgb(244,212,209)" d="M 1262.19 911.228 C 1311.11 906.829 1290.26 941.592 1265.1 951.502 C 1259.17 952.374 1254.2 952.717 1248.24 953.131 C 1249.24 949.132 1250.81 944.406 1252.02 940.391 C 1246.74 940.276 1241.36 941.337 1238.14 937.077 C 1237.09 926.614 1253.51 914.694 1262.19 911.228 z"/>
<path transform="translate(0,0)" fill="rgb(170,156,114)" d="M 1567.6 1123.47 C 1575.27 1157.08 1561.09 1173.92 1529.57 1182.58 L 1528.98 1181.13 C 1531.71 1169.05 1523.82 1160.19 1530.49 1143.68 C 1536.78 1128.1 1550.4 1120.39 1565.14 1114.02 L 1566.56 1114.6 L 1567.49 1119.94 L 1567.6 1123.47 z"/>
<path transform="translate(0,0)" fill="rgb(197,202,147)" d="M 1541.32 1131.53 C 1550.07 1124.99 1556.04 1120.57 1567.49 1119.94 L 1567.6 1123.47 C 1566.5 1124.06 1566.13 1124 1566.08 1125.06 C 1565.46 1137.81 1568.06 1140.75 1564.79 1153.67 C 1563.1 1157 1562.04 1159.48 1559.64 1162.38 C 1557.63 1160.38 1557.7 1159.11 1557.19 1156.3 L 1557 1155.27 C 1554.61 1153.73 1551.62 1154.95 1548.11 1155.52 L 1548.23 1152.05 C 1551.05 1149.93 1553.25 1142.38 1555.52 1137.92 C 1556.84 1135.8 1556.96 1135.18 1557.81 1132.79 L 1556.99 1131.62 C 1552.63 1131.65 1548 1134.41 1543.87 1136.36 L 1541.32 1131.53 z"/>
<path transform="translate(0,0)" fill="rgb(191,197,139)" d="M 1543.87 1136.36 C 1548 1134.41 1552.63 1131.65 1556.99 1131.62 L 1557.81 1132.79 C 1556.96 1135.18 1556.84 1135.8 1555.52 1137.92 C 1553.25 1142.38 1551.05 1149.93 1548.23 1152.05 L 1548.11 1155.52 L 1539.07 1168.8 L 1536.8 1170.73 L 1536.01 1169.75 L 1537.21 1166.71 C 1534.6 1163.19 1533.19 1155.53 1535.67 1151.85 C 1535.71 1147.31 1535.94 1148.96 1533.06 1144.64 C 1535.29 1140.07 1538.44 1135.77 1541.32 1131.53 L 1543.87 1136.36 z"/>
<path transform="translate(0,0)" fill="rgb(170,156,114)" d="M 1546.97 1152 L 1548.23 1152.05 L 1548.11 1155.52 L 1539.07 1168.8 L 1536.8 1170.73 L 1536.01 1169.75 L 1537.21 1166.71 C 1540.51 1161.84 1543.77 1156.93 1546.97 1152 z"/>
<path transform="translate(0,0)" fill="rgb(191,197,139)" d="M 1548.11 1155.52 C 1551.62 1154.95 1554.61 1153.73 1557 1155.27 L 1557.19 1156.3 C 1557.7 1159.11 1557.63 1160.38 1559.64 1162.38 C 1555.97 1166.41 1554.44 1168.38 1549.6 1171.08 C 1544.81 1166.83 1544.66 1167.65 1539.07 1168.8 L 1548.11 1155.52 z"/>
<path transform="translate(0,0)" fill="rgb(197,202,147)" d="M 1533.06 1144.64 C 1535.94 1148.96 1535.71 1147.31 1535.67 1151.85 C 1533.19 1155.53 1534.6 1163.19 1537.21 1166.71 L 1536.01 1169.75 L 1536.8 1170.73 L 1539.07 1168.8 C 1544.66 1167.65 1544.81 1166.83 1549.6 1171.08 C 1544.2 1173.59 1538.88 1176.26 1533.63 1179.08 C 1531.15 1166.89 1529.07 1156.74 1533.06 1144.64 z"/>
<path transform="translate(0,0)" fill="rgb(176,125,114)" d="M 785.536 1098.33 C 801.557 1096.81 832.134 1115.03 822.111 1129.35 C 818.903 1131.63 815.133 1131.13 811.075 1131.17 C 812.694 1135.33 815.071 1139.37 814.382 1143.45 L 811.782 1145.25 C 790.595 1148.87 775.275 1134.67 768.42 1116.02 C 762.815 1100.77 774.915 1099.86 785.536 1098.33 z"/>
<path transform="translate(0,0)" fill="rgb(244,212,209)" d="M 784.568 1100.38 C 797.984 1099.41 827.983 1112.71 820.206 1126.92 C 816.858 1128.55 812.318 1128.17 808.288 1128.3 C 810.08 1133.55 811.512 1137.35 812.455 1142.88 C 790.503 1144.95 776.985 1134.82 769.76 1113.05 C 768.713 1109.9 769.982 1106.34 771.791 1103.64 C 775.957 1101.15 779.709 1101.08 784.568 1100.38 z"/>
<path transform="translate(0,0)" fill="rgb(191,197,139)" d="M 1065.94 870.337 C 1081.59 856.575 1100.33 862.914 1118.36 867.428 C 1111.51 877.972 1104.26 891.481 1093.2 897.558 L 1091.74 898.314 C 1077.69 905.183 1070.23 903.922 1055.86 899.461 L 1045.86 895.625 C 1049.32 892.037 1050.81 889.825 1053.67 885.824 C 1055 882.081 1062.17 872.687 1065.94 870.337 z"/>
<path transform="translate(0,0)" fill="rgb(170,156,114)" d="M 1065.94 870.337 C 1081.59 856.575 1100.33 862.914 1118.36 867.428 C 1111.51 877.972 1104.26 891.481 1093.2 897.558 C 1094.15 891.107 1109.25 883.601 1107.24 874.755 C 1101.67 874.285 1094.61 880.524 1089.61 879.754 C 1092.09 873.873 1110.01 875.761 1111.21 869.689 C 1110.59 869.334 1109.96 868.993 1109.33 868.667 C 1093.88 860.771 1080.33 865.73 1065.94 870.337 z"/>
<path transform="translate(0,0)" fill="rgb(175,130,103)" d="M 1054.4 895.329 C 1067.46 900.837 1074.67 900.586 1088.54 898.254 C 1090.38 897.945 1089.64 898.016 1091.74 898.314 C 1077.69 905.183 1070.23 903.922 1055.86 899.461 L 1054.4 895.329 z"/>
<path transform="translate(0,0)" fill="rgb(170,156,114)" d="M 1053.67 885.824 L 1055.45 890.468 L 1056.8 892.466 C 1055.34 893.846 1054.51 894.048 1054.4 895.329 L 1055.86 899.461 L 1045.86 895.625 C 1049.32 892.037 1050.81 889.825 1053.67 885.824 z"/>
<path transform="translate(0,0)" fill="rgb(170,156,114)" d="M 1055.45 890.468 C 1063.83 888.105 1070.05 885.441 1078.59 883.985 C 1073.5 887.122 1062.59 890.657 1056.8 892.466 L 1055.45 890.468 z"/>
</svg>